SplineFontDB: 3.0
FontName: LibertinusSerif-BoldItalic
FullName: Libertinus Serif Bold Italic
FamilyName: Libertinus Serif
Weight: Bold
UComments: "2003-08-29: Created.+AAoA-2004-07-25: v(1.0) release candidate+AAoA-2005-12-28: v(1.1.0)stable+AAoA-2006-05-01: v(2.0.0)stable+AAoA-2007-01-10: v(2.3.0)stable"
Version: 5.1.8
ItalicAngle: -12
UnderlinePosition: -98
UnderlineWidth: 40
Ascent: 754
Descent: 246
InvalidEm: 0
LayerCount: 2
Layer: 0 0 "Back" 1
Layer: 1 0 "Fore" 0
XUID: [1021 975 16237491 13016554]
FSType: 0
OS2Version: 0
OS2_WeightWidthSlopeOnly: 0
OS2_UseTypoMetrics: 1
CreationTime: 1155510122
PfmFamily: 17
TTFWeight: 700
TTFWidth: 5
LineGap: 0
VLineGap: 0
OS2TypoAscent: 894
OS2TypoAOffset: 0
OS2TypoDescent: -246
OS2TypoDOffset: 0
OS2TypoLinegap: 0
OS2WinAscent: 894
OS2WinAOffset: 0
OS2WinDescent: 246
OS2WinDOffset: 0
HheadAscent: 894
HheadAOffset: 0
HheadDescent: -246
HheadDOffset: 0
OS2CapHeight: 645
OS2XHeight: 429
OS2FamilyClass: 261
OS2Vendor: 'QUE '
Lookup: 258 0 0 "'kern' Smallcap kerning" { "'kern' Small Caps" [150,15,4] } ['kern' ('DFLT' <'dflt' > 'grek' <'dflt' > 'latn' <'AZE ' 'CRT ' 'TRK ' 'dflt' > ) ]
Lookup: 258 0 0 "'kern' Greek kerning" { "'kern' Greek Kerning" [150,0,6] } ['kern' ('DFLT' <'dflt' > 'grek' <'dflt' > ) ]
Lookup: 257 0 0 "'cpsp' Versalabstaende" { "'cpsp' Versalabstaende 1"  } ['cpsp' ('DFLT' <'dflt' > 'cyrl' <'dflt' > 'grek' <'dflt' > 'hebr' <'dflt' > 'latn' <'AZE ' 'CRT ' 'TRK ' 'dflt' > ) ]
Lookup: 260 0 0 "'mark' Mark positioning" { "'mark' Top Punkt"  "'mark' Komb OR"  "'mark' Right"  "'mark' Above"  "'mark' Middle"  "'mark' Ogonek"  "'mark' Cedilla"  "'mark' Below"  } ['mark' ('DFLT' <'dflt' > 'cyrl' <'dflt' > 'grek' <'dflt' > 'latn' <'AZE ' 'CRT ' 'TRK ' 'dflt' > ) ]
Lookup: 258 0 0 "'kern' Kerning" { "'kern' Latin kerning" [150,0,4] } ['kern' ('DFLT' <'dflt' > 'cyrl' <'dflt' > 'grek' <'dflt' > 'latn' <'AZE ' 'CRT ' 'TRK ' 'dflt' > ) ]
MarkAttachClasses: 1
DEI: 91125
KernClass2: 12 8 "'kern' Small Caps"

StartChar: exclam
Encoding: 33 33 0
Width: 266
GlyphClass: 2
Flags: MW
LayerCount: 2
Fore
SplineSet
256.7 658 m 0
 291.5 658 319.3 634 308.5 583 c 0
 301.1 548 285.4 510 272.7 477 c 0
 236.6 379.1 203.4 279 192 230 c 0
 187.6 211 178.5 188 156.8 188 c 0
 132.3 188 133.8 208 140.1 242 c 0
 149.1 289.7 161.4 409.6 164.3 480 c 0
 165.2 515 164.8 544 173.1 583 c 0
 185 639 227.6 658 256.7 658 c 0
EndSplineSet
Refer: 196 46 N 1 0 0 1 22 0 2
EndChar

StartChar: quotedbl
Encoding: 34 34 1
Width: 376
GlyphClass: 2
Flags: MW
LayerCount: 2
Fore
SplineSet
137.9 411 m 1
 124.6 415 l 1
 124.6 415 130.7 585 132 591 c 0
 136.9 614 164.1 645 204.5 645 c 0
 244 645 242.8 626 239 608 c 0
 235.8 593 163.6 417 163.6 417 c 1
 137.9 411 l 1
EndSplineSet
Refer: 193 39 N 1 0 0 1 143.8 0 2
EndChar

StartChar: numbersign
Encoding: 35 35 2
Width: 514
GlyphClass: 2
Flags: MW
LayerCount: 2
Fore
SplineSet
328.2 253 m 1
 367 360 l 1
 278.6 360 l 1
 265.1 323 251.5 290 238 253 c 1
 328.2 253 l 1
416.8 360 m 1
 378.1 253 l 1
 489 253 l 1
 467.4 187 l 1
 355.6 187 l 1
 333.4 127 314.2 72 292.5 14 c 1
 242.7 14 l 1
 306.7 187 l 1
 216.4 187 l 1
 193.3 127 174.2 72 151.5 14 c 1
 99.8 14 l 1
 162.9 187 l 1
 69.8 187 l 1
 92.3 253 l 1
 186.3 253 l 1
 199.8 290 212.4 323 225 360 c 1
 131 360 l 1
 153.5 426 l 1
 247.5 426 l 1
 269.2 484 289.8 541 311.5 599 c 1
 364.2 599 l 1
 299.2 426 l 1
 390.4 426 l 1
 412.1 484 431.8 541 453.5 599 c 1
 502.4 599 l 1
 440.2 426 l 1
 550.2 426 l 1
 527.7 360 l 1
 416.8 360 l 1
EndSplineSet
EndChar

StartChar: dollar
Encoding: 36 36 3
Width: 514
GlyphClass: 2
Flags: MW
LayerCount: 2
Fore
SplineSet
320.5 392.3 m 1
 367.8 571.6 l 1
 327.2 567.6 290.7 537.4 280.4 489 c 0
 272.8 453.3 295.5 417.6 320.5 392.3 c 1
312.1 216.1 m 1
 263.3 31.1 l 1
 309.5 37 348.4 66.1 357.1 107 c 0
 366.7 152.4 341.3 187.8 312.1 216.1 c 1
527.3 585 m 1
 521.5 531 517.2 493 506.8 444 c 1
 495.7 436 473.9 435 462.5 439 c 1
 459.9 491.3 453.6 551.6 405.1 567.8 c 1
 351.8 366.3 l 1
 355.4 364 l 2
 385.2 345 432.8 317 458.1 277 c 0
 477.1 247 490.9 219 480.7 171 c 0
 468.6 114 431 70.1 393.9 41 c 0
 352.4 8.4 304.1 -7.8 252.7 -8.9 c 1
 230.4 -93.2 l 1
 222.6 -97.4 200.3 -98.3 190.9 -98.3 c 1
 214.6 -8.5 l 1
 126.5 -5.6 123.6 9 78.7 9 c 1
 76.5 43 79.4 92 94.3 162 c 1
 109.3 166 124.4 171 138.2 165 c 1
 138.2 91.1 176.4 42.7 225.3 32.2 c 1
 280.8 242.3 l 1
 245.8 267.3 193.5 297.4 169.9 345 c 0
 156.1 373 155.4 414 163.1 450 c 0
 172.7 495 205.2 538 244.1 566 c 0
 284.5 594.9 338.7 608.3 377.9 609.9 c 1
 399 689.5 l 1
 408.4 693 426.5 694.5 438.5 694.5 c 1
 416 609 l 1
 471.4 605.2 487.3 591 527.3 585 c 1
EndSplineSet
EndChar

StartChar: percent
Encoding: 37 37 4
Width: 637
GlyphClass: 2
Flags: MW
LayerCount: 2
Fore
SplineSet
226.9 364.2 m 0
 226.9 350.1 234.5 336 243.5 336 c 0
 263 336 280.9 352.7 298.7 376 c 0
 324.2 409.5 345.8 453.1 345.8 497.6 c 0
 345.8 526.7 329 530 318.3 530 c 0
 299.6 530 279 506.8 262.1 478 c 0
 242 443.6 226.9 414.1 226.9 364.2 c 0
203.5 516.6 m 0
 232.7 546.1 274 566 315.6 566 c 0
 337.2 566 358.7 561 372.2 546.3 c 1
 394.4 531 438.3 519 466.7 519 c 0
 506.2 519 570.4 525 618.3 569 c 1
 658 548 l 1
 151.8 -16 l 1
 103.6 -4 l 1
 554.1 497 l 1
 514 481 475.9 474 447.7 474 c 0
 427.5 474 401.8 482.7 385.8 492.8 c 1
 382.1 437.8 353.9 388.1 327.1 355.6 c 0
 297.3 319.5 259.6 297 219.9 297 c 0
 171.2 297 143.9 322.5 143.9 372.8 c 0
 143.9 434.4 167.4 480.1 203.5 516.6 c 0
EndSplineSet
Refer: 1173 -1 N 1 0 0 1 340 0 2
EndChar

StartChar: parenleft
Encoding: 40 40 5
Width: 315
GlyphClass: 2
Flags: MW
LayerCount: 2
Fore
SplineSet
96.8 253 m 0
 135.5 435 268.8 607 416 720 c 1
 435.1 686 l 1
 399.5 651 261 517 204.9 253 c 0
 148.8 -11 228.4 -145 250.8 -181 c 1
 215.8 -213 l 1
 44.1 -17 87.2 208 96.8 253 c 0
EndSplineSet
EndChar

StartChar: parenright
Encoding: 41 41 6
Width: 315
GlyphClass: 2
Flags: MW
LayerCount: 2
Fore
SplineSet
325.2 251 m 0
 286.5 69 153.2 -103 6 -216 c 1
 -13.1 -182 l 1
 22.5 -147 161 -13 217.1 251 c 0
 273.2 515 193.6 649 171.2 685 c 1
 206.2 717 l 1
 377.9 521 334.8 296 325.2 251 c 0
EndSplineSet
EndChar

StartChar: asterisk
Encoding: 42 42 7
Width: 433
GlyphClass: 2
Flags: MW
LayerCount: 2
Fore
SplineSet
247.1 566 m 1
 235.3 568 224.1 573 209.6 571 c 0
 165.6 563 131.8 563 141.4 608 c 0
 144.4 622 156.6 640 179.2 640 c 0
 211.2 640 220.1 607 257.4 588 c 1
 262.1 628 243.1 653 248.6 679 c 0
 253.1 700 275.7 718 292.6 718 c 0
 309.5 718 327.8 707 322.7 683 c 0
 317 656 287.4 618 279.1 588 c 1
 325.4 607 343.2 642 374.2 642 c 0
 403.3 642 405.7 618 403.6 608 c 0
 397.2 578 363.2 568 330.3 568 c 0
 312.4 568 296.5 568 278.9 565 c 1
 303.2 529 351.5 531 340.7 480 c 0
 336.9 462 317.7 451 304.5 451 c 0
 258.4 451 274.4 513 259.2 552 c 1
 226.1 507 227.4 451 171.9 451 c 0
 155.9 451 147.4 464 150.6 479 c 0
 162.1 533 208 528 247.1 566 c 1
EndSplineSet
EndChar

StartChar: plus
Encoding: 43 43 8
Width: 537
GlyphClass: 2
Flags: MW
LayerCount: 2
Fore
SplineSet
368.5 269 m 1
 525.3 269 l 1
 509.5 195 l 1
 352.8 195 l 1
 318.2 32 l 1
 240.6 32 l 1
 275.2 195 l 1
 118.5 195 l 1
 134.2 269 l 1
 291 269 l 1
 325.8 433 l 1
 403.4 433 l 1
 368.5 269 l 1
EndSplineSet
EndChar

StartChar: slash
Encoding: 47 47 9
Width: 296
GlyphClass: 2
Flags: MW
LayerCount: 2
Fore
SplineSet
405.4 682 m 1
 83.8 -21 l 1
 24.6 -21 l 1
 346.2 682 l 1
 405.4 682 l 1
EndSplineSet
EndChar

StartChar: one
Encoding: 49 49 10
Width: 514
GlyphClass: 2
Flags: MW
LayerCount: 2
Fore
SplineSet
376 122 m 2
 358 39 403 35 454 32 c 1
 462 26 458 4 447 -2 c 1
 388 -1 328 0 290 0 c 0
 252 0 190 -1 131 -2 c 1
 123 4 127 26 138 32 c 1
 190 35 236 39 254 122 c 2
 321 435 l 2
 332 485 326 489 314 489 c 0
 301 489 267 487 211 464 c 1
 200 474 197 490 200 507 c 1
 289 543 359 567 422 595 c 0
 446 606 463 610 472 610 c 0
 480 610 487 606 484 593 c 2
 484 593 464 536 453 483 c 2
 376 122 l 2
EndSplineSet
EndChar

StartChar: two
Encoding: 50 50 11
Width: 514
GlyphClass: 2
Flags: MW
LayerCount: 2
Fore
SplineSet
257 583 m 0
 291 599 322 610 370 610 c 0
 451 610 531 560 531 482 c 0
 531 387 474 346 339 223 c 2
 285 174 l 2
 249 141 232 122 212 99 c 1
 353 99 l 2
 395 99 405 106 440 174 c 1
 462 174 469 170 480 164 c 1
 461 107 435 38 416 0 c 1
 64 0 l 1
 60 8 62 26 68 36 c 1
 98 63 146 109 238 204 c 2
 320 289 l 2
 377 348 400 396 400 466 c 0
 400 518 363 550 320 550 c 0
 282 550 260 539 249 518 c 0
 238 497 254 480 249 454 c 0
 243 423 212 410 185 410 c 0
 155 410 140 433 140 455 c 0
 140 512 195 553 257 583 c 0
EndSplineSet
EndChar

StartChar: three
Encoding: 51 51 12
Width: 514
GlyphClass: 2
Flags: MW
LayerCount: 2
Fore
SplineSet
325 550 m 0
 293 550 261 545 252 505 c 0
 244 472 229 434 192 434 c 0
 169 434 148 448 148 474 c 0
 148 500 170 521 200 544 c 0
 237 572 292 610 365 610 c 0
 472 610 511 535 511 492 c 0
 511 422 472 386 399 347 c 1
 399 344 l 1
 464 321 499 273 499 217 c 0
 499 141 466 100 426 60 c 0
 366 0 285 -10 220 -10 c 0
 174 -10 113 5 83 23 c 0
 68 32 61 43 61 58 c 0
 61 83 79 111 112 111 c 0
 147 111 162 89 169 74 c 0
 178 57 206 32 243 32 c 0
 308 32 371 94 371 182 c 0
 371 258 311 291 270 291 c 0
 256 291 239 291 220 289 c 1
 225 329 l 1
 257 333 289 340 318 354 c 0
 380 384 397 419 397 482 c 0
 397 520 364 550 325 550 c 0
EndSplineSet
EndChar

StartChar: four
Encoding: 52 52 13
Width: 514
GlyphClass: 2
Flags: MW
LayerCount: 2
Fore
SplineSet
356 501 m 1
 291 429 186 293 121 209 c 1
 294 209 l 1
 356 501 l 1
502 209 m 2
 510 209 514 205 514 199 c 0
 514 183 494 162 479 162 c 2
 400 162 l 1
 392 122 l 2
 374 39 409 35 460 32 c 1
 468 26 464 4 453 -2 c 1
 376 -1 346 0 308 0 c 0
 270 0 239 -1 162 -2 c 1
 154 4 158 26 169 32 c 1
 221 35 257 39 275 122 c 2
 284 162 l 1
 117 162 l 2
 94 162 91 164 88 169 c 0
 83.3982100669 176.669649888 69 201 69 209 c 0
 69 213 76 219 79 223 c 0
 183 347 320 519 411 610 c 1
 496 610 l 1
 410 209 l 1
 502 209 l 2
EndSplineSet
EndChar

StartChar: five
Encoding: 53 53 14
Width: 514
GlyphClass: 2
Flags: MW
LayerCount: 2
Fore
SplineSet
358 193 m 0
 358 248 338 280 296 293 c 0
 266 302 198 312 162 313 c 1
 152 321 l 1
 252 610 l 1
 305 606 334 600 372 600 c 0
 428 600 465 606 535 613 c 1
 554 600 l 1
 518 514 l 1
 460 510 442 508 408 508 c 0
 368 508 302 510 273 513 c 1
 234 408 l 1
 260 404 313 391 341 384 c 0
 448 358 487 281 487 218 c 0
 487 77 362 -10 223 -10 c 0
 178 -10 128 -2 96 18 c 0
 78 29 67 47 67 63 c 0
 67 91 87 118 122 118 c 0
 157 118 179 99 188 79 c 0
 199 55 221 34 240 34 c 0
 314 34 358 109 358 193 c 0
EndSplineSet
EndChar

StartChar: six
Encoding: 54 54 15
Width: 514
GlyphClass: 2
Flags: MW
LayerCount: 2
Fore
SplineSet
237 295 m 1
 221 254 211 193 211 137 c 0
 211 60 255 32 278 32 c 0
 348 32 381 136 381 225 c 0
 381 275 358 321 313 321 c 0
 296 321 278 319 237 295 c 1
542 602 m 1
 480 579 437 557 371 509 c 0
 319 471 274 408 252 336 c 1
 290 358 328 371 356 371 c 0
 482 371 511 294 511 240 c 0
 511 106 406 -10 259 -10 c 0
 180 -10 90 52 90 184 c 0
 90 314 167 439 266 513 c 0
 346 573 422 610 532 636 c 1
 539 628 542 616 542 602 c 1
EndSplineSet
EndChar

StartChar: seven
Encoding: 55 55 16
Width: 514
GlyphClass: 2
Flags: MW
LayerCount: 2
Fore
SplineSet
269 498 m 2
 238 498 221 482 190 410 c 1
 179 408 163 409 150 414 c 1
 160 472 176 559 187 607 c 0
 188 610 189 610 192 610 c 1
 208 606 207 600 239 600 c 2
 577 600 l 1
 581 591 l 1
 402 319 318 169 224 -2 c 1
 122 -12 l 1
 119 0 l 1
 223 144 376 362 467 498 c 1
 269 498 l 2
EndSplineSet
EndChar

StartChar: nine
Encoding: 57 57 17
Width: 514
GlyphClass: 2
Flags: MW
LayerCount: 2
Fore
SplineSet
382 305 m 1
 398 346 408 407 408 463 c 0
 408 540 363 568 340 568 c 0
 270 568 238 464 238 375 c 0
 238 325 261 279 306 279 c 0
 323 279 341 281 382 305 c 1
78 -2 m 1
 140 21 182 43 248 91 c 0
 300 129 345 192 367 264 c 1
 329 242 291 229 263 229 c 0
 137 229 108 306 108 360 c 0
 108 494 213 610 360 610 c 0
 439 610 530 548 530 416 c 0
 530 286 452 161 353 87 c 0
 273 27 198 -10 88 -36 c 1
 81 -28 78 -16 78 -2 c 1
EndSplineSet
EndChar

StartChar: less
Encoding: 60 60 20
Width: 512
GlyphClass: 2
Flags: MW
LayerCount: 2
Fore
SplineSet
212.2 240 m 1
 486.5 124 l 1
 473.3 62 l 1
 103.2 218 l 1
 112.5 262 l 1
 549 418 l 1
 535.8 356 l 1
 212.2 240 l 1
EndSplineSet
EndChar

StartChar: equal
Encoding: 61 61 21
Width: 551
GlyphClass: 2
Flags: MW
LayerCount: 2
Fore
SplineSet
525.6 198 m 1
 513.7 142 l 1
 105.8 142 l 1
 117.7 198 l 1
 525.6 198 l 1
552.2 323 m 1
 540.1 266 l 1
 132.1 266 l 1
 144.3 323 l 1
 552.2 323 l 1
EndSplineSet
EndChar

StartChar: greater
Encoding: 62 62 22
Width: 512
GlyphClass: 2
Flags: MW
LayerCount: 2
Fore
SplineSet
405.8 238 m 1
 132.5 354 l 1
 145.7 416 l 1
 515.6 259 l 1
 506.2 215 l 1
 70 60 l 1
 83.2 122 l 1
 405.8 238 l 1
EndSplineSet
EndChar

StartChar: question
Encoding: 63 63 23
Width: 430
GlyphClass: 2
Flags: MW
LayerCount: 2
Fore
SplineSet
237.6 570 m 0
 233.1 549 240.3 543 234.6 516 c 0
 229.3 491 204.2 475 176 475 c 0
 153.4 475 126.7 495 134.8 533 c 0
 142.2 568 165 591 202.9 619 c 0
 236.4 644 282.7 658 340 658 c 0
 447.2 658 500.9 597 481.3 505 c 0
 465.6 431 396.6 385 341.7 348 c 0
 311.1 328 272.5 301 257.2 229 c 2
 254.5 216 l 2
 249.2 191 243 182 216.2 182 c 0
 191.3 182 188.7 194 193.4 216 c 2
 196.5 231 l 2
 205.2 272 217.3 329 297.9 394 c 0
 337.4 425 364.1 462 374.7 512 c 0
 387 570 375.7 622 322.9 622 c 0
 281.5 622 243.6 598 237.6 570 c 0
114.7 58 m 0
 123 97 161.7 129 199.3 129 c 0
 236.9 129 260.6 99 252.3 60 c 0
 244.2 22 205.5 -10 167.9 -10 c 0
 130.3 -10 106.6 20 114.7 58 c 0
EndSplineSet
EndChar

StartChar: at
Encoding: 64 64 24
Width: 988
GlyphClass: 2
Flags: MW
LayerCount: 2
Fore
SplineSet
652.3 320 m 0
 659.7 355 661.5 381 638 381 c 0
 624.8 381 594.8 381 553.8 343 c 0
 501.3 295 470.9 227 457.5 164 c 0
 447.5 117 446.4 72 490.6 72 c 0
 518.8 72 554.4 107 598.1 193 c 0
 614.5 226 647.2 296 652.3 320 c 0
652.1 80 m 0
 649.3 67 655.7 66 666 66 c 0
 700.8 66 817.6 129 848.2 273 c 0
 895.2 494 741.4 584 631.4 584 c 0
 485.7 584 305.9 459 256.8 228 c 0
 225.3 80 268.1 -121 497.5 -121 c 0
 569.9 -121 641.7 -97 710.8 -46 c 1
 724.4 -75 l 1
 653.8 -124 586.9 -160 471.3 -160 c 0
 248.5 -160 118.4 -7 166.9 221 c 0
 210.9 428 409.9 621 647.7 621 c 0
 860.1 621 971.3 476 931.1 287 c 0
 901.3 147 764.3 24 638.3 24 c 0
 608.2 24 577.9 27 568.2 39 c 0
 557.4 52.5 555.3 67 559.3 86 c 1
 519.4 44 469.6 26 447 26 c 0
 403.9 26 377.7 34.7 360.8 54 c 0
 338.9 79 338.5 122 346.2 158 c 0
 373.4 286 534.3 415 642.4 415 c 0
 687.5 415 711.2 398 722.7 377 c 1
 764.5 410 l 1
 787.6 399 l 1
 678.3 146 l 2
 667.1 120 654.4 91 652.1 80 c 0
EndSplineSet
EndChar

StartChar: A
Encoding: 65 65 25
Width: 710
GlyphClass: 2
Flags: MW
AnchorPoint: "below" 323 -110 basechar 0
AnchorPoint: "cedilla" 581 5 basechar 0
AnchorPoint: "above" 369 850 basechar 0
LayerCount: 2
Fore
SplineSet
317 283 m 2
 463 283 l 1
 430 520 l 1
 424 520 l 1
 295 296 l 2
 289 286 296 283 317 283 c 2
174 79 m 2
 151 38 195 35 231 32 c 1
 236 26 231 4 224 -2 c 1
 189 -1 136 0 97 0 c 0
 60 0 42 -1 6 -2 c 1
 1 4 6 26 13 32 c 1
 55 35 85 40 122 102 c 2
 430 614 l 1
 464 614 528 649 544 658 c 1
 631 86 l 2
 638 35 670 36 707 32 c 1
 712 26 707 4 700 -2 c 1
 665 -1 611 0 572 0 c 0
 535 0 444 -1 408 -2 c 1
 403 4 407 26 414 32 c 1
 460 35 498 31 493 72 c 2
 471 235 l 1
 289 235 l 2
 266 235 259 231 252 218 c 2
 174 79 l 2
EndSplineSet
Position2: "'cpsp' Versalabstaende 1" dx=2 dy=0 dh=5 dv=0
EndChar

StartChar: B
Encoding: 66 66 26
Width: 621
GlyphClass: 2
Flags: MW
LayerCount: 2
Fore
SplineSet
341 562 m 2
 305 376 l 1
 359 376 l 2
 436.6 376 496.1 427.3 496.1 527.9 c 0
 496.1 592 454.4 605 417 605 c 0
 355 605 347 591 341 562 c 2
297 334 m 1
 248 84 l 2
 246.7 77.8 245.8 72.1 245.8 67.2 c 0
 245.8 49.2 257.5 40 303 40 c 0
 441.9 40 483.3 140.3 483.3 228.1 c 0
 483.3 291.8 447.3 334 365 334 c 2
 297 334 l 1
291 645 m 0
 321 645 380 647 428 647 c 0
 592.1 647 630.2 584.7 630.2 523.8 c 0
 630.2 447.9 576.7 389.1 510 361 c 1
 509 359 l 1
 588.8 335.7 624.3 292.5 624.3 228 c 0
 624.3 91.3 531.1 -2 323 -2 c 0
 265 -2 204 0 166 0 c 0
 128 0 18 -2 18 -2 c 1
 14.9 0.3 13.5 5 13.5 10.2 c 0
 13.5 18.6 17.2 28.3 24 32 c 1
 77 35 105 39 121 122 c 2
 199 523 l 2
 202.2 539.4 203.7 552.8 203.7 563.6 c 0
 203.7 607.5 178.7 610.6 137 613 c 1
 134.1 615.2 132.8 619.4 132.8 624.2 c 0
 132.8 632.8 137 643.2 144 647 c 1
 144 647 253 645 291 645 c 0
EndSplineSet
Position2: "'cpsp' Versalabstaende 1" dx=2 dy=0 dh=5 dv=0
EndChar

StartChar: C
Encoding: 67 67 27
Width: 675
GlyphClass: 2
Flags: MW
AnchorPoint: "middle" 346 315 basechar 0
AnchorPoint: "below" 363 -110 basechar 0
AnchorPoint: "cedilla" 356 -7 basechar 0
AnchorPoint: "above" 340 850 basechar 0
LayerCount: 2
Fore
SplineSet
378 -10 m 0
 285 -10 213 7 161 53 c 0
 95 111 78 221 96 315 c 0
 139 535 321 658 509 658 c 0
 627 658 663 618 711 613 c 1
 709 558 707 510 702 458 c 1
 690 452 670 449 659 453 c 1
 651 539 623 616 491 616 c 0
 377 616 275 489 245 334 c 0
 215 178 277 42 388 42 c 0
 455 42 538 68 621 146 c 1
 632 146 646 134 649 125 c 1
 566 36 471 -10 378 -10 c 0
EndSplineSet
Position2: "'cpsp' Versalabstaende 1" dx=2 dy=0 dh=5 dv=0
EndChar

StartChar: D
Encoding: 68 68 28
Width: 698
GlyphClass: 2
Flags: MW
LayerCount: 2
Fore
SplineSet
267 119 m 2
 264.6 106.9 263.4 96.6 263.4 87.8 c 0
 263.4 48.1 288.1 40 343 40 c 0
 460.6 40 584.6 204.3 584.6 426.3 c 0
 584.6 524.7 549.4 604 420 604 c 0
 385 604 357 584 346 529 c 2
 267 119 l 2
177 0 m 0
 139 0 29 -2 29 -2 c 1
 26.1 0.2 24.8 4.4 24.8 9.2 c 0
 24.8 17.8 29 28.2 36 32 c 1
 89 35 117 39 133 122 c 2
 211 523 l 2
 214.1 539.1 215.6 552.2 215.6 562.9 c 0
 215.6 607.5 189.9 610.6 148 613 c 1
 145.1 615.2 143.8 619.4 143.8 624.2 c 0
 143.8 632.8 148 643.2 155 647 c 1
 155 647 265 645 303 645 c 0
 341 645 381 646 432 646 c 0
 633.8 646 725.9 534.9 725.9 387.1 c 0
 725.9 252.6 660.7 132.3 596 82 c 0
 516 20 416 -2 332 -2 c 0
 294 -2 215 0 177 0 c 0
EndSplineSet
Position2: "'cpsp' Versalabstaende 1" dx=2 dy=0 dh=5 dv=0
EndChar

StartChar: E
Encoding: 69 69 29
Width: 578
GlyphClass: 2
Flags: MW
AnchorPoint: "cedilla" 334 4 basechar 0
AnchorPoint: "below" 334 -110 basechar 0
AnchorPoint: "above" 328 850 basechar 0
LayerCount: 2
Fore
SplineSet
377 367 m 2
 441 367 462 374 476 429 c 1
 483 435 512 435 517 429 c 1
 510 399 506 377 499 343 c 0
 492 309 489 290 483 255 c 1
 476 249 447 249 442 255 c 1
 448 300 433 317 367 317 c 2
 289 317 l 1
 245 90 l 2
 240 63 254 42 275 42 c 2
 372 42 l 2
 445 42 499 98 532 170 c 1
 545 173 565 171 574 165 c 1
 556 114 539 48 516 -2 c 1
 516 -2 430 0 384 0 c 2
 158 0 l 1
 158 0 56 -1 9 -2 c 1
 4 4 9 26 16 32 c 1
 84 35 101 39 117 122 c 2
 194 522 l 2
 210 605 196 610 129 613 c 1
 124 619 128 641 135 647 c 1
 183 646 283 645 283 645 c 1
 566 645 l 2
 589 645 597 646 614 649 c 0
 617 649 617 648 617 646 c 0
 617 638 603 542 600 501 c 1
 590 496 570 494 558 496 c 1
 550 565 538 603 466 603 c 2
 384 603 l 2
 361 603 340 578 335 554 c 2
 299 367 l 1
 377 367 l 2
EndSplineSet
Position2: "'cpsp' Versalabstaende 1" dx=2 dy=0 dh=5 dv=0
EndChar

StartChar: F
Encoding: 70 70 30
Width: 518
GlyphClass: 2
Flags: MW
AnchorPoint: "above" 328 850 basechar 0
AnchorPoint: "below" 334 -110 basechar 0
LayerCount: 2
Fore
SplineSet
251 122 m 2
 235 39 271 35 323 32 c 1
 331 26 327 4 316 -2 c 1
 278 -1 199 0 161 0 c 0
 123 0 52 -1 13 -2 c 1
 5 4 9 26 20 32 c 1
 73 35 101 39 117 122 c 2
 194 522 l 2
 210 605 196 610 129 613 c 1
 124 619 128 641 135 647 c 1
 183 646 283 645 283 645 c 1
 571 645 l 2
 594 645 602 646 619 649 c 0
 622 649 622 648 622 646 c 0
 622 638 607 537 604 496 c 1
 594 491 574 489 562 491 c 1
 554 560 542 603 470 603 c 2
 384 603 l 2
 361 603 340 578 335 554 c 2
 295 347 l 1
 373 347 l 2
 437 347 458 354 472 409 c 1
 479 415 508 415 513 409 c 1
 506 379 502 357 495 323 c 0
 488 289 485 270 479 235 c 1
 472 229 443 229 438 235 c 1
 444 280 429 297 363 297 c 2
 285 297 l 1
 251 122 l 2
EndSplineSet
Position2: "'cpsp' Versalabstaende 1" dx=2 dy=0 dh=5 dv=0
EndChar

StartChar: G
Encoding: 71 71 31
Width: 723
GlyphClass: 2
Flags: MW
AnchorPoint: "top_punkt" 530 750 basechar 0
AnchorPoint: "middle" 338 335 basechar 0
AnchorPoint: "cedilla" 397 2 basechar 0
AnchorPoint: "below" 397 -110 basechar 0
AnchorPoint: "above" 395 850 basechar 0
LayerCount: 2
Fore
SplineSet
518 658 m 0
 635 658 691 623 749 623 c 1
 742 551 739 501 739 459 c 1
 695 453 l 1
 687 539 635 616 496 616 c 0
 449 616 387 595 337 542 c 0
 289 491 256 413 239 327 c 0
 213 195 243 32 414 32 c 0
 466 32 493 42 532 74 c 1
 561 223 l 2
 569 263 544 267 492 271 c 1
 487 277 492 302 499 308 c 1
 544 307 609 306 646 306 c 0
 684 306 732 307 761 308 c 1
 766 302 761 277 754 271 c 1
 726 268 707 258 700 223 c 2
 678 106 l 2
 676 95 678 87 687 78 c 1
 612 24 496 -10 383 -10 c 0
 290 -10 202 12 149 66 c 0
 91 124 72 217 90 307 c 0
 111 415 175 505 255 565 c 0
 337 627 434 658 518 658 c 0
EndSplineSet
Position2: "'cpsp' Versalabstaende 1" dx=2 dy=0 dh=5 dv=0
EndChar

StartChar: grave
Encoding: 96 96 32
Width: 392
GlyphClass: 2
Flags: MW
LayerCount: 2
Fore
SplineSet
301 698 m 1
 349 573 l 2
 351 567 352 562 352 558 c 0
 352 555 352 552 351 549 c 0
 350 544 342 538 335 538 c 0
 328 538 322 543 309 558 c 2
 214 667 l 1
 218 677 l 1
 229 683 251 701 287 701 c 0
 292 701 298 700 301 698 c 1
EndSplineSet
EndChar

StartChar: ograve
Encoding: 242 242 33
Width: 479
GlyphClass: 2
Flags: MW
AnchorPoint: "ogonek" 370 44 basechar 0
AnchorPoint: "cedilla" 229.4 -3 basechar 0
AnchorPoint: "below" 185.2 -107 basechar 0
LayerCount: 2
Fore
SplineSet
220 -10 m 1024
375.5 674 m 1
 427.1 550 l 2
 430.1 543 433.5 532 432.4 524 c 0
 431.1 515 422.2 508 413.2 508 c 0
 405.2 508 395.9 513 381 528 c 2
 274.8 633 l 1
 278.3 644 l 1
 287.6 653 319.8 676 355.8 676 c 0
 360.8 676 371.6 675 375.5 674 c 1
EndSplineSet
Refer: 236 111 N 1 0 0 1 0 0 2
EndChar

StartChar: oacute
Encoding: 243 243 34
Width: 479
GlyphClass: 2
Flags: MW
AnchorPoint: "ogonek" 370 44 basechar 0
AnchorPoint: "cedilla" 229.4 -3 basechar 0
AnchorPoint: "below" 185.2 -107 basechar 0
LayerCount: 2
Fore
SplineSet
220 -10 m 1024
363.7 674 m 1
 366.8 675 375 676 380 676 c 0
 410 676 427 662 433.6 652 c 1
 440.4 629 l 1
 305.2 521 l 2
 289.5 509 275 505 265 505 c 0
 257 505 250.2 513 251 519 c 0
 251.8 525 255 534 262.3 543 c 2
 363.7 674 l 1
EndSplineSet
Refer: 236 111 N 1 0 0 1 0 0 2
EndChar

StartChar: ocircumflex
Encoding: 244 244 35
Width: 479
GlyphClass: 2
Flags: MW
AnchorPoint: "ogonek" 370 44 basechar 0
AnchorPoint: "cedilla" 229.4 -3 basechar 0
AnchorPoint: "below" 185.2 -107 basechar 0
LayerCount: 2
Fore
SplineSet
220 -10 m 1024
379.8 663 m 1
 402.9 614 434.7 570 465.9 529 c 1
 438.2 510 l 1
 398.9 536 372.7 556 342.9 593 c 1
 299.4 554 268.9 536 225.2 510 c 1
 202.9 529 l 1
 244.7 570 291.1 615 327.8 663 c 1
 379.8 663 l 1
EndSplineSet
Refer: 236 111 N 1 0 0 1 0 0 2
EndChar

StartChar: otilde
Encoding: 245 245 36
Width: 479
GlyphClass: 2
Flags: MW
AnchorPoint: "ogonek" 370 44 basechar 0
AnchorPoint: "cedilla" 229.4 -3 basechar 0
AnchorPoint: "below" 185.2 -107 basechar 0
LayerCount: 2
Fore
SplineSet
220 -10 m 1024
403 589 m 0
 417 589 439 596 458.1 632 c 1
 472.1 632 485 624 483.3 612 c 1
 458.1 554 416.2 519 379.2 519 c 0
 356.2 519 335.1 525 317.2 540 c 1
 299 553 279.5 557 261.5 557 c 0
 239.5 557 223.2 555 206.9 517 c 1
 194.9 517 181.4 521 183.4 535 c 1
 206.6 586 244.5 628 279.5 628 c 0
 310.5 628 332.2 619 350 603 c 0
 366 589 392 589 403 589 c 0
EndSplineSet
Refer: 236 111 N 1 0 0 1 0 0 2
EndChar

StartChar: odieresis
Encoding: 246 246 37
Width: 479
GlyphClass: 2
Flags: MW
AnchorPoint: "ogonek" 370 44 basechar 0
AnchorPoint: "cedilla" 229.4 -3 basechar 0
AnchorPoint: "below" 185.2 -107 basechar 0
LayerCount: 2
Fore
SplineSet
220 -10 m 1024
391.7 573 m 0
 393.9 604 418.2 628 447.3 628 c 0
 475.5 628 497.3 604 495.1 573 c 0
 492.9 543 467.7 519 439.5 519 c 0
 410.4 519 389.5 543 391.7 573 c 0
216.8 573 m 0
 219 604 244.3 628 272.5 628 c 0
 301.6 628 322.4 604 320.2 573 c 0
 318 543 293.8 519 264.7 519 c 0
 236.5 519 214.6 543 216.8 573 c 0
EndSplineSet
Refer: 236 111 N 1 0 0 1 0 0 2
EndChar

StartChar: divide
Encoding: 247 247 38
Width: 527
GlyphClass: 2
Flags: MW
LayerCount: 2
Fore
SplineSet
230 72 m 0
 230 102 259 132 292 132 c 0
 315 132 331 116 331 94 c 0
 331 60 298 34 269 34 c 0
 246 34 230 50 230 72 c 0
302 397 m 0
 302 428 331 458 364 458 c 0
 387 458 403 441 403 419 c 0
 403 386 370 359 341 359 c 0
 317 359 302 375 302 397 c 0
523 268 m 1
 512 219 l 1
 116 219 l 1
 128 268 l 1
 523 268 l 1
EndSplineSet
EndChar

StartChar: Eogonek
Encoding: 280 280 45
Width: 578
GlyphClass: 2
Flags: MW
LayerCount: 2
Fore
SplineSet
513 -179 m 1
 487 -215 443 -234 404 -234 c 0
 384.7 -234 368.4 -227.4 354 -218 c 0
 331.1 -203 315 -177.9 315 -138 c 0
 315 -88.6 364.3 -30.3 417.5 -0.2 c 1
 405.4 -0.1 393.8 0 384 0 c 2
 158 0 l 1
 158 0 56 -1 9 -2 c 1
 4 4 9 26 16 32 c 1
 84 35 101 39 117 122 c 2
 194 522 l 2
 210 605 196 610 129 613 c 1
 124 619 128 641 135 647 c 1
 183 646 283 645 283 645 c 1
 566 645 l 2
 589 645 597 646 614 649 c 0
 617 649 617 648 617 646 c 0
 617 638 603 542 600 501 c 1
 590 496 570 494 558 496 c 1
 550 565 538 603 466 603 c 2
 384 603 l 2
 361 603 340 578 335 554 c 2
 299 367 l 1
 377 367 l 2
 441 367 462 374 476 429 c 1
 483 435 512 435 517 429 c 1
 510 399 506 377 499 343 c 0
 492 309 489 290 483 255 c 1
 476 249 447 249 442 255 c 1
 448 300 433 317 367 317 c 2
 289 317 l 1
 245 90 l 2
 240 63 254 42 275 42 c 2
 372 42 l 2
 445 42 499 98 532 170 c 1
 545 173 565 171 574 165 c 1
 556 114 539 48 516 -2 c 1
 516 -2 508.4 -1.8 496.5 -1.6 c 1
 447.7 -8.2 407 -69.2 407 -132 c 0
 407 -164 424.5 -174 442 -174 c 0
 459 -174 483 -171 498 -156 c 1
 513 -179 l 1
EndSplineSet
Position2: "'cpsp' Versalabstaende 1" dx=2 dy=0 dh=5 dv=0
EndChar

StartChar: eogonek
Encoding: 281 281 46
Width: 409
GlyphClass: 2
Flags: MW
LayerCount: 2
Fore
SplineSet
356.5 -161 m 1
 330.5 -197 286.5 -216 247.5 -216 c 0
 197.5 -216 158.5 -185 158.5 -130 c 0
 158.5 -86.3 192.5 -44.1 232.8 -8.6 c 1
 224.8 -9.5 216.8 -10 209 -10 c 0
 89 -10 63 57 63 142 c 0
 63 269 140 439 334 439 c 0
 415 439 456 404 456 369 c 0
 456 351.2 455.5 317.2 425 288 c 0
 390.6 255 319.2 226.1 193 199 c 1
 192 191 192 170 192 165 c 0
 192 98 206 50 245 50 c 0
 293 50 324 66 381 124 c 1
 393 124 408 110 413 99 c 1
 385.2 63.2 353.2 37 320.2 19.2 c 1
 278.2 -20.6 250.5 -61.5 250.5 -124 c 0
 250.5 -145 268 -156 285.5 -156 c 0
 302.5 -156 326.5 -153 341.5 -138 c 1
 356.5 -161 l 1
343 370 m 0
 343 390 332 398 311 398 c 0
 272 398 234.3 378 200 237.3 c 1
 253 246 343 280 343 370 c 0
EndSplineSet
EndChar

StartChar: Hbar
Encoding: 294 294 59
Width: 735
GlyphClass: 2
Flags: MW
LayerCount: 2
Fore
SplineSet
589 492 m 1
 339 492 l 1
 314.7 367 l 1
 564.7 367 l 1
 589 492 l 1
345.6 526 m 1
 595.6 526 l 1
 610.4 606.1 583.4 610 532 613 c 1
 524 619 528 641 539 647 c 1
 577 646 649 645 687 645 c 0
 725 645 794 646 833 647 c 1
 841 641 837 619 826 613 c 1
 773.6 610 745.7 606.1 729.6 526 c 1
 782 526 l 1
 775 492 l 1
 723 492 l 1
 651 122 l 2
 635 39 661 35 713 32 c 1
 721 26 718 4 707 -2 c 1
 669 -1 599 0 561 0 c 0
 523 0 452 -1 413 -2 c 1
 405 4 409 26 420 32 c 1
 473 35 501 39 517 122 c 2
 555.3 319 l 1
 305.3 319 l 1
 267 122 l 2
 251 39 277 35 329 32 c 1
 337 26 334 4 323 -2 c 1
 285 -1 215 0 177 0 c 0
 139 0 68 -1 29 -2 c 1
 21 4 25 26 36 32 c 1
 89 35 117 39 133 122 c 2
 205 492 l 1
 145 492 l 1
 152 526 l 1
 211.6 526 l 1
 226.4 606.1 199.4 610 148 613 c 1
 140 619 144 641 155 647 c 1
 193 646 265 645 303 645 c 0
 341 645 410 646 449 647 c 1
 457 641 453 619 442 613 c 1
 389.6 610 361.7 606.1 345.6 526 c 1
EndSplineSet
Position2: "'cpsp' Versalabstaende 1" dx=2 dy=0 dh=5 dv=0
EndChar

StartChar: hbar
Encoding: 295 295 60
Width: 620
GlyphClass: 2
Flags: MW
LayerCount: 2
Fore
SplineSet
225.9 72 m 2
 217.3 33 218 -10 157 -10 c 0
 101 -10 91.1 0.5 91.1 17.2 c 0
 91.1 27 98.5 48.3 103.8 72 c 2
 206.6 530 l 1
 143 530 l 1
 152 569 l 1
 215.3 569 l 1
 228.5 632.5 212.2 638 152 638 c 1
 149 647 151 660 157 672 c 1
 200 679 292 698 323 698 c 0
 346 698 353 686 353 665 c 0
 353 645 345 616 338 583 c 2
 334.9 569 l 1
 445 569 l 1
 436 530 l 1
 326.4 530 l 1
 279.8 317.9 l 1
 368.3 419 432.3 439 483 439 c 0
 522 439 572 419 572 359 c 0
 572 341 567.3 317.9 559 283 c 2
 521 124 l 2
 514.7 98.4 507.7 63 525 63 c 0
 535 63 569 80 595 110 c 1
 609 110 621 91 624 82 c 1
 578 23 508.5 -10 439 -10 c 0
 409 -10 397.5 2.5 390 23 c 0
 383.5 40.8 389.2 83.2 397 115 c 2
 434 275 l 2
 441.9 309 443 319 443 333 c 0
 443 364 429 369 408 369 c 0
 372.6 369 322.6 311.8 260.9 231.8 c 1
 225.9 72 l 2
EndSplineSet
EndChar

StartChar: imacron
Encoding: 299 299 64
Width: 342
GlyphClass: 2
Flags: MW
LayerCount: 2
Fore
SplineSet
377.4 538 m 2
 157.8 538 l 2
 149.7 538 147.6 546 148.9 553 c 0
 151.1 565 164.1 582 174 582 c 2
 394.5 582 l 2
 403.5 582 405.6 574 404.5 568 c 0
 402.3 556 389.1 538 377.4 538 c 2
EndSplineSet
Refer: 359 305 N 1 0 0 1 0 0 2
EndChar

StartChar: Iogonek
Encoding: 302 302 67
Width: 351
GlyphClass: 2
Flags: MW
LayerCount: 2
Fore
SplineSet
320 -179 m 1
 294 -215 250 -234 211 -234 c 0
 191.7 -234 175.4 -227.4 161 -218 c 0
 138.1 -203 122 -177.9 122 -138 c 0
 122 -88.7 171.1 -30.4 224.3 -0.3 c 1
 206.5 -0.1 189.9 0 177 0 c 0
 139 0 68 -1 29 -2 c 1
 21 4 25 26 36 32 c 1
 89 35 117 39 133 122 c 2
 211 523 l 2
 227 606 200 610 148 613 c 1
 140 619 144 641 155 647 c 1
 193 646 265 645 303 645 c 0
 341 645 410 646 449 647 c 1
 457 641 453 619 442 613 c 1
 389 610 361 606 345 523 c 2
 267 122 l 2
 251 39 277 35 329 32 c 1
 337 26 334 4 323 -2 c 1
 317.2 -1.8 310.7 -1.6 303.7 -1.5 c 1
 254.8 -8 214 -69.1 214 -132 c 0
 214 -164 231.5 -174 249 -174 c 0
 266 -174 290 -171 305 -156 c 1
 320 -179 l 1
EndSplineSet
Position2: "'cpsp' Versalabstaende 1" dx=2 dy=0 dh=5 dv=0
EndChar

StartChar: iogonek
Encoding: 303 303 68
Width: 342
GlyphClass: 2
Flags: MW
LayerCount: 2
Fore
SplineSet
321.5 -161 m 1
 295.5 -197 251.5 -216 212.5 -216 c 0
 162.5 -216 123.5 -185 123.5 -130 c 0
 123.5 -86 157.9 -43.6 198.5 -8 c 1
 188.7 -9.3 178.8 -10 169 -10 c 0
 139 -10 127.5 2.5 120 23 c 0
 113.5 40.8 120 83 127 115 c 2
 171 321 l 2
 176.6 347 177 352.9 177 362 c 0
 177 372 171 381.1 159 382 c 2
 119 385 l 1
 113 394 114.3 415 121 423 c 1
 168 429 261 436 293 436 c 0
 306.2 436 313.5 428.6 313.5 414.9 c 0
 313.5 397.8 301.8 359.5 293.3 320.2 c 2
 251 124 l 2
 245.1 98.4 237.7 63 255 63 c 0
 265 63 299 80 325 110 c 1
 339 110 351 91 354 82 c 1
 336.4 59.5 315.4 40.8 292.3 26.2 c 1
 292.5 26 l 1
 246.5 -16 215.5 -58 215.5 -124 c 0
 215.5 -145 233 -156 250.5 -156 c 0
 267.5 -156 291.5 -153 306.5 -138 c 1
 321.5 -161 l 1
EndSplineSet
Refer: 457 775 N 1 0 0 1 304 0 2
EndChar

StartChar: uni1E03
Encoding: 7683 7683 73
Width: 521
GlyphClass: 2
Flags: MW
LayerCount: 2
Fore
SplineSet
266.4 277.6 m 1
 233 127 l 2
 217.8 58.5 224.9 32 261 32 c 0
 337.3 32 422 156 422 301 c 0
 422 319 419 352 389 352 c 0
 341.5 352 312.6 331.4 266.4 277.6 c 1
279.2 335.6 m 1
 281 335 l 1
 316 376 380 439 449 439 c 0
 537.5 439 550.5 368.5 550.5 327.5 c 0
 550.5 225.4 508.8 147.8 426.5 73.5 c 0
 348.5 3 269.5 -10 210 -10 c 0
 120 -10 94.6 54.5 109 118 c 2
 210 563 l 2
 225.7 632.1 210 638 148 638 c 1
 145 647 147 660 153 672 c 1
 196 679 288 698 319 698 c 0
 342 698 349 686 349 665 c 0
 349 645 341.3 615.9 334 583 c 2
 279.2 335.6 l 1
EndSplineSet
Refer: 457 775 N 1 0 0 1 507 -19 2
EndChar

StartChar: uni1E05
Encoding: 7685 7685 75
Width: 521
GlyphClass: 2
Flags: MW
LayerCount: 2
Fore
SplineSet
266.4 277.6 m 1
 233 127 l 2
 217.8 58.5 224.9 32 261 32 c 0
 337.3 32 422 156 422 301 c 0
 422 319 419 352 389 352 c 0
 341.5 352 312.6 331.4 266.4 277.6 c 1
279.2 335.6 m 1
 281 335 l 1
 316 376 380 439 449 439 c 0
 537.5 439 550.5 368.5 550.5 327.5 c 0
 550.5 225.4 508.8 147.8 426.5 73.5 c 0
 348.5 3 269.5 -10 210 -10 c 0
 120 -10 94.6 54.5 109 118 c 2
 210 563 l 2
 225.7 632.1 210 638 148 638 c 1
 145 647 147 660 153 672 c 1
 196 679 288 698 319 698 c 0
 342 698 349 686 349 665 c 0
 349 645 341.3 615.9 334 583 c 2
 279.2 335.6 l 1
EndSplineSet
Refer: 457 775 N 1 0 0 1 272 -737 2
EndChar

StartChar: uni1E07
Encoding: 7687 7687 77
Width: 521
GlyphClass: 2
Flags: MW
LayerCount: 2
Fore
SplineSet
266.4 277.6 m 1
 233 127 l 2
 217.8 58.5 224.9 32 261 32 c 0
 337.3 32 422 156 422 301 c 0
 422 319 419 352 389 352 c 0
 341.5 352 312.6 331.4 266.4 277.6 c 1
279.2 335.6 m 1
 281 335 l 1
 316 376 380 439 449 439 c 0
 537.5 439 550.5 368.5 550.5 327.5 c 0
 550.5 225.4 508.8 147.8 426.5 73.5 c 0
 348.5 3 269.5 -10 210 -10 c 0
 120 -10 94.6 54.5 109 118 c 2
 210 563 l 2
 225.7 632.1 210 638 148 638 c 1
 145 647 147 660 153 672 c 1
 196 679 288 698 319 698 c 0
 342 698 349 686 349 665 c 0
 349 645 341.3 615.9 334 583 c 2
 279.2 335.6 l 1
EndSplineSet
Refer: 1181 817 N 1 0 0 1 486 0 2
EndChar

StartChar: uni1E11
Encoding: 7697 7697 87
Width: 561
GlyphClass: 2
Flags: MW
LayerCount: 2
Fore
SplineSet
445 563 m 2
 461 632 445 638 383 638 c 1
 380 647 382 660 388 672 c 1
 431 679 523 698 554 698 c 0
 577 698 584 686 584 665 c 0
 584 645 576 616 569 583 c 2
 468 127 l 2
 464.9 113.2 461.3 96.6 461.3 84.2 c 0
 461.3 73.5 464 66 472 66 c 0
 482 66 516 83 542 113 c 1
 556 113 568 94 571 85 c 1
 521 30 454.5 -10 385 -10 c 0
 349.1 -10 334.3 12.7 334.3 47.1 c 0
 334.3 67.4 338.8 94.7 343.8 117.1 c 1
 342 118 l 1
 282 30 235 -10 178 -10 c 0
 90 -10 58 51 58 124 c 0
 58 213.1 102 321 188 389 c 0
 233.1 424.6 272 439 325 439 c 0
 363 439 392 414 404 384 c 1
 404.4 384 l 1
 445 563 l 2
382.5 281.8 m 2
 384.2 288.3 385.5 294.2 386.4 299.6 c 2
 382.5 281.8 l 2
377.2 264.1 m 1
 387.8 311.1 l 2
 387.9 312.8 388 314.5 388 316 c 0
 388 351 366 393 328 393 c 0
 242 393 179 256 179 150 c 0
 179 94 191 56 220 56 c 0
 259 56 297 104 346 194 c 0
 360 219.6 370.3 243.6 377.2 264.1 c 1
EndSplineSet
Refer: 464 806 N 1 0 0 1 480 0 2
EndChar

StartChar: uni1E14
Encoding: 7700 7700 90
Width: 578
GlyphClass: 2
Flags: MW
LayerCount: 2
Fore
SplineSet
338.8 953.4 m 1
 318.3 942.8 295.1 923.5 282.8 905 c 1
 283.8 894.4 l 1
 388.4 843.4 l 2
 398.5 838.1 407.7 837.2 414.6 837.2 c 0
 421.5 837.2 430.7 843.4 431.6 850.4 c 0
 432.4 856.6 433 861.9 426.2 868.9 c 0
 412 884.7 366.6 928.8 338.8 953.4 c 1
529.5 765 m 2
 285.5 765 l 2
 276.5 765 274.1 773 275.5 780 c 0
 277.9 792 292.4 809 303.4 809 c 2
 548.4 809 l 2
 558.4 809 560.8 801 559.6 795 c 0
 557.2 783 542.5 765 529.5 765 c 2
EndSplineSet
Refer: 29 69 N 1 0 0 1 0 0 2
EndChar

StartChar: uni1E15
Encoding: 7701 7701 91
Width: 409
GlyphClass: 2
Flags: MW
LayerCount: 2
Fore
SplineSet
327.4 764.6 m 1
 368.7 653 l 2
 371.1 646.7 373.9 636.8 373 629.6 c 0
 372 621.5 364.8 615.2 357.6 615.2 c 0
 351.2 615.2 343.7 619.7 331.8 633.2 c 2
 246.8 727.7 l 1
 249.6 737.6 l 1
 257 745.7 282.8 766.4 311.6 766.4 c 0
 315.6 766.4 324.3 765.5 327.4 764.6 c 1
EndSplineSet
Refer: 357 275 N 1 0 0 1 0 0 2
EndChar

StartChar: uni1E16
Encoding: 7702 7702 92
Width: 578
GlyphClass: 2
Flags: MW
LayerCount: 2
Fore
SplineSet
462.3 955 m 1
 480.2 944.8 498.7 924.7 506.4 906.6 c 1
 502.7 896.1 l 1
 385.6 845 l 2
 373.8 839.9 364.8 838.9 357.9 838.9 c 0
 351 838.9 343.2 845.1 344.1 852.1 c 0
 344.9 858.3 345.7 863.3 354.1 870.6 c 0
 372.2 886.4 428.5 930.4 462.3 955 c 1
EndSplineSet
Refer: 443 713 N 1 0 0 1 92 227 2
Refer: 29 69 N 1 0 0 1 0 0 2
EndChar

StartChar: uni1E17
Encoding: 7703 7703 93
Width: 409
GlyphClass: 2
Flags: MW
LayerCount: 2
Fore
SplineSet
373.4 778.6 m 1
 375.9 779.5 382.4 780.4 386.4 780.4 c 0
 410.4 780.4 424 767.8 429.3 758.8 c 1
 434.7 738.1 l 1
 326.6 640.9 l 2
 314.1 630.1 302.4 626.5 294.4 626.5 c 0
 288 626.5 282.5 633.7 283.2 639.1 c 0
 283.9 644.5 286.5 652.6 292.3 660.7 c 2
 373.4 778.6 l 1
EndSplineSet
Refer: 357 275 N 1 0 0 1 0 0 2
EndChar

StartChar: uni1E1F
Encoding: 7711 7711 101
Width: 397
GlyphClass: 2
Flags: MW
LayerCount: 2
Fore
SplineSet
191 382 m 1
 109 382 l 2
 106 382 103 382 103 384 c 0
 103 386 106 406 107 409 c 0
 109 417 116 425 135 426 c 2
 201 429 l 1
 222.5 535 254 599.5 291 640 c 0
 327.3 679.7 381.5 698 437 698 c 0
 522 698 591.7 656.8 591.7 608.5 c 0
 591.7 587 576.8 554.7 539.9 554.7 c 0
 499.2 554.7 489.1 590.8 484 617.5 c 0
 478.9 641.7 466 656 438 656 c 0
 380 656 356.7 587.9 337 486 c 2
 326 429 l 1
 436 429 l 2
 441 429 443 427 443 424 c 0
 443 423 438 394 438 394 c 2
 436 386 421 382 412 382 c 2
 319 382 l 1
 315 359 l 2
 299.6 270.7 286 207.9 268.9 130 c 0
 230 -48 185.3 -111.1 150.8 -157.6 c 0
 112.9 -208.7 60.9 -233.2 11.6 -233.2 c 0
 -70 -233.2 -102.2 -194.7 -102.2 -168 c 0
 -102.2 -147.6 -89.8 -121.8 -56.7 -121.8 c 0
 -33.8 -121.8 -13.5 -133.5 1.3 -157.8 c 0
 9.9 -172 21 -184.6 34.4 -184.6 c 0
 52.4 -184.6 75.9 -168.4 89.2 -147.6 c 0
 133.3 -78.7 137 43.4 150 141 c 0
 160 216 169 268.5 191 382 c 1
EndSplineSet
Refer: 457 775 N 1 0 0 1 493 232 2
EndChar

StartChar: uni1E27
Encoding: 7719 7719 109
Width: 620
GlyphClass: 2
Flags: MW
LayerCount: 2
Fore
SplineSet
535 572 m 0
 535 597 555 618 580 618 c 0
 605 618 626 597 626 572 c 0
 626 547 605 527 580 527 c 0
 555 527 535 547 535 572 c 0
398 572 m 0
 398 597 418 618 443 618 c 0
 468 618 488 597 488 572 c 0
 488 547 468 527 443 527 c 0
 418 527 398 547 398 572 c 0
EndSplineSet
Refer: 229 104 N 1 0 0 1 0 0 2
EndChar

StartChar: uni1E28
Encoding: 7720 7720 110
Width: 735
GlyphClass: 2
Flags: MW
LayerCount: 2
Fore
SplineSet
78.4 -101 m 1
 73.3 -95 l 1
 133.9 -0.3 l 1
 97.9 -0.7 55.9 -1.3 29 -2 c 1
 21 4 25 26 36 32 c 1
 89 35 117 39 133 122 c 2
 211 523 l 2
 227 606 200 610 148 613 c 1
 140 619 144 641 155 647 c 1
 193 646 265 645 303 645 c 0
 341 645 410 646 449 647 c 1
 457 641 453 619 442 613 c 1
 389 610 361 606 345 523 c 2
 314.7 367 l 1
 564.7 367 l 1
 595 523 l 2
 611 606 584 610 532 613 c 1
 524 619 528 641 539 647 c 1
 577 646 649 645 687 645 c 0
 725 645 794 646 833 647 c 1
 841 641 837 619 826 613 c 1
 773 610 745 606 729 523 c 2
 651 122 l 2
 635 39 661 35 713 32 c 1
 721 26 718 4 707 -2 c 1
 669 -1 599 0 561 0 c 0
 523 0 452 -1 413 -2 c 1
 405 4 409 26 420 32 c 1
 473 35 501 39 517 122 c 2
 555.3 319 l 1
 305.3 319 l 1
 267 122 l 2
 251 39 277 35 329 32 c 1
 337 26 334 4 323 -2 c 1
 285 -1 215 0 177 0 c 0
 174.4 0 171.6 0 168.7 -0 c 1
 145.9 -41 l 1
 190 -50.1 234.6 -70.5 226.9 -125.1 c 0
 219.8 -175.3 162.2 -215 97.4 -215 c 0
 65.4 -215 59.3 -209 35.8 -198 c 1
 37.2 -188 39.7 -176.2 49.4 -172 c 1
 75 -182 85.5 -186 105.5 -186 c 0
 135.5 -186 157.4 -172 161.2 -145 c 0
 166.5 -107.4 114.1 -103 78.4 -101 c 1
EndSplineSet
EndChar

StartChar: uni1E29
Encoding: 7721 7721 111
Width: 620
GlyphClass: 2
Flags: MW
LayerCount: 2
Fore
SplineSet
225.9 72 m 2
 217.3 33 218 -10 157 -10 c 0
 149.3 -10 142.5 -9.8 136.5 -9.4 c 1
 118.9 -41 l 1
 163 -50.1 207.6 -70.5 199.9 -125.1 c 0
 192.8 -175.3 135.2 -215 70.4 -215 c 0
 38.4 -215 32.3 -209 8.8 -198 c 1
 10.2 -188 12.7 -176.2 22.4 -172 c 1
 48 -182 58.5 -186 78.5 -186 c 0
 108.5 -186 130.4 -172 134.2 -145 c 0
 139.5 -107.4 87.1 -103 51.4 -101 c 1
 46.3 -95 l 1
 104.9 -3.5 l 1
 93.9 1.2 91.1 8.4 91.1 17.2 c 0
 91.1 27 98.5 48.3 103.8 72 c 2
 214 563 l 2
 229.5 632.1 214 638 152 638 c 1
 149 647 151 660 157 672 c 1
 200 679 292 698 323 698 c 0
 346 698 353 686 353 665 c 0
 353 645 345 616 338 583 c 2
 279.8 317.9 l 1
 368.3 419 432.3 439 483 439 c 0
 522 439 572 419 572 359 c 0
 572 341 567.3 317.9 559 283 c 2
 521 124 l 2
 514.7 98.4 507.7 63 525 63 c 0
 535 63 569 80 595 110 c 1
 609 110 621 91 624 82 c 1
 578 23 508.5 -10 439 -10 c 0
 409 -10 397.5 2.5 390 23 c 0
 383.5 40.8 389.2 83.2 397 115 c 2
 434 275 l 2
 441.9 309 443 319 443 333 c 0
 443 364 429 369 408 369 c 0
 372.6 369 322.6 311.8 260.9 231.8 c 1
 225.9 72 l 2
EndSplineSet
EndChar

StartChar: uni1E2E
Encoding: 7726 7726 116
Width: 351
GlyphClass: 2
Flags: MW
LayerCount: 2
Fore
SplineSet
418.3 1013 m 1
 436.2 1002.8 454.7 982.7 462.4 964.6 c 1
 458.7 954.1 l 1
 341.6 903 l 2
 329.8 897.9 320.8 896.9 313.9 896.9 c 0
 307 896.9 299.2 903.1 300.1 910.1 c 0
 300.9 916.3 301.7 921.3 310.1 928.6 c 0
 328.2 944.4 384.5 988.4 418.3 1013 c 1
EndSplineSet
Refer: 298 207 N 1 0 0 1 0 0 2
EndChar

StartChar: uni1E2F
Encoding: 7727 7727 117
Width: 342
GlyphClass: 2
Flags: MW
LayerCount: 2
Fore
SplineSet
335.2 790.1 m 1
 337.6 791 343.9 791.9 347.8 791.9 c 0
 370.9 791.9 384 779.6 389.1 770.8 c 1
 394.3 750.5 l 1
 290.2 655.5 l 2
 278.1 644.9 266.9 641.4 259.2 641.4 c 0
 253 641.4 247.8 648.4 248.4 653.7 c 0
 249 659 251.5 666.9 257.1 674.8 c 2
 335.2 790.1 l 1
EndSplineSet
Refer: 330 239 N 1 0 0 1 0 0 2
EndChar

StartChar: uni1E37
Encoding: 7735 7735 125
Width: 324
GlyphClass: 2
Flags: MW
LayerCount: 2
Fore
SplineSet
208 563 m 2
 224 632 208 638 146 638 c 1
 143 647 145 660 151 672 c 1
 194 679 286 698 317 698 c 0
 340 698 347 686 347 665 c 0
 347 645 339 616 332 583 c 2
 231 127 l 2
 227.9 113.2 224.4 96.6 224.4 84.2 c 0
 224.4 73.5 227 66 235 66 c 0
 245 66 279 83 305 113 c 1
 319 113 331 94 334 85 c 1
 284 30 217.5 -10 148 -10 c 0
 112.1 -10 97.3 12.7 97.3 47.1 c 0
 97.3 67.7 101.9 95.4 107 118 c 2
 208 563 l 2
EndSplineSet
Refer: 457 775 N 1 0 0 1 167 -755 2
EndChar

StartChar: uni1E3B
Encoding: 7739 7739 129
Width: 324
GlyphClass: 2
Flags: MW
LayerCount: 2
Fore
SplineSet
208 563 m 2
 224 632 208 638 146 638 c 1
 143 647 145 660 151 672 c 1
 194 679 286 698 317 698 c 0
 340 698 347 686 347 665 c 0
 347 645 339 616 332 583 c 2
 231 127 l 2
 227.9 113.2 224.4 96.6 224.4 84.2 c 0
 224.4 73.5 227 66 235 66 c 0
 245 66 279 83 305 113 c 1
 319 113 331 94 334 85 c 1
 284 30 217.5 -10 148 -10 c 0
 112.1 -10 97.3 12.7 97.3 47.1 c 0
 97.3 67.7 101.9 95.4 107 118 c 2
 208 563 l 2
EndSplineSet
Refer: 1181 817 N 1 0 0 1 410 0 2
EndChar

StartChar: uni1E3D
Encoding: 7741 7741 131
Width: 324
GlyphClass: 2
Flags: MW
LayerCount: 2
Fore
SplineSet
208 563 m 2
 224 632 208 638 146 638 c 1
 143 647 145 660 151 672 c 1
 194 679 286 698 317 698 c 0
 340 698 347 686 347 665 c 0
 347 645 339 616 332 583 c 2
 231 127 l 2
 227.9 113.2 224.4 96.6 224.4 84.2 c 0
 224.4 73.5 227 66 235 66 c 0
 245 66 279 83 305 113 c 1
 319 113 331 94 334 85 c 1
 284 30 217.5 -10 148 -10 c 0
 112.1 -10 97.3 12.7 97.3 47.1 c 0
 97.3 67.7 101.9 95.4 107 118 c 2
 208 563 l 2
EndSplineSet
Refer: 440 710 N 1 0 0 1 -165 -745 2
EndChar

StartChar: uni1E4C
Encoding: 7756 7756 146
Width: 699
GlyphClass: 2
Flags: MW
LayerCount: 2
Fore
SplineSet
615.3 928.1 m 1
 633.2 917.9 651.6 897.7 659.3 879.6 c 1
 655.7 869.1 l 1
 538.6 818 l 2
 526.8 812.9 517.8 811.9 510.9 811.9 c 0
 504 811.9 496.2 818.1 497.1 825.1 c 0
 497.9 831.3 498.7 836.3 507.1 843.6 c 0
 525.2 859.4 581.5 903.5 615.3 928.1 c 1
507.5 744.8 m 0
 526.2 744.8 539.8 755.8 559 802 c 1
 578.4 795.4 l 1
 557.8 729.4 528 696.4 488.9 696.4 c 0
 470.2 696.4 454.4 709.6 439 725 c 0
 425.6 737.1 411.3 749.2 396.9 749.2 c 0
 374.8 749.2 361.1 732.7 346.9 696.4 c 1
 327.4 701.9 l 1
 349.5 766.8 374.2 799.8 410.8 799.8 c 0
 436.3 799.8 452.5 784.4 467.1 769 c 0
 478.6 755.8 491.3 744.8 507.5 744.8 c 0
EndSplineSet
Refer: 205 79 N 1 0 0 1 0 0 2
EndChar

StartChar: uni1E4D
Encoding: 7757 7757 147
Width: 479
GlyphClass: 2
Flags: MW
LayerCount: 2
Fore
SplineSet
435.2 766.1 m 1
 437.6 767 443.9 767.9 447.8 767.9 c 0
 470.9 767.9 484 755.6 489.1 746.8 c 1
 494.3 726.5 l 1
 390.2 631.5 l 2
 378.1 620.9 366.9 617.4 359.2 617.4 c 0
 353 617.4 347.8 624.4 348.4 629.7 c 0
 349 635 351.5 642.9 357.1 650.8 c 2
 435.2 766.1 l 1
EndSplineSet
Refer: 456 771 N 1 0 0 1 482 -35 2
Refer: 236 111 N 1 0 0 1 0 0 2
EndChar

StartChar: uni1E4E
Encoding: 7758 7758 148
Width: 699
GlyphClass: 2
Flags: MW
LayerCount: 2
Fore
SplineSet
637 752 m 0
 637 777 658 798 683 798 c 0
 708 798 729 777 729 752 c 0
 729 727 708 706 683 706 c 0
 658 706 637 727 637 752 c 0
227 752 m 0
 227 777 248 798 273 798 c 0
 298 798 319 777 319 752 c 0
 319 727 298 706 273 706 c 0
 248 706 227 727 227 752 c 0
507.5 744.8 m 0
 526.2 744.8 539.8 755.8 559 802 c 1
 578.4 795.4 l 1
 557.8 729.4 528 696.4 488.9 696.4 c 0
 470.2 696.4 454.4 709.6 439 725 c 0
 425.6 737.1 411.3 749.2 396.9 749.2 c 0
 374.8 749.2 361.1 732.7 346.9 696.4 c 1
 327.4 701.9 l 1
 349.5 766.8 374.2 799.8 410.8 799.8 c 0
 436.3 799.8 452.5 784.4 467.1 769 c 0
 478.6 755.8 491.3 744.8 507.5 744.8 c 0
EndSplineSet
Refer: 205 79 N 1 0 0 1 0 0 2
EndChar

StartChar: uni1E4F
Encoding: 7759 7759 149
Width: 479
GlyphClass: 2
Flags: MW
LayerCount: 2
Fore
SplineSet
411 557 m 0
 425 557 447 564 466.1 600 c 1
 480.1 600 492.9 592 491.2 580 c 1
 466 522 424.2 487 387.2 487 c 0
 364.2 487 343.1 493 325.2 508 c 1
 307 521 287.5 525 269.5 525 c 0
 247.5 525 231.2 523 214.9 485 c 1
 202.9 485 189.4 489 191.4 503 c 1
 214.6 554 252.5 596 287.5 596 c 0
 318.5 596 340.2 587 358 571 c 0
 374 557 400 557 411 557 c 0
EndSplineSet
Refer: 259 168 N 1 0 0 1 62 133 2
Refer: 236 111 N 1 0 0 1 0 0 2
EndChar

StartChar: uni1E50
Encoding: 7760 7760 150
Width: 699
GlyphClass: 2
Flags: MW
LayerCount: 2
Fore
SplineSet
253.8 927.4 m 1
 233.3 916.8 210.1 897.5 197.8 879 c 1
 198.8 868.4 l 1
 303.4 817.4 l 2
 313.5 812.1 322.7 811.2 329.6 811.2 c 0
 336.5 811.2 345.7 817.4 346.6 824.4 c 0
 347.4 830.6 348 835.9 341.2 842.9 c 0
 327 858.7 281.6 902.8 253.8 927.4 c 1
543.9 765 m 2
 336.5 765 l 2
 328.9 765 326.8 773 328 780 c 0
 330.1 792 342.3 809 351.7 809 c 2
 560 809 l 2
 568.5 809 570.4 801 569.4 795 c 0
 567.3 783 554.9 765 543.9 765 c 2
EndSplineSet
Refer: 205 79 N 1 0 0 1 0 0 2
EndChar

StartChar: uni1E51
Encoding: 7761 7761 151
Width: 479
GlyphClass: 2
Flags: MW
LayerCount: 2
Fore
SplineSet
318.2 758.1 m 1
 357.9 649 l 2
 360.2 642.8 362.9 633.1 362 626.1 c 0
 361 618.2 354.1 612 347.2 612 c 0
 341 612 333.9 616.4 322.4 629.6 c 2
 240.6 722 l 1
 243.3 731.7 l 1
 250.4 739.6 275.3 759.9 303 759.9 c 0
 306.8 759.9 315.2 759 318.2 758.1 c 1
EndSplineSet
Refer: 443 713 N 1 0 0 1 37 0 2
Refer: 236 111 N 1 0 0 1 0 0 2
EndChar

StartChar: uni1E52
Encoding: 7762 7762 152
Width: 699
GlyphClass: 2
Flags: MW
LayerCount: 2
Fore
SplineSet
610.3 928.1 m 1
 628.2 917.9 646.6 897.7 654.3 879.6 c 1
 650.7 869.1 l 1
 533.6 818 l 2
 521.8 812.9 512.8 811.9 505.9 811.9 c 0
 499 811.9 491.2 818.1 492.1 825.1 c 0
 492.9 831.3 493.7 836.3 502.1 843.6 c 0
 520.2 859.4 576.5 903.5 610.3 928.1 c 1
521.9 765 m 2
 314.5 765 l 2
 306.9 765 304.8 773 306 780 c 0
 308.1 792 320.3 809 329.7 809 c 2
 538 809 l 2
 546.5 809 548.4 801 547.4 795 c 0
 545.3 783 532.9 765 521.9 765 c 2
EndSplineSet
Refer: 205 79 N 1 0 0 1 0 0 2
EndChar

StartChar: uni1E53
Encoding: 7763 7763 153
Width: 479
GlyphClass: 2
Flags: MW
LayerCount: 2
Fore
SplineSet
371.2 767.1 m 1
 373.6 768 379.9 768.9 383.8 768.9 c 0
 406.9 768.9 420 756.6 425.1 747.8 c 1
 430.3 727.5 l 1
 326.2 632.5 l 2
 314.1 621.9 302.9 618.4 295.2 618.4 c 0
 289 618.4 283.8 625.4 284.4 630.7 c 0
 285 636 287.5 643.9 293.1 651.8 c 2
 371.2 767.1 l 1
EndSplineSet
Refer: 443 713 N 1 0 0 1 37 0 2
Refer: 236 111 N 1 0 0 1 0 0 2
EndChar

StartChar: uni1E62
Encoding: 7778 7778 168
Width: 482
GlyphClass: 2
Flags: MW
LayerCount: 2
Fore
SplineSet
526 631 m 1
 521 573 517 532 507 479 c 1
 499.8 473.6 488.3 471.4 477.4 471.4 c 0
 470.2 471.4 463.2 472.4 458 474 c 1
 454 540 442 617 360 617 c 0
 311.3 617 259.7 577.2 259.7 512.9 c 0
 259.7 461.6 311.8 416.3 343 398 c 0
 398.2 365.5 483 297.3 483 204.6 c 0
 483 124.3 435.4 76.5 391 41 c 0
 344 4 291 -10 232 -10 c 0
 99 -10 101 10 46 10 c 1
 45.2 20.3 44.6 31.8 44.6 44.7 c 0
 44.6 78.2 48.2 120.9 59 175 c 1
 69.7 177.7 81.2 180.8 92.2 180.8 c 0
 97.7 180.8 103 180 108 178 c 1
 110 87 165 32 229 32 c 0
 293.6 32 347.1 71.6 347.1 135.6 c 0
 347.1 197.1 302.8 231 245.8 269.9 c 0
 176.2 317.4 128.5 367.2 128.5 445.6 c 0
 128.5 528.2 167.1 579.6 215 613.5 c 0
 254.1 641.2 316 658 369 658 c 0
 458 658 475 639 526 631 c 1
EndSplineSet
Refer: 457 775 N 1 0 0 1 243 -755 2
EndChar

StartChar: uni1E64
Encoding: 7780 7780 170
Width: 482
GlyphClass: 2
Flags: MW
LayerCount: 2
Fore
SplineSet
526 631 m 1
 521 573 517 532 507 479 c 1
 499.8 473.6 488.3 471.4 477.4 471.4 c 0
 470.2 471.4 463.2 472.4 458 474 c 1
 454 540 442 617 360 617 c 0
 311.3 617 259.7 577.2 259.7 512.9 c 0
 259.7 461.6 311.8 416.3 343 398 c 0
 398.2 365.5 483 297.3 483 204.6 c 0
 483 124.3 435.4 76.5 391 41 c 0
 344 4 291 -10 232 -10 c 0
 99 -10 101 10 46 10 c 1
 45.2 20.3 44.6 31.8 44.6 44.7 c 0
 44.6 78.2 48.2 120.9 59 175 c 1
 69.7 177.7 81.2 180.8 92.2 180.8 c 0
 97.7 180.8 103 180 108 178 c 1
 110 87 165 32 229 32 c 0
 293.6 32 347.1 71.6 347.1 135.6 c 0
 347.1 197.1 302.8 231 245.8 269.9 c 0
 176.2 317.4 128.5 367.2 128.5 445.6 c 0
 128.5 528.2 167.1 579.6 215 613.5 c 0
 254.1 641.2 316 658 369 658 c 0
 458 658 475 639 526 631 c 1
EndSplineSet
Refer: 579 7912 N 1 0 0 1 -74 -1 2
Refer: 457 775 N 1 0 0 1 300 167 2
EndChar

StartChar: uni1E65
Encoding: 7781 7781 171
Width: 417
GlyphClass: 2
Flags: MW
LayerCount: 2
Fore
SplineSet
151.4 590.4 m 0
 151.4 617.4 172.1 646.2 214.4 646.2 c 0
 232.6 646.2 246.8 638.7 256.7 627.9 c 1
 263.7 637 l 1
 266.8 638 275 639 280 639 c 0
 310 639 327 625 333.6 615 c 1
 340.4 592 l 1
 205.2 484 l 2
 189.5 472 175 468 165 468 c 0
 157 468 150.2 476 151 482 c 0
 151.8 488 155 497 162.3 506 c 2
 185.4 535.8 l 1
 163.8 545.4 151.4 567.9 151.4 590.4 c 0
EndSplineSet
Refer: 240 115 N 1 0 0 1 0 0 2
EndChar

StartChar: uni1E66
Encoding: 7782 7782 172
Width: 482
GlyphClass: 2
Flags: MW
LayerCount: 2
Fore
SplineSet
526 631 m 1
 521 573 517 532 507 479 c 1
 499.8 473.6 488.3 471.4 477.4 471.4 c 0
 470.2 471.4 463.2 472.4 458 474 c 1
 454 540 442 617 360 617 c 0
 311.3 617 259.7 577.2 259.7 512.9 c 0
 259.7 461.6 311.8 416.3 343 398 c 0
 398.2 365.5 483 297.3 483 204.6 c 0
 483 124.3 435.4 76.5 391 41 c 0
 344 4 291 -10 232 -10 c 0
 99 -10 101 10 46 10 c 1
 45.2 20.3 44.6 31.8 44.6 44.7 c 0
 44.6 78.2 48.2 120.9 59 175 c 1
 69.7 177.7 81.2 180.8 92.2 180.8 c 0
 97.7 180.8 103 180 108 178 c 1
 110 87 165 32 229 32 c 0
 293.6 32 347.1 71.6 347.1 135.6 c 0
 347.1 197.1 302.8 231 245.8 269.9 c 0
 176.2 317.4 128.5 367.2 128.5 445.6 c 0
 128.5 528.2 167.1 579.6 215 613.5 c 0
 254.1 641.2 316 658 369 658 c 0
 458 658 475 639 526 631 c 1
246.9 808 m 1
 248.3 818 257 830 266.6 834 c 1
 281.5 829.2 299.1 822.7 316.5 815.2 c 1
 314.2 822.2 313 829.6 313 837 c 0
 313 867 336 899 383 899 c 0
 425 899 448 863 448 833 c 0
 448 825.2 445.6 816.4 441.1 808 c 1
 466.4 818.8 493 828.1 513.6 834 c 1
 522 830 525.2 817 523.8 807 c 1
 478 780 422 738 382.1 703 c 1
 367.4 698 l 1
 335.6 735 283.2 782 246.9 808 c 1
EndSplineSet
EndChar

StartChar: uni1E67
Encoding: 7783 7783 173
Width: 417
GlyphClass: 2
Flags: MW
LayerCount: 2
Fore
SplineSet
352.7 529 m 1
 302.7 529 l 1
 280.2 575 248.2 618 218.8 658 c 1
 245.3 676 l 1
 248.5 673.5 251.7 671.2 254.7 668.8 c 1
 263.3 686.8 282.5 701.2 312.4 701.2 c 0
 350.2 701.2 370.9 668.8 370.9 641.8 c 0
 370.9 633.4 367.9 623.9 362.2 615.1 c 1
 390.6 638.2 417.5 655.3 450.3 676 c 1
 471.8 658 l 1
 430.2 618 388.3 576 352.7 529 c 1
335.7 592.2 m 1
 335.6 592.2 335.6 592.1 335.5 592.1 c 2
 335.5 592 l 2
 335.6 592.1 335.6 592.1 335.7 592.2 c 1
EndSplineSet
Refer: 240 115 N 1 0 0 1 0 0 2
EndChar

StartChar: uni1E68
Encoding: 7784 7784 174
Width: 482
GlyphClass: 2
Flags: MW
LayerCount: 2
Fore
SplineSet
526 631 m 1
 521 573 517 532 507 479 c 1
 499.8 473.6 488.3 471.4 477.4 471.4 c 0
 470.2 471.4 463.2 472.4 458 474 c 1
 454 540 442 617 360 617 c 0
 311.3 617 259.7 577.2 259.7 512.9 c 0
 259.7 461.6 311.8 416.3 343 398 c 0
 398.2 365.5 483 297.3 483 204.6 c 0
 483 124.3 435.4 76.5 391 41 c 0
 344 4 291 -10 232 -10 c 0
 99 -10 101 10 46 10 c 1
 45.2 20.3 44.6 31.8 44.6 44.7 c 0
 44.6 78.2 48.2 120.9 59 175 c 1
 69.7 177.7 81.2 180.8 92.2 180.8 c 0
 97.7 180.8 103 180 108 178 c 1
 110 87 165 32 229 32 c 0
 293.6 32 347.1 71.6 347.1 135.6 c 0
 347.1 197.1 302.8 231 245.8 269.9 c 0
 176.2 317.4 128.5 367.2 128.5 445.6 c 0
 128.5 528.2 167.1 579.6 215 613.5 c 0
 240.7 631.7 276.3 645.2 312.7 652.3 c 1
 296.8 665 288 685 288 705 c 0
 288 735 311 767 358 767 c 0
 400 767 423 731 423 701 c 0
 423 686.8 415.3 669.8 401 657.1 c 1
 463.1 653.2 481.8 637.9 526 631 c 1
EndSplineSet
Refer: 457 775 N 1 0 0 1 243 -755 2
EndChar

StartChar: uni1E6B
Encoding: 7787 7787 177
Width: 367
GlyphClass: 2
Flags: MW
LayerCount: 2
Fore
SplineSet
118 118 m 2
 179 382 l 1
 109 382 l 2
 106 382 103 382 103 384 c 0
 103 386 107 406 108 409 c 0
 110 417 117 425 136 426 c 2
 189 429 l 1
 202 479 l 2
 211.9 517.2 211.2 551.9 246 561 c 0
 276.5 569 342 581 342 564 c 0
 342 552 326 491.8 322 474 c 2
 312 429 l 1
 411 429 l 1
 422 421 412 387 400 382 c 1
 302 382 l 1
 242 127 l 2
 238.8 113.2 235.3 96.6 235.3 84.2 c 0
 235.3 73.5 238 66 246 66 c 0
 256 66 290 83 316 113 c 1
 330 113 342 94 345 85 c 1
 295 30 228.5 -10 159 -10 c 0
 123.1 -10 108.3 12.7 108.3 47.1 c 0
 108.3 67.7 112.8 95.4 118 118 c 2
EndSplineSet
Refer: 457 775 N 1 0 0 1 306 41 2
EndChar

StartChar: uni1E6D
Encoding: 7789 7789 179
Width: 367
GlyphClass: 2
Flags: MW
LayerCount: 2
Fore
SplineSet
118 118 m 2
 179 382 l 1
 109 382 l 2
 106 382 103 382 103 384 c 0
 103 386 107 406 108 409 c 0
 110 417 117 425 136 426 c 2
 189 429 l 1
 202 479 l 2
 211.9 517.2 211.2 551.9 246 561 c 0
 276.5 569 342 581 342 564 c 0
 342 552 326 491.8 322 474 c 2
 312 429 l 1
 411 429 l 1
 422 421 412 387 400 382 c 1
 302 382 l 1
 242 127 l 2
 238.8 113.2 235.3 96.6 235.3 84.2 c 0
 235.3 73.5 238 66 246 66 c 0
 256 66 290 83 316 113 c 1
 330 113 342 94 345 85 c 1
 295 30 228.5 -10 159 -10 c 0
 123.1 -10 108.3 12.7 108.3 47.1 c 0
 108.3 67.7 112.8 95.4 118 118 c 2
EndSplineSet
Refer: 457 775 N 1 0 0 1 157 -755 2
EndChar

StartChar: uni1E6F
Encoding: 7791 7791 181
Width: 367
GlyphClass: 2
Flags: MW
LayerCount: 2
Fore
SplineSet
118 118 m 2
 179 382 l 1
 109 382 l 2
 106 382 103 382 103 384 c 0
 103 386 107 406 108 409 c 0
 110 417 117 425 136 426 c 2
 189 429 l 1
 202 479 l 2
 211.9 517.2 211.2 551.9 246 561 c 0
 276.5 569 342 581 342 564 c 0
 342 552 326 491.8 322 474 c 2
 312 429 l 1
 411 429 l 1
 422 421 412 387 400 382 c 1
 302 382 l 1
 242 127 l 2
 238.8 113.2 235.3 96.6 235.3 84.2 c 0
 235.3 73.5 238 66 246 66 c 0
 256 66 290 83 316 113 c 1
 330 113 342 94 345 85 c 1
 295 30 228.5 -10 159 -10 c 0
 123.1 -10 108.3 12.7 108.3 47.1 c 0
 108.3 67.7 112.8 95.4 118 118 c 2
EndSplineSet
Refer: 1181 817 N 1 0 0 1 404 0 2
EndChar

StartChar: uni1E71
Encoding: 7793 7793 183
Width: 367
GlyphClass: 2
Flags: MW
LayerCount: 2
Fore
SplineSet
118 118 m 2
 179 382 l 1
 109 382 l 2
 106 382 103 382 103 384 c 0
 103 386 107 406 108 409 c 0
 110 417 117 425 136 426 c 2
 189 429 l 1
 202 479 l 2
 211.9 517.2 211.2 551.9 246 561 c 0
 276.5 569 342 581 342 564 c 0
 342 552 326 491.8 322 474 c 2
 312 429 l 1
 411 429 l 1
 422 421 412 387 400 382 c 1
 302 382 l 1
 242 127 l 2
 238.8 113.2 235.3 96.6 235.3 84.2 c 0
 235.3 73.5 238 66 246 66 c 0
 256 66 290 83 316 113 c 1
 330 113 342 94 345 85 c 1
 295 30 228.5 -10 159 -10 c 0
 123.1 -10 108.3 12.7 108.3 47.1 c 0
 108.3 67.7 112.8 95.4 118 118 c 2
EndSplineSet
Refer: 440 710 N 1 0 0 1 -185 -725 2
EndChar

StartChar: uni1E73
Encoding: 7795 7795 185
Width: 646
GlyphClass: 2
Flags: MW
AnchorPoint: "above" 255 646 basechar 0
LayerCount: 2
Fore
SplineSet
431 106.7 m 2
 431 106.7 424.6 79.7 433.6 122 c 1
 431.7 124 l 1
 339.7 16 284.6 -6 232.6 -6 c 0
 193.6 -6 143.6 16 143.6 76 c 0
 143.6 94 143.3 115.1 151.6 150 c 2
 189.6 309 l 2
 195.9 334.6 202.9 370 185.6 370 c 0
 175.6 370 141.6 353 115.6 323 c 1
 101.6 323 89.6 342 86.6 351 c 1
 132.6 410 202.1 443 271.6 443 c 0
 301.6 443 313.1 430.5 320.6 410 c 0
 327.1 392.2 321.4 349.8 313.6 318 c 2
 276.6 158 l 2
 267 116.7 271.3 76 307.6 76 c 0
 343.6 76 379.6 123 442.6 205 c 1
 480.8 361 l 2
 490.3 399.8 488.6 443 549.6 443 c 0
 605.6 443 615.5 432.5 615.5 415.8 c 0
 615.5 406 607.1 380.9 602.8 361 c 2
 551 124 l 2
 548 110.3 544.3 93.8 544.3 81.4 c 0
 544.3 70.6 547 63 555 63 c 0
 565 63 599 80 625 110 c 1
 639 110 651 91 654 82 c 1
 608 23 545.5 -10 476 -10 c 0
 446 -10 433.5 2.5 426 23 c 0
 423.7 29.3 422.7 37.5 422.7 46.9 c 0
 422.7 64.4 427.4 85.7 431 106.7 c 2
EndSplineSet
Refer: 259 168 N 1 0 0 1 -77.9 -686 2
EndChar

StartChar: uni1E75
Encoding: 7797 7797 187
Width: 646
GlyphClass: 2
Flags: MW
LayerCount: 2
Fore
SplineSet
431 106.7 m 2
 431 106.7 424.6 79.7 433.6 122 c 1
 431.7 124 l 1
 339.7 16 284.6 -6 232.6 -6 c 0
 193.6 -6 143.6 16 143.6 76 c 0
 143.6 94 143.3 115.1 151.6 150 c 2
 189.6 309 l 2
 195.9 334.6 202.9 370 185.6 370 c 0
 175.6 370 141.6 353 115.6 323 c 1
 101.6 323 89.6 342 86.6 351 c 1
 132.6 410 202.1 443 271.6 443 c 0
 301.6 443 313.1 430.5 320.6 410 c 0
 327.1 392.2 321.4 349.8 313.6 318 c 2
 276.6 158 l 2
 267 116.7 271.3 76 307.6 76 c 0
 343.6 76 379.6 123 442.6 205 c 1
 480.8 361 l 2
 490.3 399.8 488.6 443 549.6 443 c 0
 605.6 443 615.5 432.5 615.5 415.8 c 0
 615.5 406 607.1 380.9 602.8 361 c 2
 551 124 l 2
 548 110.3 544.3 93.8 544.3 81.4 c 0
 544.3 70.6 547 63 555 63 c 0
 565 63 599 80 625 110 c 1
 639 110 651 91 654 82 c 1
 608 23 545.5 -10 476 -10 c 0
 446 -10 433.5 2.5 426 23 c 0
 423.7 29.3 422.7 37.5 422.7 46.9 c 0
 422.7 64.4 427.4 85.7 431 106.7 c 2
EndSplineSet
Refer: 451 732 N 1 0 0 1 -67 -738 2
EndChar

StartChar: uni1E77
Encoding: 7799 7799 189
Width: 646
GlyphClass: 2
Flags: MW
LayerCount: 2
Fore
SplineSet
431 106.7 m 2
 431 106.7 424.6 79.7 433.6 122 c 1
 431.7 124 l 1
 339.7 16 284.6 -6 232.6 -6 c 0
 193.6 -6 143.6 16 143.6 76 c 0
 143.6 94 143.3 115.1 151.6 150 c 2
 189.6 309 l 2
 195.9 334.6 202.9 370 185.6 370 c 0
 175.6 370 141.6 353 115.6 323 c 1
 101.6 323 89.6 342 86.6 351 c 1
 132.6 410 202.1 443 271.6 443 c 0
 301.6 443 313.1 430.5 320.6 410 c 0
 327.1 392.2 321.4 349.8 313.6 318 c 2
 276.6 158 l 2
 267 116.7 271.3 76 307.6 76 c 0
 343.6 76 379.6 123 442.6 205 c 1
 480.8 361 l 2
 490.3 399.8 488.6 443 549.6 443 c 0
 605.6 443 615.5 432.5 615.5 415.8 c 0
 615.5 406 607.1 380.9 602.8 361 c 2
 551 124 l 2
 548 110.3 544.3 93.8 544.3 81.4 c 0
 544.3 70.6 547 63 555 63 c 0
 565 63 599 80 625 110 c 1
 639 110 651 91 654 82 c 1
 608 23 545.5 -10 476 -10 c 0
 446 -10 433.5 2.5 426 23 c 0
 423.7 29.3 422.7 37.5 422.7 46.9 c 0
 422.7 64.4 427.4 85.7 431 106.7 c 2
EndSplineSet
Refer: 440 710 N 1 0 0 1 -76 -725 2
EndChar

StartChar: uni1E78
Encoding: 7800 7800 190
Width: 702
GlyphClass: 2
Flags: MW
LayerCount: 2
Fore
SplineSet
631.3 955 m 1
 649.2 944.8 667.7 924.7 675.4 906.6 c 1
 671.7 896.1 l 1
 554.6 845 l 2
 542.8 839.9 533.8 838.9 526.9 838.9 c 0
 520 838.9 512.2 845.1 513.1 852.1 c 0
 513.9 858.3 514.7 863.3 523.1 870.6 c 0
 541.2 886.4 597.5 930.4 631.3 955 c 1
319 522 m 2
 270 269 l 2
 257 204 245 129 283 82 c 0
 306 53 341 32 387 32 c 0
 549 32 589 165 611 277 c 2
 659 522 l 2
 675 605 659 606 588 613 c 1
 583 619 588 641 595 647 c 1
 643 646 669 645 717 645 c 0
 757 645 773 646 820 647 c 1
 825 641 820 619 813 613 c 1
 754 606 738 605 722 522 c 2
 677 295 l 2
 642 117 556 -10 359 -10 c 0
 313 -10 225 -9 173 32 c 0
 126 69 110 139 129 236 c 2
 185 522 l 2
 201 605 186 610 129 613 c 1
 124 619 128 641 135 647 c 1
 169.9 646.3 199 645.5 233.4 645.2 c 1
 233.2 646.8 233.2 648.6 233.4 650.5 c 0
 253.1 706.6 285.3 752.8 315.1 752.8 c 0
 341.5 752.8 359.9 742.9 375 725.3 c 0
 388.6 709.9 410.8 709.9 420.1 709.9 c 0
 432 709.9 450.7 717.6 466.9 757.2 c 1
 478.8 757.2 489.7 748.4 488.3 735.2 c 1
 474.2 693.2 454 662.1 432.8 645.8 c 1
 436.5 638.5 431.6 618.7 425 613 c 1
 350 610 335 605 319 522 c 2
258.8 645 m 1
 264 645 269.4 645 275 645 c 0
 305.5 645 333 645.2 358.7 645.6 c 1
 354.7 648.5 350.8 652 347.1 656 c 0
 331.7 670.3 315.1 674.7 299.8 674.7 c 0
 283.5 674.7 271 673 258.8 645 c 1
EndSplineSet
EndChar

StartChar: uni1E79
Encoding: 7801 7801 191
Width: 646
GlyphClass: 2
Flags: MW
LayerCount: 2
Fore
SplineSet
431 106.7 m 2
 431 106.7 424.6 79.7 433.6 122 c 1
 431.7 124 l 1
 339.7 16 284.6 -6 232.6 -6 c 0
 193.6 -6 143.6 16 143.6 76 c 0
 143.6 94 143.3 115.1 151.6 150 c 2
 189.6 309 l 2
 195.9 334.6 202.9 370 185.6 370 c 0
 175.6 370 141.6 353 115.6 323 c 1
 101.6 323 89.6 342 86.6 351 c 1
 132.6 410 202.1 443 271.6 443 c 0
 301.6 443 313.1 430.5 320.6 410 c 0
 327.1 392.2 321.4 349.8 313.6 318 c 2
 276.6 158 l 2
 267 116.7 271.3 76 307.6 76 c 0
 343.6 76 379.6 123 442.6 205 c 1
 480.8 361 l 2
 490.3 399.8 488.6 443 549.6 443 c 0
 605.6 443 615.5 432.5 615.5 415.8 c 0
 615.5 406 607.1 380.9 602.8 361 c 2
 551 124 l 2
 548 110.3 544.3 93.8 544.3 81.4 c 0
 544.3 70.6 547 63 555 63 c 0
 565 63 599 80 625 110 c 1
 639 110 651 91 654 82 c 1
 608 23 545.5 -10 476 -10 c 0
 446 -10 433.5 2.5 426 23 c 0
 423.7 29.3 422.7 37.5 422.7 46.9 c 0
 422.7 64.4 427.4 85.7 431 106.7 c 2
330.2 748.1 m 1
 332.6 749 338.9 749.9 342.8 749.9 c 0
 365.9 749.9 379 737.6 384.1 728.8 c 1
 389.3 708.5 l 1
 285.2 613.5 l 2
 273.1 602.9 261.9 599.4 254.2 599.4 c 0
 248 599.4 242.8 606.4 243.4 611.7 c 0
 244 617 246.5 624.9 252.1 632.8 c 2
 330.2 748.1 l 1
EndSplineSet
Refer: 456 771 N 1 0 0 1 567 0 2
EndChar

StartChar: ampersand
Encoding: 38 38 192
Width: 729
GlyphClass: 2
Flags: MW
LayerCount: 2
Fore
SplineSet
372.5 536 m 0
 368 515 371.9 458 388.3 420 c 1
 391.7 414 l 1
 437.9 447 483.9 489.1 491.9 527 c 0
 501.7 573 482.1 613 445.3 613 c 0
 426.7 613 403 603.9 388.7 581 c 0
 378.7 565 376.3 554 372.5 536 c 0
602.9 355 m 0
 624 390.1 603.1 400 575.3 402 c 0
 570.7 402.3 568.6 406 569.2 409 c 2
 574.3 433 l 1
 578.7 436 l 1
 578.7 436 637.5 434 675.1 434 c 0
 705.2 434 753.6 436 753.6 436 c 1
 755 434 l 1
 750.1 411 l 2
 749 406 743.6 402.4 737.9 402 c 0
 709.3 400 688 381.7 654.4 341 c 2
 654.4 341 550.1 217 501.4 156 c 1
 518.2 111 534.4 51 563.6 51 c 0
 581.5 51 603.4 52 634 90 c 1
 643.4 90 654.3 75 657.9 61 c 1
 611.3 10 569.5 -10 527.2 -10 c 0
 485.7 -10 440.9 -2.1 412.7 63.6 c 1
 363.9 20.9 302.7 -10 227.3 -10 c 0
 176.5 -10 128.9 -0.9 99.6 26 c 0
 71.5 51.8 63.7 96 75.2 150 c 0
 90.4 221.5 143.1 284.1 282.4 349.4 c 1
 251 409.4 242.2 444.8 252 491 c 0
 258.3 520.5 282.8 565 320.3 600 c 0
 356.3 633.6 417.4 654 471.9 654 c 0
 558.4 654 592 587 581.4 537 c 0
 565.9 464 492.2 418 404.5 377 c 1
 407.2 372 l 1
 416.3 344 433 298.8 472.4 214 c 0
 474.7 207.2 481.7 205 486.5 210 c 0
 535.4 263 585.5 326 602.9 355 c 0
296.1 317 m 1
 227.2 265.3 209.1 213.9 199.8 170 c 0
 185.1 101 215.3 31 253.9 31 c 0
 300 31 338.9 51.6 389.3 104.9 c 1
 358.4 167.3 312.2 276.4 296.1 317 c 1
EndSplineSet
EndChar

StartChar: quotesingle
Encoding: 39 39 193
Width: 215
GlyphClass: 2
Flags: MW
LayerCount: 2
Fore
SplineSet
126.6 411 m 1
 113.4 415 l 1
 113.4 415 119.4 585 120.7 591 c 0
 125.6 614 152.9 645 193.3 645 c 0
 232.8 645 231.5 626 227.7 608 c 0
 224.5 593 152.3 417 152.3 417 c 1
 126.6 411 l 1
EndSplineSet
EndChar

StartChar: comma
Encoding: 44 44 194
Width: 244
GlyphClass: 2
Flags: MW
LayerCount: 2
Fore
SplineSet
143.4 127 m 0
 195.2 127 218.8 86 200.8 4 c 0
 193.1 -31 157.5 -79.7 124 -108 c 0
 90.2 -136.5 42.6 -160.7 5.5 -167 c 1
 -3.6 -159.5 -2.4 -148.8 5.5 -136 c 1
 51.7 -124 116.5 -53.5 122.3 -27 c 0
 127.1 -5 102 2.2 94.7 6 c 0
 72.6 17.6 65.1 48.1 70.6 73.1 c 0
 75.5 95.6 118.2 127 143.4 127 c 0
EndSplineSet
EndChar

StartChar: hyphen
Encoding: 45 45 195
Width: 358
GlyphClass: 2
Flags: MW
LayerCount: 2
Fore
SplineSet
327 215 m 2
 129 215 l 2
 105 215 92 225 92 236 c 0
 92 253 117 294 138 294 c 2
 338 294 l 2
 366 294 374 284 374 273 c 0
 374 260 350 215 327 215 c 2
EndSplineSet
EndChar

StartChar: period
Encoding: 46 46 196
Width: 226
GlyphClass: 2
Flags: MW
LayerCount: 2
Fore
SplineSet
40 58 m 0
 40 97 74 129 114 129 c 0
 154 129 186 99 186 60 c 0
 186 22 152 -10 112 -10 c 0
 72 -10 40 20 40 58 c 0
EndSplineSet
EndChar

StartChar: zero
Encoding: 48 48 197
Width: 514
GlyphClass: 2
Flags: MW
LayerCount: 2
Fore
SplineSet
380 565 m 0
 358 565 330 553 301 491 c 0
 270 427 215 242 215 118 c 0
 215 70 226 33 263 33 c 0
 288 33 320 56 354 140 c 0
 377 198 425 375 425 469 c 0
 425 539 404 565 380 565 c 0
253 -10 m 0
 146 -10 96 78 96 195 c 0
 96 341 160 470 226 536 c 0
 275 584 332 610 390 610 c 0
 467 610 549 565 549 420 c 0
 549 284 487 146 433 83 c 0
 375 16 306 -10 253 -10 c 0
EndSplineSet
EndChar

StartChar: H
Encoding: 72 72 198
Width: 735
GlyphClass: 2
Flags: MW
LayerCount: 2
Fore
SplineSet
595 523 m 2
 611 606 584 610 532 613 c 1
 524 619 528 641 539 647 c 1
 577 646 649 645 687 645 c 0
 725 645 794 646 833 647 c 1
 841 641 837 619 826 613 c 1
 773 610 745 606 729 523 c 2
 651 122 l 2
 635 39 661 35 713 32 c 1
 721 26 718 4 707 -2 c 1
 669 -1 599 0 561 0 c 0
 523 0 452 -1 413 -2 c 1
 405 4 409 26 420 32 c 1
 473 35 501 39 517 122 c 2
 555.3 319 l 1
 305.3 319 l 1
 267 122 l 2
 251 39 277 35 329 32 c 1
 337 26 334 4 323 -2 c 1
 285 -1 215 0 177 0 c 0
 139 0 68 -1 29 -2 c 1
 21 4 25 26 36 32 c 1
 89 35 117 39 133 122 c 2
 211 523 l 2
 227 606 200 610 148 613 c 1
 140 619 144 641 155 647 c 1
 193 646 265 645 303 645 c 0
 341 645 410 646 449 647 c 1
 457 641 453 619 442 613 c 1
 389 610 361 606 345 523 c 2
 314.7 367 l 1
 564.7 367 l 1
 595 523 l 2
EndSplineSet
Position2: "'cpsp' Versalabstaende 1" dx=2 dy=0 dh=5 dv=0
EndChar

StartChar: I
Encoding: 73 73 199
Width: 351
GlyphClass: 2
Flags: MW
LayerCount: 2
Fore
SplineSet
211 523 m 2
 227 606 200 610 148 613 c 1
 140 619 144 641 155 647 c 1
 193 646 265 645 303 645 c 0
 341 645 410 646 449 647 c 1
 457 641 453 619 442 613 c 1
 389 610 361 606 345 523 c 2
 267 122 l 2
 251 39 277 35 329 32 c 1
 337 26 334 4 323 -2 c 1
 285 -1 215 0 177 0 c 0
 139 0 68 -1 29 -2 c 1
 21 4 25 26 36 32 c 1
 89 35 117 39 133 122 c 2
 211 523 l 2
EndSplineSet
Position2: "'cpsp' Versalabstaende 1" dx=2 dy=0 dh=5 dv=0
EndChar

StartChar: J
Encoding: 74 74 200
Width: 494
GlyphClass: 2
UnlinkRmOvrlpSave: 1
Flags: MW
AnchorPoint: "above" 457 850 basechar 0
LayerCount: 2
Fore
SplineSet
200 334 m 25
 456 344 l 25
 535 335 l 25
 528 296 l 25
 417 286 l 25
 200 299 l 25
 200 334 l 25
122 538 m 3
 122 623 211 663 292 663 c 3
 377 663 444 608 529 606 c 1
 455 375 507 -200 146 -200 c 3
 105 -200 31 -180 31 -121 c 3
 31 -93 51 -61 91 -61 c 3
 136 -61 161 -96 169 -125 c 1
 378 -73 324 678 522 678 c 3
 550 678 576 653 576 630 c 3
 576 579 496 541 428 541 c 3
 356 541 291 592 240 592 c 3
 226 592 212 587 205 577 c 1
 225 568 244 547 244 521 c 3
 244 490 211 474 180 474 c 3
 144 474 122 502 122 538 c 3
EndSplineSet
Position2: "'cpsp' Versalabstaende 1" dx=2 dy=0 dh=5 dv=0
EndChar

StartChar: K
Encoding: 75 75 201
Width: 706
GlyphClass: 2
Flags: MW
AnchorPoint: "cedilla" 148 -1 basechar 0
AnchorPoint: "below" 342 -110 basechar 0
AnchorPoint: "above" 336 850 basechar 0
LayerCount: 2
Fore
SplineSet
211 523 m 2
 227 606 200 610 148 613 c 1
 140 619 144 641 155 647 c 1
 193 646 265 645 303 645 c 0
 341 645 410 646 449 647 c 1
 457 641 453 619 442 613 c 1
 389 610 361 606 345 523 c 2
 311.8 352.2 l 1
 343.3 357.2 371.3 376.5 439 430 c 2
 439 430 524 493 560 525 c 0
 618 576 627 607 572 613 c 1
 567 619 572 641 579 647 c 1
 624 646 659 645 697 645 c 0
 735 645 743 646 788 647 c 1
 793 641 789 619 782 613 c 1
 708 604 663 559 593 504 c 2
 470 407 l 2
 452 393 454 385 453 378 c 0
 451 370 460 353 473 333 c 2
 633 74 l 2
 652 44 671 36 699 32 c 1
 704 26 700 4 693 -2 c 1
 648 -1 624 0 587 0 c 0
 558 0 500 -1 481 -2 c 0
 477 -2 477 1 477 4 c 0
 478 20 470 48 456 74 c 2
 349 271 l 2
 335.9 294.5 328.2 305.9 303.3 308.4 c 1
 267 122 l 2
 251 39 277 35 329 32 c 1
 337 26 334 4 323 -2 c 1
 285 -1 215 0 177 0 c 0
 139 0 68 -1 29 -2 c 1
 21 4 25 26 36 32 c 1
 89 35 117 39 133 122 c 2
 211 523 l 2
EndSplineSet
Position2: "'cpsp' Versalabstaende 1" dx=2 dy=0 dh=5 dv=0
EndChar

StartChar: L
Encoding: 76 76 202
Width: 552
GlyphClass: 2
Flags: MW
LayerCount: 2
Fore
SplineSet
343 42 m 2
 444 42 490 98 523 170 c 1
 535 172 555 170 563 165 c 1
 547 113 525 48 506 -2 c 1
 506 -2 419 0 391 0 c 2
 177 0 l 2
 140 0 29 -2 29 -2 c 1
 21 4 25 26 36 32 c 1
 89 35 117 39 133 122 c 2
 211 523 l 2
 227 606 200 610 148 613 c 1
 140 619 144 641 155 647 c 1
 155 647 265 645 303 645 c 0
 341 645 370 646 449 647 c 1
 457 641 453 619 442 613 c 1
 389 610 361 606 345 523 c 2
 267 121 l 2
 255 61 265 42 285 42 c 2
 343 42 l 2
EndSplineSet
Position2: "'cpsp' Versalabstaende 1" dx=2 dy=0 dh=5 dv=0
EndChar

StartChar: M
Encoding: 77 77 203
Width: 862
GlyphClass: 2
Flags: MW
AnchorPoint: "middle" 426 445 basechar 0
AnchorPoint: "cedilla" 97 2 basechar 0
AnchorPoint: "below" 393 -110 basechar 0
AnchorPoint: "above" 431 850 basechar 0
LayerCount: 2
Fore
SplineSet
659 116 m 2
 715 534 l 1
 713 534 l 1
 394 5 l 2
 389 -4 380 -8 374 -8 c 0
 368 -8 358 -2 357 5 c 2
 264 498 l 1
 260 498 l 1
 162 123 l 1
 146 67 146 37 208 32 c 1
 213 26 208 4 201 -2 c 1
 172 -1 115 0 92 0 c 0
 69 0 38 -1 9 -2 c 1
 4 4 9 26 16 32 c 1
 72 37 88 61 105 121 c 2
 223 533 l 2
 244 608 239 609 174 613 c 1
 169 619 173 641 180 647 c 1
 377 645 l 1
 462 201 l 1
 467 201 l 1
 736 645 l 1
 929 647 l 1
 934 641 930 619 923 613 c 1
 857 609 849 596 843 542 c 2
 790 121 l 2
 779 38 781 35 846 32 c 1
 851 26 847 4 840 -2 c 1
 808 -1 764 0 735 0 c 0
 706 0 620 -1 575 -2 c 1
 570 4 574 26 581 32 c 1
 644 35 648 35 659 116 c 2
EndSplineSet
Position2: "'cpsp' Versalabstaende 1" dx=2 dy=0 dh=5 dv=0
EndChar

StartChar: N
Encoding: 78 78 204
Width: 709
GlyphClass: 2
Flags: MW
AnchorPoint: "middle" 366 90 basechar 0
AnchorPoint: "cedilla" 125 -4 basechar 0
AnchorPoint: "below" 358 -110 basechar 0
AnchorPoint: "above" 356 850 basechar 0
LayerCount: 2
Fore
SplineSet
614 0 m 1
 595 -9 577 -12 543 -12 c 1
 543 -12 527 7 513 32 c 1
 268 430 l 2
 260 443 254 450 250 450 c 0
 244 450 240 440 238 430 c 2
 180 133 l 2
 162 42 178 39 244 32 c 1
 249 26 244 4 237 -2 c 1
 189 -1 167 0 122 0 c 0
 80 0 61 -1 14 -2 c 1
 9 4 13 26 20 32 c 1
 89 39 107 44 124 133 c 2
 205 550 l 1
 204 576 182 610 141 613 c 1
 136 619 141 641 148 647 c 1
 312 645 l 1
 378 540 l 1
 571 228 l 2
 581 212 593 205 598 231 c 2
 652 512 l 2
 670 603 654 606 588 613 c 1
 583 619 588 641 595 647 c 1
 643 646 666 645 711 645 c 0
 753 645 772 646 819 647 c 1
 824 641 819 619 812 613 c 1
 743 606 726 601 709 512 c 2
 629 102 l 2
 623 71 614 0 614 0 c 1
EndSplineSet
Position2: "'cpsp' Versalabstaende 1" dx=2 dy=0 dh=5 dv=0
EndChar

StartChar: O
Encoding: 79 79 205
Width: 699
GlyphClass: 2
Flags: MW
AnchorPoint: "above" 504 850 basechar 0
AnchorPoint: "cedilla" 354 -7 basechar 0
AnchorPoint: "below" 361 -110 basechar 0
LayerCount: 2
Fore
SplineSet
456 616 m 0
 402.8 616 348.8 583.5 306.1 509.2 c 0
 272 449.9 233.1 331.2 233.1 226.1 c 0
 233.1 101.8 289.2 32 374 32 c 0
 493.9 32 592 216 592 422.6 c 0
 592 550.4 537.4 616 456 616 c 0
347 -10 m 0
 203.7 -10 88.2 83.6 88.2 240.7 c 0
 88.2 370.3 146.5 473.5 219 546 c 0
 288 615 380 658 476 658 c 0
 628.9 658 736.6 559.9 736.6 403.6 c 0
 736.6 175.4 569.7 -10 347 -10 c 0
EndSplineSet
Position2: "'cpsp' Versalabstaende 1" dx=2 dy=0 dh=5 dv=0
EndChar

StartChar: P
Encoding: 80 80 206
Width: 588
GlyphClass: 2
Flags: MW
LayerCount: 2
Fore
SplineSet
459 654 m 0
 531 654 582 643 613 621 c 0
 665 584 668 524 660 484 c 0
 650 431 621 366 565 325 c 0
 520 292 458 277 373 277 c 0
 350 277 353 278 340 280 c 1
 328 289 325 303 329 322 c 1
 342 320 362 319 376 319 c 0
 455 319 492 363 512 467 c 0
 536 589 476 613 420 613 c 0
 369 613 358 592 345 524 c 2
 267 122 l 2
 251 39 277 35 329 32 c 1
 337 26 334 4 323 -2 c 1
 285 -1 215 0 177 0 c 0
 139 0 68 -1 29 -2 c 1
 21 4 25 26 36 32 c 1
 89 35 117 39 133 122 c 2
 211 523 l 2
 227 606 200 610 148 613 c 1
 140 619 144 641 155 647 c 1
 193 647 421 654 459 654 c 0
EndSplineSet
Position2: "'cpsp' Versalabstaende 1" dx=2 dy=0 dh=5 dv=0
EndChar

StartChar: Q
Encoding: 81 81 207
Width: 699
GlyphClass: 2
Flags: MW
AnchorPoint: "above" 347 802 basechar 0
LayerCount: 2
Fore
SplineSet
456 616 m 0
 402.8 616 348.8 583.5 306.1 509.2 c 0
 272 449.9 233.1 331.2 233.1 226.1 c 0
 233.1 101.8 289.2 32 374 32 c 0
 493.9 32 592 216 592 422.6 c 0
 592 550.4 537.4 616 456 616 c 0
126.6 -128.8 m 0
 170 -85.4 233 -37.9 298 -6.2 c 1
 178.3 12.8 88.2 101.9 88.2 240.7 c 0
 88.2 370.3 146.5 473.5 219 546 c 0
 288 615 380 658 476 658 c 0
 628.9 658 736.6 559.9 736.6 403.6 c 0
 736.6 187.8 587.3 10.2 382.7 -8.4 c 1
 355.5 -17.7 318.6 -34.9 278.5 -60.2 c 1
 280.4 -60.1 282.3 -60 284 -60 c 0
 390 -60 440 -152 524 -152 c 0
 552 -152 589 -142 615 -115 c 1
 627 -137 l 1
 579 -193 531 -229 471 -229 c 0
 346 -229 306 -124 217 -124 c 0
 209.5 -124 194.4 -127.8 177.7 -138.5 c 1
 163.1 -152.3 148.8 -167.1 135 -183 c 1
 104 -153 l 1
 110.3 -144.5 118 -136.4 126.6 -128.8 c 0
EndSplineSet
Position2: "'cpsp' Versalabstaende 1" dx=2 dy=0 dh=5 dv=0
EndChar

StartChar: R
Encoding: 82 82 208
Width: 686
GlyphClass: 2
Flags: MW
AnchorPoint: "cedilla" 183 0 basechar 0
AnchorPoint: "below" 292 -111 basechar 0
AnchorPoint: "above" 304 808 basechar 0
LayerCount: 2
Fore
SplineSet
522.1 511.6 m 0
 522.1 592.5 467.8 613 420 613 c 0
 369 613 358 592 345 524 c 2
 307 325 l 1
 348 325 l 2
 437.9 325 522.1 366.2 522.1 511.6 c 0
459 654 m 0
 586.3 654 663.3 615.1 663.3 510.5 c 0
 663.3 391.5 571.5 330.6 514 308 c 1
 604 98 l 2
 623 56 641 32 684 32 c 1
 684.4 30.3 684.6 28.1 684.6 25.6 c 0
 684.6 16.4 681.9 3.5 678 -2 c 1
 667 -7 617 -10 578 -10 c 0
 520 -10 490 34 469 79 c 2
 390 253 l 1
 381 276 374 283 298 283 c 1
 267 122 l 2
 263.8 105.6 262.3 92.2 262.3 81.4 c 0
 262.3 37.5 287.3 34.4 329 32 c 1
 332.1 29.7 333.5 25 333.5 19.8 c 0
 333.5 11.4 329.8 1.7 323 -2 c 1
 285 -1 215 0 177 0 c 0
 139 0 68 -1 29 -2 c 1
 26.1 0.2 24.8 4.4 24.8 9.2 c 0
 24.8 17.8 29 28.2 36 32 c 1
 89 35 117 39 133 122 c 2
 211 523 l 2
 214.1 539.1 215.6 552.2 215.6 562.9 c 0
 215.6 607.5 189.9 610.6 148 613 c 1
 145.1 615.2 143.8 619.4 143.8 624.2 c 0
 143.8 632.8 148 643.2 155 647 c 1
 193 647 421 654 459 654 c 0
EndSplineSet
Position2: "'cpsp' Versalabstaende 1" dx=2 dy=0 dh=5 dv=0
EndChar

StartChar: S
Encoding: 83 83 209
Width: 482
GlyphClass: 2
Flags: MW
AnchorPoint: "cedilla" 237 2 basechar 0
AnchorPoint: "below" 237 -111 basechar 0
AnchorPoint: "above" 255 802 basechar 0
LayerCount: 2
Fore
SplineSet
526 631 m 1
 521 573 517 532 507 479 c 1
 499.8 473.6 488.3 471.4 477.4 471.4 c 0
 470.2 471.4 463.2 472.4 458 474 c 1
 454 540 442 617 360 617 c 0
 311.3 617 259.6 577.2 259.6 512.9 c 0
 259.6 461.6 311.8 416.3 343 398 c 0
 398.2 365.5 483 297.3 483 204.6 c 0
 483 124.3 435.4 76.5 391 41 c 0
 344 4 291 -10 232 -10 c 0
 99 -10 101 10 46 10 c 1
 45.2 20.3 44.6 31.8 44.6 44.7 c 0
 44.6 78.2 48.2 120.9 59 175 c 1
 69.7 177.7 81.2 180.8 92.2 180.8 c 0
 97.7 180.8 103 180 108 178 c 1
 110 87 165 32 229 32 c 0
 293.6 32 347.1 71.6 347.1 135.6 c 0
 347.1 197.1 302.8 231 245.8 269.9 c 0
 176.2 317.4 128.5 367.2 128.5 445.6 c 0
 128.5 528.2 167.1 579.6 215 613.5 c 0
 254.1 641.2 316 658 369 658 c 0
 458 658 475 639 526 631 c 1
EndSplineSet
Position2: "'cpsp' Versalabstaende 1" dx=2 dy=0 dh=5 dv=0
EndChar

StartChar: T
Encoding: 84 84 210
Width: 625
GlyphClass: 2
Flags: MW
AnchorPoint: "middle" 332 285 basechar 0
AnchorPoint: "cedilla" 333 10 basechar 0
AnchorPoint: "below" 325 -110 basechar 0
AnchorPoint: "above" 515 850 basechar 0
LayerCount: 2
Fore
SplineSet
413 123 m 2
 397 40 412 35 488 32 c 1
 493 26 488 4 481 -2 c 1
 433 -1 383 0 320 0 c 0
 259 0 208 -1 161 -2 c 1
 156 4 160 26 167 32 c 1
 244 35 262 40 278 123 c 2
 353 506 l 2
 365 567 363 605 327 605 c 2
 280 605 l 2
 217 605 172 579 137 499 c 1
 125 499 110 500 101 504 c 1
 121 552 140 605 153 650 c 0
 153 651 156 653 158 653 c 0
 194 650 306 645 380 645 c 2
 515 645 l 2
 591 645 699 650 732 653 c 0
 733 653 734 651 734 650 c 0
 726 605 721 553 719 507 c 1
 710 503 691 502 680 502 c 1
 679 579 644 605 572 605 c 2
 550 605 l 2
 515 605 499 567 487 503 c 2
 413 123 l 2
EndSplineSet
Position2: "'cpsp' Versalabstaende 1" dx=2 dy=0 dh=5 dv=0
EndChar

StartChar: U
Encoding: 85 85 211
Width: 702
GlyphClass: 2
Flags: MW
AnchorPoint: "middle" 391 321 basechar 0
AnchorPoint: "cedilla" 383 4 basechar 0
AnchorPoint: "below" 383 -110 basechar 0
AnchorPoint: "above" 401 850 basechar 0
LayerCount: 2
Fore
SplineSet
319 522 m 2
 270 269 l 2
 257 204 245 129 283 82 c 0
 306 53 341 32 387 32 c 0
 549 32 589 165 611 277 c 2
 659 522 l 2
 675 605 659 606 588 613 c 1
 583 619 588 641 595 647 c 1
 643 646 669 645 717 645 c 0
 757 645 773 646 820 647 c 1
 825 641 820 619 813 613 c 1
 754 606 738 605 722 522 c 2
 677 295 l 2
 642 117 556 -10 359 -10 c 0
 313 -10 225 -9 173 32 c 0
 126 69 110 139 129 236 c 2
 185 522 l 2
 201 605 186 610 129 613 c 1
 124 619 128 641 135 647 c 1
 183 646 220 645 275 645 c 0
 336 645 385 646 432 647 c 1
 437 641 432 619 425 613 c 1
 350 610 335 605 319 522 c 2
EndSplineSet
Position2: "'cpsp' Versalabstaende 1" dx=2 dy=0 dh=5 dv=0
EndChar

StartChar: V
Encoding: 86 86 212
Width: 671
GlyphClass: 2
Flags: MW
AnchorPoint: "cedilla" 349 3 basechar 0
AnchorPoint: "below" 329 -108 basechar 0
AnchorPoint: "above" 387 805 basechar 0
LayerCount: 2
Fore
SplineSet
676 543 m 2
 711 603 742 610 785 613 c 1
 792 619 797 641 792 647 c 1
 756 646 738 645 701 645 c 0
 662 645 609 646 574 647 c 1
 567 641 562 619 567 613 c 1
 603 610 646 604 625 566 c 2
 423 210 l 1
 399 171 l 1
 393 216 l 1
 344 573 l 2
 339 606 375 610 422 613 c 1
 429 619 434 641 429 647 c 1
 393 646 297 645 260 645 c 0
 221 645 166 646 131 647 c 1
 124 641 120 619 125 613 c 1
 162 609 192 606 201 559 c 2
 304 11 l 2
 307 -4 320 -12 331 -12 c 0
 341 -12 359 -5 368 11 c 2
 676 543 l 2
EndSplineSet
Position2: "'cpsp' Versalabstaende 1" dx=2 dy=0 dh=5 dv=0
EndChar

StartChar: W
Encoding: 87 87 213
Width: 986
GlyphClass: 2
Flags: MW
AnchorPoint: "below" 514 -107 basechar 0
AnchorPoint: "above" 537 805 basechar 0
LayerCount: 2
Fore
SplineSet
671 613 m 1
 728 216 l 1
 734 174 l 1
 753 210 l 1
 936 566 l 2
 955 604 914 610 878 613 c 1
 873 619 878 641 885 647 c 1
 920 646 973 645 1012 645 c 0
 1049 645 1067 646 1103 647 c 1
 1108 641 1103 619 1096 613 c 1
 1053 610 1019 602 987 543 c 2
 698 11 l 2
 688 -7 671 -12 661 -12 c 0
 650 -12 636 0 634 11 c 2
 564 410 l 1
 352 11 l 2
 342 -8 325 -12 315 -12 c 0
 304 -12 290 -4 288 11 c 2
 205 559 l 2
 198 605 166 609 129 613 c 1
 124 619 128 641 135 647 c 1
 170 646 225 645 264 645 c 0
 301 645 397 646 433 647 c 1
 438 641 433 619 426 613 c 1
 379 610 343 604 347 573 c 2
 392 216 l 1
 395 184 l 1
 407 210 l 1
 613 613 l 1
 613 613 642 607 671 613 c 1
EndSplineSet
Position2: "'cpsp' Versalabstaende 1" dx=2 dy=0 dh=5 dv=0
EndChar

StartChar: X
Encoding: 88 88 214
Width: 689
GlyphClass: 2
Flags: MW
AnchorPoint: "cedilla" 109 -1 basechar 0
AnchorPoint: "below" 331 -107 basechar 0
AnchorPoint: "above" 382 804 basechar 0
LayerCount: 2
Fore
SplineSet
434 89 m 1
 376 246 l 2
 367 269 362 271 350 258 c 0
 298 200 253 141 207 82 c 1
 187 52 198 36 240 33 c 1
 245 27 240 5 233 -1 c 1
 195 0 138 1 116 1 c 0
 94 1 38 0 9 -1 c 1
 4 5 9 27 16 33 c 1
 60 37 95 45 129 81 c 2
 327 291 l 2
 347 312 348 316 334 344 c 2
 235 547 l 2
 209 600 193 610 153 613 c 1
 148 619 151 641 158 647 c 1
 187 646 270 645 307 645 c 0
 345 645 409 646 448 647 c 1
 453 641 449 619 442 613 c 1
 388 610 383 594 397 557 c 2
 446 429 l 2
 453 410 458 402 471 415 c 0
 520 463 561 516 596 564 c 1
 616 594 606 610 564 613 c 1
 559 619 563 641 570 647 c 1
 608 646 659 645 681 645 c 0
 703 645 750 646 779 647 c 1
 784 641 780 619 773 613 c 1
 729 609 698 601 665 565 c 2
 501 389 l 2
 481 367 478 360 493 327 c 2
 597 99 l 2
 622 45 645 36 685 33 c 1
 690 27 686 5 679 -1 c 1
 650 0 580 1 543 1 c 0
 505 1 432 0 393 -1 c 1
 388 5 393 27 400 33 c 1
 454 36 451 54 434 89 c 1
EndSplineSet
Position2: "'cpsp' Versalabstaende 1" dx=2 dy=0 dh=5 dv=0
EndChar

StartChar: Y
Encoding: 89 89 215
Width: 606
GlyphClass: 2
Flags: MW
AnchorPoint: "cedilla" 339 1 basechar 0
AnchorPoint: "below" 341 -110 basechar 0
AnchorPoint: "above" 341 850 basechar 0
LayerCount: 2
Fore
SplineSet
411 122 m 2
 395 39 411 34 487 31 c 1
 492 25 487 4 480 -2 c 1
 432 -1 388 0 328 0 c 0
 263 0 207 -1 160 -2 c 1
 155 4 159 25 166 31 c 1
 243 34 261 39 277 122 c 2
 303 259 l 2
 310 296 309 303 298 332 c 2
 218 547 l 2
 197 603 181 610 141 613 c 1
 136 619 140 641 147 647 c 1
 176 646 245 645 282 645 c 0
 320 645 363 646 402 647 c 1
 407 641 402 619 395 613 c 1
 341 610 338 595 351 557 c 2
 415 373 l 2
 421 356 432 357 441 370 c 2
 573 564 l 2
 593 594 576 610 534 613 c 1
 529 619 533 641 540 647 c 1
 578 646 624 645 646 645 c 0
 668 645 707 646 736 647 c 1
 741 641 736 619 729 613 c 1
 685 609 666 605 637 565 c 1
 472 351 l 2
 455 330 448 308 440 268 c 2
 411 122 l 2
EndSplineSet
Position2: "'cpsp' Versalabstaende 1" dx=2 dy=0 dh=5 dv=0
EndChar

StartChar: Z
Encoding: 90 90 216
Width: 598
GlyphClass: 2
Flags: MW
AnchorPoint: "cedilla" 308 4 basechar 0
AnchorPoint: "below" 308 -107 basechar 0
AnchorPoint: "above" 321 803 basechar 0
LayerCount: 2
Fore
SplineSet
420 44 m 2
 483 44 539 97 574 177 c 1
 586 177 602 176 611 172 c 1
 593 112 564 25 551 -5 c 0
 551 -6 548 -8 546 -8 c 0
 510 -5 398 0 324 0 c 2
 37 0 l 2
 24 0 20 5 22 15 c 0
 23 22 27 30 34 38 c 2
 498 579 l 2
 507 589 518 602 501 602 c 2
 317 602 l 2
 254 602 205 556 170 476 c 1
 158 476 142 477 133 481 c 1
 153 529 178 605 191 650 c 0
 191 651 194 653 196 653 c 0
 232 650 344 645 418 645 c 2
 611 645 l 2
 638 645 662 647 674 647 c 0
 687 647 690 643 689 637 c 0
 687 626 684 620 659 591 c 2
 218 72 l 2
 202 53 198 44 228 44 c 2
 420 44 l 2
EndSplineSet
Position2: "'cpsp' Versalabstaende 1" dx=2 dy=0 dh=5 dv=0
EndChar

StartChar: bracketleft
Encoding: 91 91 217
Width: 397
GlyphClass: 2
Flags: MW
LayerCount: 2
Fore
SplineSet
31.8 -193 m 1
 222.2 703 l 1
 461.2 703 l 1
 465.9 697 468.1 679 460.8 673 c 1
 321.7 663 300.5 648 282 561 c 2
 152.2 -50 l 2
 133.7 -137 147.5 -152 283.2 -163 c 1
 287.9 -169 284.1 -187 276.8 -193 c 1
 31.8 -193 l 1
EndSplineSet
EndChar

StartChar: backslash
Encoding: 92 92 218
Width: 307
GlyphClass: 2
Flags: MW
LayerCount: 2
Fore
SplineSet
188.4 698 m 1
 313.6 -48 l 1
 248.6 -48 l 1
 123.4 698 l 1
 188.4 698 l 1
EndSplineSet
EndChar

StartChar: bracketright
Encoding: 93 93 219
Width: 397
GlyphClass: 2
Flags: MW
LayerCount: 2
Fore
SplineSet
473.2 703 m 1
 282.8 -193 l 1
 43.8 -193 l 1
 39.1 -187 36.9 -169 44.2 -163 c 1
 183.3 -153 204.5 -138 223 -51 c 2
 352.8 560 l 2
 371.3 647 357.5 662 221.8 673 c 1
 217.1 679 220.9 697 228.2 703 c 1
 473.2 703 l 1
EndSplineSet
EndChar

StartChar: asciicircum
Encoding: 94 94 220
Width: 518
GlyphClass: 2
Flags: MW
LayerCount: 2
Fore
SplineSet
327.8 569 m 1
 193.7 346 l 1
 140.2 346 l 1
 326.9 650 l 1
 366.4 650 l 1
 417.5 346 l 1
 363.9 346 l 1
 327.8 569 l 1
EndSplineSet
EndChar

StartChar: underscore
Encoding: 95 95 221
Width: 486
GlyphClass: 2
Flags: MW
LayerCount: 2
Fore
SplineSet
463 -110 m 1
 455 -154 l 1
 -22 -154 l 1
 -15 -110 l 1
 463 -110 l 1
EndSplineSet
EndChar

StartChar: a
Encoding: 97 97 222
Width: 558
GlyphClass: 2
Flags: MW
AnchorPoint: "below" 174 -108 basechar 0
AnchorPoint: "cedilla" 179.4 -3 basechar 0
AnchorPoint: "ogonek" 413.3 16 basechar 0
AnchorPoint: "above" 340.6 647 basechar 0
LayerCount: 2
Fore
SplineSet
508 436 m 0
 521.3 436 528.5 428.6 528.5 414.9 c 0
 528.5 397.8 516.8 359.5 508.3 320.2 c 2
 466 124 l 2
 462.8 110.3 459.2 93.8 459.2 81.4 c 0
 459.2 70.6 462 63 470 63 c 0
 480 63 514 80 540 110 c 1
 554 110 566 91 569 82 c 1
 523 23 460.5 -10 391 -10 c 0
 361 -10 348.5 2.5 341 23 c 0
 338.7 29.3 337.7 37.5 337.7 46.9 c 0
 337.7 64.4 341.1 86 346 106.7 c 2
 351 125 l 1
 347 127 l 1
 287 38 224.5 -10 182 -10 c 0
 109 -10 75.1 49.1 75.1 117.5 c 0
 75.1 192.4 103.5 258.6 148.5 315.6 c 0
 203.8 385.8 284 439 368 439 c 0
 408 439 406 436 433 433 c 0
 437.8 431.8 443.1 431.4 448.9 431.4 c 0
 467.3 431.4 489.7 436 508 436 c 0
364.5 226 m 1
 389.5 290 397 378 397 378 c 1
 395.1 390.5 384 397 363 397 c 0
 319.6 397 280.2 362.6 251 314.5 c 0
 219.7 262.9 200.2 195.6 200.2 138.4 c 0
 200.2 107.5 213.1 84.5 244.1 84.5 c 0
 276.1 84.5 315.5 136 364.5 226 c 1
EndSplineSet
EndChar

StartChar: b
Encoding: 98 98 223
Width: 521
GlyphClass: 2
Flags: MW
AnchorPoint: "below" 214 -108 basechar 0
LayerCount: 2
Fore
SplineSet
266.4 277.6 m 1
 233 127 l 2
 217.8 58.5 224.9 32 261 32 c 0
 337.3 32 422 156 422 301 c 0
 422 319 419 352 389 352 c 0
 341.5 352 312.6 331.4 266.4 277.6 c 1
279.2 335.6 m 1
 281 335 l 1
 316 376 380 439 449 439 c 0
 537.5 439 550.5 368.5 550.5 327.5 c 0
 550.5 225.4 508.8 147.9 426.5 73.5 c 0
 348.5 3 269.5 -10 210 -10 c 0
 120 -10 94.6 54.5 109 118 c 2
 210 563 l 2
 225.7 632.1 210 638 148 638 c 1
 145 647 147 660 153 672 c 1
 196 679 288 698 319 698 c 0
 342 698 349 686 349 665 c 0
 349 645 341.3 615.9 334 583 c 2
 279.2 335.6 l 1
EndSplineSet
EndChar

StartChar: c
Encoding: 99 99 224
Width: 434
GlyphClass: 2
Flags: MW
LayerCount: 2
Fore
SplineSet
421 87 m 1
 374 32 296 -10 235 -10 c 0
 169 -10 130 5 101 42 c 0
 73 78 64 136 78 201 c 0
 109 349 235 444 345 444 c 0
 446 444 485 394 474 340 c 0
 467 309 441 284 411 284 c 0
 381 284 361 304 364 331 c 0
 368 363 362 402 328 402 c 0
 279 402 234 347 210 236 c 0
 187 128 228 66 289 66 c 0
 323 66 355 81 400 118 c 1
 409 118 421 96 421 87 c 1
EndSplineSet
EndChar

StartChar: d
Encoding: 100 100 225
Width: 561
GlyphClass: 2
Flags: MW
AnchorPoint: "below" 221 -107 basechar 0
AnchorPoint: "ogonek" 312 20 basechar 0
AnchorPoint: "above" 218 645 basechar 0
LayerCount: 2
Fore
SplineSet
445 563 m 2
 461 632 445 638 383 638 c 1
 380 647 382 660 388 672 c 1
 431 679 523 698 554 698 c 0
 577 698 584 686 584 665 c 0
 584 645 576 616 569 583 c 2
 468 127 l 2
 464.9 113.2 461.4 96.6 461.4 84.2 c 0
 461.4 73.5 464 66 472 66 c 0
 482 66 516 83 542 113 c 1
 556 113 568 94 571 85 c 1
 521 30 454.5 -10 385 -10 c 0
 349.1 -10 334.3 12.7 334.3 47.1 c 0
 334.3 67.4 338.8 94.7 343.8 117.1 c 1
 342 118 l 1
 282 30 235 -10 178 -10 c 0
 90 -10 58 51 58 124 c 0
 58 213.1 102 321 188 389 c 0
 233.1 424.6 272 439 325 439 c 0
 363 439 392 414 404 384 c 1
 404.4 384 l 1
 445 563 l 2
382.5 281.8 m 2
 384.2 288.3 385.5 294.2 386.4 299.6 c 2
 382.5 281.8 l 2
377.2 264.1 m 1
 387.8 311.1 l 2
 387.9 312.8 388 314.5 388 316 c 0
 388 351 366 393 328 393 c 0
 242 393 179 256 179 150 c 0
 179 94 191 56 220 56 c 0
 259 56 297 104 346 194 c 0
 360 219.6 370.3 243.6 377.2 264.1 c 1
EndSplineSet
EndChar

StartChar: e
Encoding: 101 101 226
Width: 409
GlyphClass: 2
Flags: MW
AnchorPoint: "below" 161 -108 basechar 0
AnchorPoint: "ogonek" 347.3 41 basechar 0
AnchorPoint: "above" 335.2 645 basechar 0
LayerCount: 2
Fore
SplineSet
343 370 m 0
 343 390 332 398 311 398 c 0
 272 398 234.3 378 200 237.3 c 1
 253 246 343 280 343 370 c 0
193 199 m 1
 192 191 192 170 192 165 c 0
 192 98 206 50 245 50 c 0
 293 50 324 66 381 124 c 1
 393 124 408 110 413 99 c 1
 354 23 276 -10 209 -10 c 0
 89 -10 63 57 63 142 c 0
 63 269 140 439 334 439 c 0
 415 439 456 404 456 369 c 0
 456 351.2 455.5 317.2 425 288 c 0
 390.6 255 319.2 226.1 193 199 c 1
EndSplineSet
EndChar

StartChar: f
Encoding: 102 102 227
Width: 397
GlyphClass: 2
Flags: MW
AnchorPoint: "above" 440.6 807 basechar 0
AnchorPoint: "below" 272 -111 basechar 0
LayerCount: 2
Fore
SplineSet
191 382 m 1
 109 382 l 2
 106 382 103 382 103 384 c 0
 103 386 106 406 107 409 c 0
 109 417 116 425 135 426 c 2
 201 429 l 1
 222.5 535 254 599.5 291 640 c 0
 327.3 679.7 381.5 698 437 698 c 0
 522 698 591.8 656.8 591.8 608.5 c 0
 591.8 587 576.8 554.7 539.9 554.7 c 0
 499.2 554.7 489.1 590.8 484 617.5 c 0
 478.9 641.7 466 656 438 656 c 0
 380 656 356.7 587.9 337 486 c 2
 326 429 l 1
 436 429 l 2
 441 429 443 427 443 424 c 0
 443 423 438 394 438 394 c 2
 436 386 421 382 412 382 c 2
 319 382 l 1
 315 359 l 2
 299.6 270.7 286 207.9 268.9 130 c 0
 230 -48 185.3 -111.1 150.8 -157.6 c 0
 112.9 -208.7 60.9 -233.2 11.6 -233.2 c 0
 -70 -233.2 -102.2 -194.7 -102.2 -168 c 0
 -102.2 -147.6 -89.8 -121.8 -56.7 -121.8 c 0
 -33.8 -121.8 -13.5 -133.4 1.3 -157.8 c 0
 9.9 -172 21 -184.6 34.4 -184.6 c 0
 52.4 -184.6 75.9 -168.4 89.2 -147.6 c 0
 133.3 -78.7 137 43.4 150 141 c 0
 160 216 169 268.5 191 382 c 1
EndSplineSet
EndChar

StartChar: g
Encoding: 103 103 228
Width: 497
GlyphClass: 2
Flags: MW
AnchorPoint: "top_punkt" 330 550 basechar 0
AnchorPoint: "below" 217 -319 basechar 0
AnchorPoint: "above" 360 645 basechar 0
LayerCount: 2
Fore
SplineSet
171 -13 m 1
 146 -31 94 -65 94 -113 c 0
 94 -168 138 -200 250 -200 c 0
 335 -200 352 -157 352 -127 c 0
 352 -99 348 -90 292 -64 c 0
 259 -49 189 -17 171 -13 c 1
445 291 m 0
 445 192 360 132 273 132 c 0
 245 132 221 139 205 149 c 1
 196 132 195.9 107.1 202 88 c 0
 209 66 255 48 335 24 c 0
 389 8 457 -35 457 -100 c 0
 457 -199 346 -238 209 -238 c 0
 128 -238 -3 -217 -3 -136 c 0
 -3 -76 89 -31 142 -2 c 1
 111 9 106 39 106 56 c 0
 106 91 122 132 170 165 c 1
 132 188 114 239 114 283 c 0
 114 363 178 439 290 439 c 0
 334.3 439 385 428 407 402 c 1
 442 434 475.4 445.7 506.6 445.7 c 0
 534.2 445.7 553.4 426.5 553.4 404.9 c 0
 553.4 382.1 537.8 365.3 516.2 365.3 c 0
 496.8 365.3 488.6 376.1 482.6 385.7 c 0
 479 391.7 475.4 397.7 464.6 397.7 c 0
 456.2 397.7 442 383 427 369 c 1
 441 349 445 318 445 291 c 0
331 291 m 0
 331 359 329 399 286 399 c 0
 220 399 228 354 228 282 c 0
 228 234 217 172 278 172 c 0
 338 172 331 229 331 291 c 0
EndSplineSet
EndChar

StartChar: h
Encoding: 104 104 229
Width: 620
GlyphClass: 2
Flags: MW
AnchorPoint: "cedilla" 134 9 basechar 0
AnchorPoint: "below" 235 -111 basechar 0
AnchorPoint: "ogonek" 427 10 basechar 0
AnchorPoint: "above" 415 645 basechar 0
LayerCount: 2
Fore
SplineSet
225.9 72 m 2
 217.3 33 218 -10 157 -10 c 0
 101 -10 91.1 0.5 91.1 17.2 c 0
 91.1 27 98.5 48.3 103.8 72 c 2
 214 563 l 2
 229.5 632.1 214 638 152 638 c 1
 149 647 151 660 157 672 c 1
 200 679 292 698 323 698 c 0
 346 698 353 686 353 665 c 0
 353 645 345 616 338 583 c 2
 279.8 317.9 l 1
 368.3 419 432.3 439 483 439 c 0
 522 439 572 419 572 359 c 0
 572 341 567.3 317.9 559 283 c 2
 521 124 l 2
 514.7 98.4 507.7 63 525 63 c 0
 535 63 569 80 595 110 c 1
 609 110 621 91 624 82 c 1
 578 23 508.5 -10 439 -10 c 0
 409 -10 397.5 2.5 390 23 c 0
 383.5 40.8 389.2 83.2 397 115 c 2
 434 275 l 2
 441.9 309 443 319 443 333 c 0
 443 364 429 369 408 369 c 0
 372.6 369 322.6 311.8 260.9 231.8 c 1
 225.9 72 l 2
EndSplineSet
EndChar

StartChar: k
Encoding: 107 107 232
Width: 560
GlyphClass: 2
Flags: MW
AnchorPoint: "below" 280 -107 basechar 0
AnchorPoint: "cedilla" 182 9 basechar 0
AnchorPoint: "above" 462 646 basechar 0
LayerCount: 2
Fore
SplineSet
220.9 72 m 2
 212.3 33 213 -10 152 -10 c 0
 96 -10 86.1 0.5 86.1 17.2 c 0
 86.1 27 93.5 48.3 98.8 72 c 2
 209 563 l 2
 224.5 632.1 209 638 147 638 c 1
 144 647 146 660 152 672 c 1
 195 679 287 698 318 698 c 0
 341 698 348 686 348 665 c 0
 348 645 340 616 333 583 c 2
 264.9 272.7 l 1
 283.2 276 301.1 289.9 316 302.7 c 2
 356 337 l 1
 428 401 499 439 531 439 c 0
 575.4 439 596 406.3 596 380.1 c 0
 596 346.3 574.4 310.1 542 310.1 c 0
 525.2 310.1 509.6 326.4 501.2 336.4 c 0
 494 345.2 488 351.4 476 351.4 c 0
 456 351.4 432.1 344.4 400 316 c 2
 348 270 l 1
 349 266 l 1
 382 257 399.3 233.4 415 202 c 0
 429 174 438 146 456 90 c 0
 463 68.2 469.4 52 488.5 52 c 0
 499.5 52 520 65 540 94 c 1
 551 94 563 85 570 77 c 1
 540 15.5 484 -10 433 -10 c 0
 392 -10 367 21 334.4 93 c 0
 314 138.2 309 189 291 221 c 0
 286 230 279 237.3 271.4 237.3 c 0
 266.5 237.3 261.8 237.1 256.9 236.2 c 1
 220.9 72 l 2
EndSplineSet
EndChar

StartChar: l
Encoding: 108 108 233
Width: 324
GlyphClass: 2
Flags: MW
AnchorPoint: "below" 115 -107 basechar 0
AnchorPoint: "cedilla" 131 10 basechar 0
LayerCount: 2
Fore
SplineSet
208 563 m 2
 224 632 208 638 146 638 c 1
 143 647 145 660 151 672 c 1
 194 679 286 698 317 698 c 0
 340 698 347 686 347 665 c 0
 347 645 339 616 332 583 c 2
 231 127 l 2
 227.9 113.2 224.4 96.6 224.4 84.2 c 0
 224.4 73.5 227 66 235 66 c 0
 245.1 66 279 83 305 113 c 1
 319 113 331 94 334 85 c 1
 284 30 217.5 -10 148 -10 c 0
 112.1 -10 97.3 12.7 97.3 47.1 c 0
 97.3 67.7 101.9 95.4 107 118 c 2
 208 563 l 2
EndSplineSet
EndChar

StartChar: m
Encoding: 109 109 234
Width: 884
GlyphClass: 2
Flags: MW
AnchorPoint: "below" 400 -105 basechar 0
AnchorPoint: "cedilla" 157 9 basechar 0
AnchorPoint: "above" 522 645 basechar 0
LayerCount: 2
Fore
SplineSet
146 243 m 2
 160.7 308.8 161 341.1 161 352 c 0
 161 363.7 157.4 380.9 143 382 c 2
 103 385 l 1
 97 394 98.3 415 105 423 c 1
 152 429 239 436 271 436 c 0
 284.2 436 294.5 425.6 294.5 411.9 c 0
 294.5 394.6 291 353.3 282 311 c 1
 283 310 l 1
 375 418 421 439 473 439 c 0
 512 439 562 419 562 359 c 0
 562 353.4 561.5 347.4 560.6 340.6 c 1
 634.2 422.1 698.3 439 745 439 c 0
 784 439 834 419 834 359 c 0
 834 341 829.3 317.9 821 283 c 2
 783 124 l 2
 776.7 98.4 769.7 63 787 63 c 0
 797 63 831 80 857 110 c 1
 871 110 883 91 886 82 c 1
 840 23 770.5 -10 701 -10 c 0
 671 -10 659.5 2.5 652 23 c 0
 645.5 40.8 651.2 83.2 659 115 c 2
 696 275 l 2
 703.9 309 705 319 705 333 c 0
 705 364 690.7 369 680 369 c 0
 639.2 369 595.7 324 543.3 257.9 c 1
 500.8 72 l 2
 492.1 34 493 -10 432 -10 c 0
 376 -10 366.1 0.5 366.1 17.2 c 0
 366.1 27 374.3 51.9 378.8 72 c 2
 424 275 l 2
 431.6 309.1 433 324.3 433 343 c 0
 433 364.3 424 369 413 369 c 0
 377 369 331 310 268 228 c 1
 229.9 72 l 2
 220.6 34.1 222 -10 161 -10 c 0
 105 -10 95.1 0.5 95.1 17.2 c 0
 95.1 27 103.3 51.9 107.8 72 c 2
 146 243 l 2
EndSplineSet
EndChar

StartChar: n
Encoding: 110 110 235
Width: 614
GlyphClass: 2
Flags: MW
AnchorPoint: "below" 235 -111 basechar 0
AnchorPoint: "cedilla" 128 9 basechar 0
AnchorPoint: "above" 394 646 basechar 0
LayerCount: 2
Fore
SplineSet
140 243 m 2
 154.7 308.8 155 341.1 155 352 c 0
 155 363.7 151.4 380.9 137 382 c 2
 97 385 l 1
 91 394 92.3 415 99 423 c 1
 146 429 233 436 265 436 c 0
 278.2 436 288.5 425.6 288.5 411.9 c 0
 288.5 394.6 285 353.3 276 311 c 1
 278 309 l 1
 370 417 423.3 439 487 439 c 0
 526 439 576 419 576 359 c 0
 576 341 571.3 317.9 563 283 c 2
 525 124 l 2
 518.7 98.4 511.7 63 529 63 c 0
 539 63 573 80 599 110 c 1
 613 110 625 91 628 82 c 1
 582 23 512.5 -10 443 -10 c 0
 413 -10 401.5 2.5 394 23 c 0
 387.5 40.8 393.2 83.2 401 115 c 2
 438 275 l 2
 445.9 309 447 319 447 333 c 0
 447 364 433 369 412 369 c 0
 376 369 325 310 262 228 c 1
 223.9 72 l 2
 214.4 33.2 216 -10 155 -10 c 0
 99 -10 89.1 0.5 89.1 17.2 c 0
 89.1 27 97.4 52.1 101.8 72 c 2
 140 243 l 2
EndSplineSet
EndChar

StartChar: o
Encoding: 111 111 236
Width: 479
GlyphClass: 2
Flags: MW
AnchorPoint: "below" 185.2 -107 basechar 0
AnchorPoint: "cedilla" 229.4 -3 basechar 0
AnchorPoint: "ogonek" 370 44 basechar 0
AnchorPoint: "above" 358.2 645 basechar 0
AnchorPoint: "komb_OR" 489.6 396 basechar 0
LayerCount: 2
Fore
SplineSet
196 170 m 0
 196 58.1 226 32 255 32 c 0
 359.2 32 371 177.4 371 260 c 0
 371 318.1 368 397 315 397 c 0
 213.9 397 196 270 196 170 c 0
67 162 m 0
 67 248.8 122.7 352.9 216.5 405 c 0
 252.4 425 293.8 439 340 439 c 0
 463 439 500 353 500 281 c 0
 500 145.9 427.6 57.9 340.5 14 c 0
 311.1 -0.8 260.5 -10 220 -10 c 0
 93 -10 67 98 67 162 c 0
EndSplineSet
EndChar

StartChar: p
Encoding: 112 112 237
Width: 549
GlyphClass: 2
Flags: MW
AnchorPoint: "below" 298 -110 basechar 0
AnchorPoint: "above" 461 646 basechar 0
LayerCount: 2
Fore
SplineSet
316 404 m 1
 343 420 380 439 431 439 c 0
 531 439 575 373 575 289 c 0
 575 220.1 530.1 110.5 453 45 c 0
 411.5 9.7 358 -10 303 -10 c 0
 267 -10 247 7 232 23 c 1
 193 -151 l 2
 185 -185 211 -190 226 -192 c 2
 245 -195 l 2
 249 -196 251 -198 251 -203 c 2
 251 -233 l 1
 249 -235 l 1
 249 -235 181 -233 142 -233 c 0
 106 -233 -5 -238 -5 -238 c 1
 -7 -236 l 1
 -7 -207 l 2
 -7 -201 -2 -200 3 -199 c 2
 22 -196 l 2
 54 -191 68.9 -179 75 -151 c 2
 171 293 l 1
 143 270 121 252 99 223 c 1
 81 223 74.9 244.8 71 259 c 1
 99 294 136 324 186 360 c 1
 198 409 l 2
 207.2 446.7 249 491 287 491 c 0
 319 491 329 481 329 464 c 0
 329 452 319.6 421.9 316 404 c 1
447 273 m 0
 447 322 439 388 397 388 c 0
 359 388 330 370 305 354 c 1
 241 75 l 1
 262 46 289 32 315 32 c 0
 402 32 447 207 447 273 c 0
EndSplineSet
EndChar

StartChar: q
Encoding: 113 113 238
Width: 531
GlyphClass: 2
Flags: MW
AnchorPoint: "below" 172 -110 basechar 0
AnchorPoint: "above" 372.2 645 basechar 0
LayerCount: 2
Fore
SplineSet
405 320 m 0
 405 361 380 393 344 393 c 0
 242 393 193 276.5 193 128 c 0
 193 72 214.2 44 238 44 c 0
 275 44 347 115 370 180 c 0
 389 236 405 304 405 320 c 0
298 -161 m 2
 364 99 l 1
 361 100 l 1
 299 14 250 -10 201 -10 c 0
 107 -10 64 72 64 147 c 0
 64 247.4 117.9 336.1 188 387.5 c 0
 238 424.2 298.9 439 343 439 c 0
 384 439 416 418 439 386 c 1
 476.5 419.5 l 2
 494.6 435.7 520 442 527 442 c 0
 556.1 442 551.5 418.7 543.5 384 c 2
 417 -161 l 2
 409.1 -194.9 434.8 -199.6 450 -202 c 2
 469 -205 l 2
 473 -205.6 475 -208 475 -213 c 2
 475 -233 l 1
 473 -235 l 1
 473 -235 362 -233 323 -233 c 0
 287 -233 218 -238 218 -238 c 1
 216 -236 l 1
 216 -217 l 2
 216 -211 221.1 -209.8 226 -209 c 2
 245 -206 l 2
 277.3 -200.9 291 -188.8 298 -161 c 2
EndSplineSet
EndChar

StartChar: r
Encoding: 114 114 239
Width: 426
GlyphClass: 2
Flags: MW
AnchorPoint: "below" 121 -110 basechar 0
AnchorPoint: "cedilla" 142 7 basechar 0
AnchorPoint: "above" 320.4 646 basechar 0
LayerCount: 2
Fore
SplineSet
270 228 m 1
 231.9 72 l 2
 222.4 33.2 224 -10 163 -10 c 0
 107 -10 97.1 0.5 97.1 17.2 c 0
 97.1 27 105.5 52.1 109.8 72 c 2
 147 243 l 2
 161.3 308.9 162 341.1 162 352 c 0
 162 363.7 158.4 380.9 144 382 c 2
 104 385 l 1
 98 394 99.3 415 106 423 c 1
 153 429 240 436 272 436 c 0
 285.2 436 295.5 425.6 295.5 411.9 c 0
 295.5 394.4 292 353.3 283 311 c 1
 286 309 l 1
 330 402 386.6 438.9 431.6 438.9 c 0
 476 438.9 494 406.3 494 380.1 c 0
 494 346.3 472.4 310.1 440 310.1 c 0
 423.2 310.1 407.6 326.4 399.2 336.4 c 0
 392 345.2 386 351.4 374 351.4 c 0
 346.4 351.4 318 315 270 228 c 1
EndSplineSet
EndChar

StartChar: s
Encoding: 115 115 240
Width: 417
GlyphClass: 2
Flags: MW
AnchorPoint: "below" 196 -110 basechar 0
AnchorPoint: "cedilla" 194 1 basechar 0
AnchorPoint: "ogonek" 290 13 basechar 0
AnchorPoint: "above" 206 645 basechar 0
AnchorPoint: "right" 366 580 basechar 0
LayerCount: 2
Fore
SplineSet
426 355 m 0
 430 323 403 304 389 300 c 0
 367 294 344 302 336 322 c 0
 323 356 313 397 270 397 c 0
 242 397 216 377 216 353 c 0
 216 302 266 276 292 262 c 0
 366 223 405 177 405 130 c 0
 405 66.6 353 -10 227 -10 c 0
 147 -10 65 19 65 87 c 0
 65 119 92 138 108 138 c 0
 138 138 157 115 172 80 c 0
 187 46 217 32 248 32 c 0
 272 32 300 54 300 81 c 0
 300 128 278 157 236 181 c 0
 170 219 122 268 122 311 c 0
 122 417 228 439 297 439 c 0
 359 439 421 404 426 355 c 0
EndSplineSet
EndChar

StartChar: t
Encoding: 116 116 241
Width: 367
GlyphClass: 2
Flags: MW
AnchorPoint: "below" 133 -107 basechar 0
AnchorPoint: "cedilla" 165 -3 basechar 0
AnchorPoint: "ogonek" 227 15 basechar 0
LayerCount: 2
Fore
SplineSet
118 118 m 2
 179 382 l 1
 109 382 l 2
 106 382 103 382 103 384 c 0
 103 386 107 406 108 409 c 0
 110 417 117 425 136 426 c 2
 189 429 l 1
 202 479 l 2
 211.9 517.2 211.2 551.9 246 561 c 0
 276.5 569 342 581 342 564 c 0
 342 552 326 491.8 322 474 c 2
 312 429 l 1
 411 429 l 1
 422 421 412 387 400 382 c 1
 302 382 l 1
 242 127 l 2
 238.8 113.2 235.4 96.6 235.4 84.2 c 0
 235.4 73.5 238 66 246 66 c 0
 256 66 290 83 316 113 c 1
 330 113 342 94 345 85 c 1
 295 30 228.5 -10 159 -10 c 0
 123.1 -10 108.3 12.7 108.3 47.1 c 0
 108.3 67.7 112.8 95.4 118 118 c 2
EndSplineSet
EndChar

StartChar: u
Encoding: 117 117 242
Width: 646
GlyphClass: 2
Flags: MW
AnchorPoint: "below" 226.4 -111 basechar 0
AnchorPoint: "cedilla" 213 0 basechar 0
AnchorPoint: "ogonek" 438.4 7 basechar 0
AnchorPoint: "above" 386.4 646 basechar 0
LayerCount: 2
Fore
SplineSet
431 106.7 m 2
 431 106.7 424.6 79.7 433.6 122 c 1
 431.7 124 l 1
 339.7 16 284.6 -6 232.6 -6 c 0
 193.6 -6 143.6 16 143.6 76 c 0
 143.6 94 143.3 115.1 151.6 150 c 2
 189.6 309 l 2
 195.9 334.6 202.9 370 185.6 370 c 0
 175.6 370 141.6 353 115.6 323 c 1
 101.6 323 89.6 342 86.6 351 c 1
 132.6 410 202.1 443 271.6 443 c 0
 301.6 443 313.1 430.5 320.6 410 c 0
 327.1 392.2 321.4 349.8 313.6 318 c 2
 276.6 158 l 2
 267 116.7 271.3 76 307.6 76 c 0
 343.6 76 379.6 123 442.6 205 c 1
 480.8 361 l 2
 490.3 399.8 488.6 443 549.6 443 c 0
 605.6 443 615.5 432.5 615.5 415.8 c 0
 615.5 406 607.1 380.9 602.8 361 c 2
 551 124 l 2
 548 110.3 544.2 93.8 544.2 81.4 c 0
 544.2 70.6 547 63 555 63 c 0
 565 63 599 80 625 110 c 1
 639 110 651 91 654 82 c 1
 608 23 545.5 -10 476 -10 c 0
 446 -10 433.5 2.5 426 23 c 0
 423.7 29.3 422.7 37.5 422.7 46.9 c 0
 422.7 64.4 427.4 85.7 431 106.7 c 2
EndSplineSet
EndChar

StartChar: v
Encoding: 118 118 243
Width: 507
GlyphClass: 2
Flags: MW
AnchorPoint: "below" 246 -110 basechar 0
AnchorPoint: "above" 261 646 basechar 0
AnchorPoint: "right" 465 580 basechar 0
LayerCount: 2
Fore
SplineSet
331.5 107.5 m 1
 335.5 105.5 l 1
 399.6 155.5 451.5 254 459.5 314 c 0
 461.8 331.5 457 355.5 439 382.5 c 0
 435.7 387.4 433.5 398 433.5 403 c 0
 433.5 431.1 461.4 439 494 439 c 0
 529.5 439 554.4 420 554.4 391.6 c 0
 554.4 356.4 542.2 319.8 527.3 285 c 0
 499.1 218.9 451.6 156.5 429.5 128.5 c 0
 404.6 96.9 309.9 -12 264 -12 c 0
 237 -12 228.7 22.5 224 58.3 c 2
 193 296 l 2
 187.4 339.2 181.3 347 175 347 c 0
 166.5 347 137 329.5 112 298 c 1
 94.5 301.5 84.7 311.8 80 325.5 c 1
 130 385.5 209 439 251 439 c 0
 295.5 439 310.1 368.4 315 309 c 2
 331.5 107.5 l 1
EndSplineSet
EndChar

StartChar: w
Encoding: 119 119 244
Width: 729
GlyphClass: 2
Flags: MW
AnchorPoint: "below" 372 -110 basechar 0
AnchorPoint: "above" 365 646 basechar 0
AnchorPoint: "right" 739 580 basechar 0
LayerCount: 2
Fore
SplineSet
441.2 217.7 m 1
 438.2 218.7 l 1
 386.6 122.5 296.6 -13.2 250 -12 c 0
 223 -12 213.2 22.4 210 58.3 c 2
 189 296 l 2
 185 341.4 177.3 347 171 347 c 0
 162.5 347 133 329.5 108 298 c 1
 90.5 301.5 80.7 311.8 76 325.5 c 1
 126 385.5 205 439 247 439 c 0
 291.5 439 307.9 368.5 311 309 c 2
 320 138.5 l 1
 324 136.5 l 1
 354.4 165.5 406.6 247.5 450 346 c 1
 478.5 358 499.5 362 517 362 c 1
 536.4 313.5 565.4 180.5 578.5 107.5 c 1
 582.5 105.5 l 1
 638.5 151 673.5 254 681.5 314 c 0
 683.8 331.5 679 355.5 661 382.5 c 0
 657.7 387.4 655.5 398 655.5 403 c 0
 655.5 431.1 683.4 439 716 439 c 0
 751.5 439 776.4 420 776.4 391.6 c 0
 776.4 356.4 764.2 319.8 749.3 285 c 0
 721.1 218.9 686.3 159.4 664.5 128.5 c 0
 641.3 95.6 557.6 -12 511 -12 c 0
 484.5 -12 477.8 21.9 471 58.3 c 2
 441.2 217.7 l 1
EndSplineSet
EndChar

StartChar: x
Encoding: 120 120 245
Width: 517
GlyphClass: 2
Flags: MW
LayerCount: 2
Fore
SplineSet
196.5 333.5 m 2
 191.5 345.4 180.5 350.5 167.5 350.5 c 0
 147 350.5 124 339.5 112 333.8 c 1
 104 341.5 96.4 361.6 95 372.5 c 1
 131 393.5 224 439 259 439 c 0
 284 439 291 423.1 309.5 371.5 c 2
 335.5 299.1 l 1
 343.5 310.6 359.5 332.7 359.5 332.7 c 1
 399.5 391.3 434.4 437.5 498.5 437.5 c 0
 532.1 437.5 567.8 421.9 567.8 389.5 c 0
 567.8 359.5 547.8 330.7 521.6 330.7 c 0
 506.9 330.7 485.9 339.1 476.4 345.1 c 0
 468 349.9 455.4 353.5 451.2 353.5 c 0
 447 353.5 436.2 350.9 425 335.7 c 2
 349.5 233.5 l 1
 412 89.7 l 2
 418.8 74.1 426 65.7 434 65.7 c 0
 449 65.7 463.5 68.5 487.5 92.5 c 1
 512 67.2 l 1
 451.2 0 406 -9.8 364 -9.9 c 0
 322.5 -10 306.5 25.7 290 75.9 c 2
 271 133.8 l 1
 253.2 107.3 230.4 76.3 216.5 60.5 c 0
 162.2 -1 145.5 -10.4 97.2 -10.4 c 0
 64.7 -10.4 26.5 8.7 26.5 43.5 c 0
 26.5 72.3 37.7 92.5 74.5 92.5 c 0
 111.5 92.5 134.8 65.5 149.5 65.5 c 0
 155.8 65.5 165.5 73 179.5 91.5 c 0
 203.8 123.6 234 161 253.5 196 c 1
 235.5 248.8 196.5 333.5 196.5 333.5 c 2
EndSplineSet
EndChar

StartChar: y
Encoding: 121 121 246
Width: 514
GlyphClass: 2
Flags: MW
AnchorPoint: "below" 368 -107 basechar 0
AnchorPoint: "above" 367 644 basechar 0
LayerCount: 2
Fore
SplineSet
191 338 m 0
 183.5 348.5 179.5 350.5 166.5 350.5 c 0
 146 350.5 120 338.5 108 332.8 c 1
 100 340.5 92.4 360.6 91 371.5 c 1
 127 392.5 223 439 258 439 c 0
 283 439 296 418 310 365 c 1
 335 262 342 180 348 87 c 1
 352 86 l 1
 433.5 222 l 2
 461.5 268.8 466 310 466 331.5 c 0
 466 353.3 439 374.5 439 409.5 c 0
 439 431.5 475 439 496 439 c 0
 521 439 560.5 427.5 560.5 392.5 c 0
 560.5 344 548.1 304.2 510 242 c 2
 319 -70 l 2
 257.2 -170.9 169.6 -236.6 109.8 -236.6 c 0
 90.2 -236.6 40.8 -225 40.8 -178.6 c 0
 40.8 -135 69 -108 93 -108 c 0
 102.2 -108 124.8 -119.2 132.8 -127.9 c 0
 139.7 -135.1 164.5 -152 176 -152 c 0
 192.1 -152 221 -129 262 -62 c 1
 276 -32 225.3 290 191 338 c 0
EndSplineSet
EndChar

StartChar: z
Encoding: 122 122 247
Width: 457
GlyphClass: 2
Flags: MW
LayerCount: 2
Fore
SplineSet
457.6 450 m 1
 472.1 445.7 486.3 433.7 495.1 422 c 1
 434.7 357.5 265.1 182.5 201.6 116.5 c 1
 232.5 124.5 255.6 116.5 275.8 110.5 c 0
 303.7 102.2 328.1 88.5 359.1 88.5 c 0
 376.1 88.5 404.1 88.5 445.4 151.5 c 1
 462.3 151.7 472.6 137.7 476.2 127.5 c 1
 424.6 20.5 354.5 -10 299.5 -10 c 0
 265.5 -10 226.1 -1 200.1 11 c 0
 165.4 27 137.6 30 127.6 30 c 1
 118.4 27 104.4 17.5 80.4 -12 c 1
 60.6 -9 42.9 -2.5 38.4 7.5 c 1
 41.9 16.5 92.7 71 117 96 c 2
 117 96 260.2 243 341.7 329 c 1
 327.2 329 318.6 327 303.6 327 c 0
 273.6 327 267.9 341 218.9 341 c 0
 189.9 341 137.3 312 124.9 285 c 1
 111.2 284.9 100.1 287.7 93.5 296 c 1
 113.5 354 187 439 233 439 c 0
 285.5 439 340.6 428.6 388.7 415 c 0
 397.6 412.5 404.6 412.5 409.6 412.5 c 1
 417.8 415.5 425.9 417 457.6 450 c 1
EndSplineSet
EndChar

StartChar: braceleft
Encoding: 123 123 248
Width: 307
GlyphClass: 2
Flags: MW
LayerCount: 2
Fore
SplineSet
322.2 552 m 2
 294.5 386 l 2
 279.6 297 234 268.2 166.7 249 c 1
 165.8 245 l 1
 223.5 216.8 254.3 177.3 232.6 95 c 2
 193.4 -54 l 2
 171.3 -138 198.8 -188 240.2 -188 c 1
 244.6 -194 242 -206 235.1 -212 c 1
 140.2 -212 66.3 -179 98.6 -49 c 2
 140.4 121 l 2
 155.2 182 138.9 222 71.7 231 c 1
 65.9 239 68.1 254 78.5 263 c 1
 149.5 270 182.7 320 193.3 370 c 1
 226.8 554 l 2
 247.1 667 345.8 707 430.4 707 c 1
 434.8 701 432.2 689 425.3 683 c 1
 387.2 672 339.4 654.9 322.2 552 c 2
EndSplineSet
EndChar

StartChar: bar
Encoding: 124 124 249
Width: 220
GlyphClass: 2
Flags: MW
LayerCount: 2
Fore
SplineSet
125.8 -233 m 1
 69.4 -233 l 1
 200.2 698 l 1
 256.6 698 l 1
 125.8 -233 l 1
EndSplineSet
EndChar

StartChar: braceright
Encoding: 125 125 250
Width: 307
GlyphClass: 2
Flags: MW
LayerCount: 2
Fore
SplineSet
89.8 -56 m 2
 117.5 110 l 2
 132.4 199 178 227.8 245.3 247 c 1
 246.2 251 l 1
 188.5 279.2 157.7 318.7 179.4 401 c 2
 218.6 550 l 2
 240.7 634 213.2 684 171.8 684 c 1
 167.4 690 170 702 176.9 708 c 1
 271.8 708 345.7 675 313.4 545 c 2
 271.6 375 l 2
 256.8 314 273.1 274 340.3 265 c 1
 346.1 257 343.9 242 333.5 233 c 1
 262.5 226 229.3 176 218.7 126 c 1
 185.2 -58 l 2
 164.9 -171 66.2 -211 -18.4 -211 c 1
 -22.8 -205 -20.2 -193 -13.3 -187 c 1
 24.8 -176 72.6 -158.9 89.8 -56 c 2
EndSplineSet
EndChar

StartChar: asciitilde
Encoding: 126 126 251
Width: 449
GlyphClass: 2
Flags: MW
LayerCount: 2
Fore
SplineSet
63 209 m 1
 87 274 153 352 213 352 c 0
 259 352 304 287 349 287 c 0
 377 287 419 289 450 339 c 1
 461.3 340.7 468.7 339.3 476 333 c 1
 426 226 359 198 335 198 c 0
 282 198 249 263 197 263 c 0
 162 263 116 250 85 206 c 1
 76 202.3 67.3 204.3 63 209 c 1
EndSplineSet
EndChar

StartChar: exclamdown
Encoding: 161 161 252
Width: 266
GlyphClass: 2
Flags: MW
LayerCount: 2
Fore
SplineSet
89.3 -224 m 0
 54.5 -224 26.8 -200 37.6 -149 c 0
 45 -114 60.6 -76 73.3 -43 c 0
 109.4 54.9 142.6 155 154 204 c 0
 158.4 223 167.5 246 189.2 246 c 0
 213.7 246 212.2 226 205.9 192 c 0
 196.9 144.3 184.6 24.4 181.7 -46 c 0
 180.8 -81 181.3 -110 173 -149 c 0
 161.1 -205 118.4 -224 89.3 -224 c 0
284 376 m 0
 284 337 250 305 210 305 c 0
 170 305 138 335 138 374 c 0
 138 412 172 444 212 444 c 0
 252 444 284 414 284 376 c 0
EndSplineSet
EndChar

StartChar: cent
Encoding: 162 162 253
Width: 540
GlyphClass: 2
Flags: MW
LayerCount: 2
Fore
SplineSet
377.8 584 m 1
 409.7 584 l 1
 395 514.7 l 1
 487.6 509.9 522.1 454 513 411 c 0
 506.4 380 479.5 355 449.4 355 c 0
 419.3 355 398.2 375 401.1 402 c 0
 404.1 426.3 401.5 454.7 384.8 466.9 c 1
 314.6 136.5 l 1
 324 133.5 334.1 132 344.7 132 c 0
 372 132 408.1 152 453.6 189 c 1
 463.9 189 461.7 170 459.2 158 c 1
 416.5 108.4 352.3 69.4 298.8 62.2 c 1
 283 -12 l 1
 251.1 -12 l 1
 266.7 61.3 l 1
 208.5 63.5 172.9 78.9 146.1 113 c 0
 117.4 149.5 107.9 207.4 121.6 272 c 0
 151.3 411.6 257.8 504 362.9 514.1 c 1
 377.8 584 l 1
285.9 151.8 m 1
 354 472.2 l 1
 309.1 464.9 273.1 410.1 251.2 307 c 0
 235.6 233.6 251.8 179.2 285.9 151.8 c 1
EndSplineSet
EndChar

StartChar: sterling
Encoding: 163 163 254
Width: 540
GlyphClass: 2
Flags: MW
LayerCount: 2
Fore
SplineSet
143.9 292 m 2
 122.3 292 118.4 296 119.9 303 c 2
 123.3 319 l 2
 125.4 329 137.9 339 171.7 339 c 2
 200.9 339 l 1
 206 363 l 2
 226.4 459 271.5 512 328.7 560 c 1
 375.1 597 431.3 614 482.1 614 c 0
 503.7 614 569.4 609 559.4 562 c 0
 552.2 528 525.7 505 493.7 505 c 0
 476.8 505 464.3 517 454.1 531 c 0
 442.7 548 449.2 574 428.5 574 c 0
 384.3 574 357.7 502 339 414 c 2
 323.1 339 l 1
 407.7 339 l 2
 425.6 339 435.8 334 434.5 328 c 2
 431.1 312 l 2
 428.1 298 400.5 292 381.7 292 c 2
 312.9 292 l 1
 286.6 185.4 230.6 131.4 189.6 101 c 1
 295.1 100.3 293.4 56 341 56 c 0
 369.2 56 414 77 445.9 112 c 1
 465.3 97 l 1
 436.4 45 379.9 -13 309.4 -13 c 0
 237 -13 193.8 49 152.4 49 c 0
 119.5 49 113.7 35 110.9 22 c 0
 104.7 -7 76.7 -20 58.8 -20 c 0
 43.8 -20 29.8 -6 32.6 7 c 0
 38.5 34.8 65.4 59.9 96.3 76 c 1
 120.6 92.8 155.8 126.8 189.2 284 c 2
 190.9 292 l 1
 143.9 292 l 2
EndSplineSet
EndChar

StartChar: currency
Encoding: 164 164 255
Width: 463
GlyphClass: 2
Flags: MW
LayerCount: 2
Fore
SplineSet
173.9 300 m 0
 159 230 194.7 177 256.8 177 c 0
 319.8 177 377.3 231 391.8 299 c 0
 407.1 371 365.4 422 310.8 422 c 0
 249.7 422 188.6 369 173.9 300 c 0
245.1 122 m 0
 209.4 122 180.4 131 156.5 147 c 1
 139.5 129 114.2 103 100.9 89 c 1
 56.1 148 l 1
 115.1 191 l 1
 96.2 226 89.5 261 97.6 299 c 0
 105.9 338 127.6 374 162.3 409 c 1
 149.8 421 133.5 437 122.2 450 c 1
 186 507 l 1
 221.3 452 l 1
 252.9 468 285.8 477 322.5 477 c 0
 360.1 477 386.1 467 410 451 c 1
 429.1 470 457.6 498 470.9 512 c 1
 512.5 451 l 1
 451.2 406 l 1
 470.3 372 476.1 337 468 299 c 0
 460.3 263 438.8 228 406.9 193 c 1
 419.2 180 435.1 162 446.4 149 c 1
 383.3 91 l 1
 347.7 149 l 1
 315.9 132 281.8 122 245.1 122 c 0
EndSplineSet
EndChar

StartChar: yen
Encoding: 165 165 256
Width: 540
GlyphClass: 2
Flags: MW
LayerCount: 2
Fore
SplineSet
492.5 177 m 1
 483.6 135 l 1
 362.4 135 l 1
 361.5 130.7 360.5 126.3 359.6 122 c 0
 342 39 357 35 431.6 32 c 1
 436 26 431.3 4 424.4 -2 c 1
 377.6 -1 336.6 0 280.1 0 c 0
 217.8 0 166.2 -1 119.9 -2 c 1
 115.5 4 120.2 26 127.1 32 c 1
 202.9 35 219.8 39 237.4 122 c 2
 240.2 135 l 1
 126.4 135 l 1
 135.3 177 l 1
 249.1 177 l 1
 263.5 245 l 1
 149.8 245 l 1
 158.7 287 l 1
 270 287 l 1
 269.5 297.4 266.3 309.2 259.5 332 c 2
 211.4 492 l 1
 197.7 542.7 178.3 565 139.5 568 c 1
 135.1 574 138.9 596 145.8 602 c 1
 173.8 601 237.4 600 274.1 600 c 0
 311.7 600 348.6 601 386.4 602 c 1
 390.8 596 386.1 574 379.2 568 c 1
 325.9 565 322.4 555.2 328.1 531 c 2
 365.4 373 l 2
 371.2 348.5 379.1 347.3 393.1 370 c 2
 492.6 531 l 2
 509.8 559.9 494.5 565 453.4 568 c 1
 449 574 453.8 596 460.7 602 c 1
 498.1 601 533.6 600 555.2 600 c 0
 576.8 600 605.2 601 633.6 602 c 1
 638 596 633.3 574 626.4 568 c 1
 583.5 563.7 557.9 549.3 532.5 510 c 2
 425.2 351 l 2
 406 322.6 400.7 311.6 394.8 287 c 1
 515.9 287 l 1
 507 245 l 1
 385.7 245 l 1
 371.3 177 l 1
 492.5 177 l 1
EndSplineSet
EndChar

StartChar: brokenbar
Encoding: 166 166 257
Width: 220
GlyphClass: 2
Flags: MW
LayerCount: 2
Fore
SplineSet
284.2 674 m 1
 207.2 312 l 1
 150.8 312 l 1
 227.8 674 l 1
 284.2 674 l 1
175.2 161 m 1
 98.2 -201 l 1
 41.8 -201 l 1
 118.8 161 l 1
 175.2 161 l 1
EndSplineSet
EndChar

StartChar: section
Encoding: 167 167 258
Width: 466
GlyphClass: 2
Flags: MW
LayerCount: 2
Fore
SplineSet
394 -26 m 0
 379.3 -95 317.5 -169 188.7 -169 c 0
 120.1 -169 37.4 -125 56.1 -37 c 0
 61.6 -11 95.6 12 116.3 12 c 0
 155.8 12 167.9 -28 165.6 -39 c 0
 160.1 -65 143.4 -73 140.4 -87 c 0
 138.9 -94 139.8 -134 194.3 -134 c 0
 236.6 -134 274.9 -100 289.1 -33 c 0
 299.9 18 244.8 55 202.8 83 c 0
 111.6 145 85.1 197 101.9 276 c 0
 112.8 327.4 153.4 370.6 193.1 402.1 c 1
 179.7 428 173.4 462 182.3 504 c 0
 189.3 537 217 583 254.4 613 c 0
 291.8 643 339.2 658 384.3 658 c 0
 476.4 658 535.5 613 517.4 528 c 0
 511.4 500 475.7 478 454.1 478 c 0
 413.7 478 406.2 518 408.5 529 c 0
 415.1 560 428.5 561 431.9 577 c 0
 436.6 599 429.5 623 380.6 623 c 0
 327 623 295.4 576 284.3 524 c 0
 274.3 477 298.7 459 337.3 437 c 0
 430.9 382 498.5 342 472.4 219 c 0
 460.7 164.2 417.7 120 375.5 88.3 c 1
 395.1 53.2 402.4 13.7 394 -26 c 0
207.1 380.8 m 1
 195.4 364.3 188.9 344.7 184.5 324 c 0
 174.1 275 192.5 229 284.6 176 c 0
 315.8 158.6 341.8 136.2 360.9 110.8 c 1
 376.1 127.6 384.9 147.8 389.8 171 c 0
 407.7 255 353.3 291 241.2 352 c 0
 229.3 358.6 217.3 368.3 207.1 380.8 c 1
EndSplineSet
EndChar

StartChar: dieresis
Encoding: 168 168 259
Width: 410
GlyphClass: 2
Flags: MW
LayerCount: 2
Fore
SplineSet
354.7 573 m 0
 356.9 604 381.2 628 410.3 628 c 0
 438.5 628 460.3 604 458.1 573 c 0
 455.9 543 430.7 519 402.5 519 c 0
 373.4 519 352.5 543 354.7 573 c 0
179.8 573 m 0
 182 604 207.3 628 235.5 628 c 0
 264.6 628 285.4 604 283.2 573 c 0
 281 543 256.8 519 227.7 519 c 0
 199.5 519 177.6 543 179.8 573 c 0
EndSplineSet
EndChar

StartChar: copyright
Encoding: 169 169 260
Width: 633
GlyphClass: 2
Flags: MW
LayerCount: 2
Fore
SplineSet
466.1 218 m 1
 442.8 188 400.7 158 354.6 158 c 0
 318.9 158 280.7 173 262.9 200 c 0
 243.7 229 239.6 267 247.9 306 c 0
 265.1 387 336.7 450 411 450 c 0
 470.2 450 482.4 436 498 430 c 1
 496.3 400 495.2 382 491.5 360 c 1
 487.1 357 480.6 357 474 357 c 1
 461.9 402 453.8 417 413.4 417 c 0
 385.2 417 347.9 392 329.4 305 c 0
 314.5 235 327.4 198 375.3 198 c 0
 418.5 198 440.7 218 453.3 233 c 1
 461.1 230 463.6 224 466.1 218 c 1
309.9 23 m 0
 162.3 23 71.2 151 104.1 306 c 0
 137.3 462 283.4 588 430 588 c 0
 576.6 588 668.4 462 635.2 306 c 0
 602 150 456.5 23 309.9 23 c 0
423.4 557 m 0
 291.8 557 162.7 445 133.2 306 c 0
 103.9 168 185.1 55 316.7 55 c 0
 446.4 55 576.5 167 606 306 c 0
 635.5 445 554.1 557 423.4 557 c 0
EndSplineSet
EndChar

StartChar: ordfeminine
Encoding: 170 170 261
Width: 365
GlyphClass: 2
Flags: MW
LayerCount: 2
Fore
SplineSet
397 640 m 0
 405 640 410 635 410 626 c 0
 410 615 402 592 397 567 c 2
 371 443 l 2
 369 434 366 424 366 416 c 0
 366 409 368 405 373 405 c 0
 379 405 401 415 417 434 c 1
 426 434 433 423 435 417 c 1
 406 380 367 359 323 359 c 0
 304 359 297 366 292 379 c 0
 291 383 290 389 290 395 c 0
 290 406 292 419 295 432 c 2
 298 444 l 1
 296 445 l 1
 258 389 219 359 192 359 c 0
 146 359 124 396 124 439 c 0
 124 486 143 528 171 564 c 0
 206 608 256 642 309 642 c 0
 334 642 333 640 350 638 c 0
 353 637 356 637 360 637 c 0
 372 637 385 640 397 640 c 0
307 507 m 1
 323 547 327 603 327 603 c 1
 326 611 319 615 306 615 c 0
 279 615 253 593 235 563 c 0
 215 530 203 488 203 452 c 0
 203 433 211 418 231 418 c 0
 251 418 276 450 307 507 c 1
EndSplineSet
EndChar

StartChar: guillemotleft
Encoding: 171 171 262
Width: 555
GlyphClass: 2
Flags: MW
LayerCount: 2
Fore
SplineSet
137.3 207 m 1
 140.7 223 l 1
 217.5 284.1 268.3 323.3 352.8 407 c 1
 361.1 404 372.8 395 375.4 385 c 1
 322.2 309.5 278.9 254 241.5 215 c 1
 262.3 176 282 120.5 303.1 45 c 1
 296.3 35 280.8 26 271.2 23 c 1
 222.3 106.7 188.1 145.9 137.3 207 c 1
314 207 m 1
 317.4 223 l 1
 394.2 284.1 445 323.3 529.5 407 c 1
 537.8 404 549.5 395 552.1 385 c 1
 498.9 309.5 455.6 254 418.2 215 c 1
 439.1 176 458.7 120.5 479.8 45 c 1
 473 35 457.5 26 447.9 23 c 1
 399 106.7 364.8 145.9 314 207 c 1
EndSplineSet
EndChar

StartChar: logicalnot
Encoding: 172 172 263
Width: 560
GlyphClass: 2
Flags: MW
LayerCount: 2
Fore
SplineSet
476.6 133 m 1
 522.1 347 l 1
 109.4 347 l 1
 120.9 401 l 1
 603.1 401 l 1
 546.1 133 l 1
 476.6 133 l 1
EndSplineSet
EndChar

StartChar: registered
Encoding: 174 174 265
Width: 633
GlyphClass: 2
Flags: MW
LayerCount: 2
Fore
SplineSet
483.7 372 m 0
 472.6 320 414 296 414 296 c 1
 441.7 214 l 2
 449.2 192 457.7 183 472.7 183 c 1
 469.9 170 l 1
 459.9 167 452.2 166 447.5 166 c 0
 420.2 166 397.4 178 391.6 204 c 1
 363.1 282 l 1
 359.8 284 343.1 285 338.4 285 c 1
 319 194 l 2
 317.9 189 317.5 187 324.1 187 c 2
 335.4 187 l 2
 342.9 187 345.3 185 344.4 181 c 2
 341.5 167 l 1
 341.5 167 291.2 169 278 169 c 2
 224.9 167 l 1
 227.9 181 l 2
 228.8 185 232.9 187 239.5 187 c 2
 250.8 187 l 2
 256.4 187 258.5 188 260 195 c 2
 306.3 413 l 2
 307.4 418 307.7 424 304.9 424 c 2
 289.7 423 l 2
 283.1 423 280.6 425 281.5 429 c 2
 284.3 442 l 1
 304.7 445 340.8 447 410.4 447 c 0
 480.9 447 490.1 402 483.7 372 c 0
425.5 372 m 0
 432.7 406 426.9 427 394.9 427 c 0
 384.6 427 373 426 367.9 424 c 1
 343.5 309 l 1
 372.6 309 412.3 310 425.5 372 c 0
309.9 23 m 0
 162.3 23 71.2 151 104.1 306 c 0
 137.3 462 283.4 588 430 588 c 0
 576.6 588 668.4 462 635.2 306 c 0
 602 150 456.5 23 309.9 23 c 0
423.4 557 m 0
 291.8 557 162.7 445 133.2 306 c 0
 103.9 168 185.1 55 316.7 55 c 0
 446.4 55 576.5 167 606 306 c 0
 635.5 445 554.1 557 423.4 557 c 0
EndSplineSet
EndChar

StartChar: macron
Encoding: 175 175 266
Width: 397
GlyphClass: 2
Flags: MW
LayerCount: 2
Fore
SplineSet
409 529 m 2
 164 529 l 2
 157 529 154 534 154 540 c 0
 154 541 154 542 155 544 c 0
 157 556 170 573 182 573 c 2
 426 573 l 2
 435 573 438 567 438 562 c 2
 438 559 l 1
 436 547 421 529 409 529 c 2
EndSplineSet
EndChar

StartChar: degree
Encoding: 176 176 267
Width: 255
GlyphClass: 2
Flags: MW
LayerCount: 2
Fore
SplineSet
303 571 m 3
 303 595 291 620 260 620 c 3
 219 620 189 583 189 544 c 3
 189 519 203 496 232 496 c 3
 273 496 303 532 303 571 c 3
265 658 m 3
 314 658 348 622 348 576 c 3
 348 512 285 458 227 458 c 3
 178 458 144 494 144 540 c 3
 144 604 207 658 265 658 c 3
EndSplineSet
EndChar

StartChar: uni00B2
Encoding: 178 178 269
Width: 340
GlyphClass: 2
Flags: MW
LayerCount: 2
Fore
SplineSet
183 626 m 0
 189 654 249.5 709 323.8 709 c 0
 349.2 709 381.3 707.5 399.8 688.5 c 0
 416.1 672.5 420.2 654 413.4 622 c 0
 408.2 597.7 398.3 580 372.1 556 c 0
 355.2 540.5 328.5 518.8 308.2 503 c 2
 260.1 465.5 l 1
 239.5 450.8 229.2 434.3 225 421 c 1
 302.1 421 l 2
 331.2 421 360.6 453 377.3 483 c 1
 387.6 483 398.5 481 402.3 477 c 1
 390.3 438 365.7 393 351.1 364 c 1
 129.2 364 l 1
 138.1 405.8 169.6 444.9 209.3 478.5 c 1
 275.8 532.5 l 2
 305.8 556.8 322.1 586.1 326.8 608 c 0
 331.9 631.8 332 651 327.4 664 c 0
 323.8 674.1 312.1 679 304.3 679 c 0
 283.6 679 272.2 674 264.7 661 c 0
 262.8 657.4 259.8 644.3 258.4 637.8 c 0
 257.3 632.8 256.4 627.6 255.4 623 c 0
 254.5 618.5 253.5 614.6 252.4 612 c 0
 245.7 595.6 225.8 583 206.1 583 c 0
 180.8 583 177.6 600.6 183 626 c 0
EndSplineSet
EndChar

StartChar: uni00B3
Encoding: 179 179 270
Width: 340
GlyphClass: 2
Flags: MW
LayerCount: 2
Fore
SplineSet
231.3 389 m 0
 267.4 389 313.2 440 313.2 489.2 c 0
 313.2 520.8 286.5 530 252.8 530 c 0
 244.3 530 232.9 529 220 526 c 1
 226.4 556 l 1
 270.2 562.2 331 594.9 331 647.1 c 0
 331 668.2 317.1 679 299.5 679 c 0
 278.8 679 253.8 663 247 640 c 1
 244 626 228.2 600 200.9 600 c 0
 178.7 600 175.2 613 175.2 621.5 c 0
 175.2 624.5 175.7 627 175.9 628 c 0
 179.9 647 225.1 709 321.9 709 c 0
 377 709 412.9 687.1 412.9 652 c 0
 412.9 617.4 386.4 591.5 352.7 571 c 0
 351.9 570.3 351.1 569.3 351.1 568.3 c 0
 351.1 567.8 351.3 567.3 351.9 567 c 0
 379.5 557.7 405 541.8 405 504.1 c 0
 405 455 376.6 420.9 342.5 397.2 c 0
 307.2 372.7 261.1 359 215.5 359 c 0
 171.7 359 118.8 367.7 118.8 402.9 c 0
 118.8 424 138 445 161.4 445 c 0
 187.7 445 191.2 417 195.9 408 c 0
 201.5 399 211.6 389 231.3 389 c 0
EndSplineSet
EndChar

StartChar: mu
Encoding: 181 181 272
Width: 589
GlyphClass: 2
Flags: MW
AnchorPoint: "ogonek" 532.2 19 basechar 0
LayerCount: 2
Fore
SplineSet
380.7 48.5 m 1
 372.9 48 l 1
 327.3 15 296.7 -10 245 -10 c 0
 230 -10 215.1 -9 203.2 -3 c 1
 198.3 -35 188.6 -67 188.1 -96 c 0
 188.2 -122 187.7 -151 184.1 -168 c 0
 175 -211 141.4 -232 111.3 -232 c 0
 92.5 -232 48.2 -206 57.3 -163 c 0
 61.8 -142 69.7 -118 79 -92 c 0
 88.3 -66 99.4 -40 107.1 -4 c 0
 110.1 10 111.6 26 114.9 46 c 1
 117.6 72 115.7 111.5 121.1 137 c 2
 160.6 323 l 2
 165.9 348 173.9 434 173.9 434 c 1
 306.4 447 l 1
 306.4 447 293.9 375 287.1 343 c 2
 248.2 160 l 2
 234.8 97 233 53 265.9 53 c 0
 304.4 53 355.5 68 382.6 98 c 1
 454 434 l 1
 579.2 448 l 1
 511 127 l 2
 500.6 78 506.1 60 526.8 60 c 0
 544.7 60 555 64 569.3 74 c 1
 578.5 64 582.7 58 580.2 46 c 1
 538 11 493.4 -10 441.4 -10 c 0
 400 -10 378.5 8 380.7 48.5 c 1
EndSplineSet
EndChar

StartChar: paragraph
Encoding: 182 182 273
Width: 602
GlyphClass: 2
Flags: MW
LayerCount: 2
Fore
SplineSet
370 -207 m 0
 399 -207 406 -187 414 -145 c 2
 538 556 l 2
 540 570 541 581 541 589 c 0
 541 614 531 615 519 616 c 1
 486 616 480 584 475 553 c 2
 352 -143 l 2
 350 -153 349 -164 349 -174 c 0
 349 -192 354 -207 370 -207 c 0
473 -144 m 2
 470 -159 469 -171 469 -179 c 0
 469 -202 479 -205 501 -206 c 1
 531 -206 l 2
 535 -206 536 -209 535 -213 c 2
 531 -234 l 1
 203 -234 l 1
 207 -213 l 2
 208 -208 210 -206 214 -206 c 2
 243 -206 l 1
 276 -205 284 -195 293 -143 c 2
 358 227 l 1
 343 220 311 215 279 215 c 0
 206 215 100 251 100 385 c 0
 100 402 101 420 104 439 c 0
 126 562 211 646 344 646 c 0
 419 646 479 641 506 641 c 0
 541 641 576 644 576 644 c 1
 687 646 l 1
 683 625 l 2
 682 621 680 618 676 618 c 2
 646 618 l 2
 611 618 604 602 596 556 c 2
 473 -144 l 2
EndSplineSet
EndChar

StartChar: periodcentered
Encoding: 183 183 274
Width: 322
GlyphClass: 2
Flags: MW
LayerCount: 2
Fore
SplineSet
217 177 m 0
 168 177 135 216 135 258 c 0
 135 300 173 339 217 339 c 0
 258 339 299 304 299 258 c 0
 299 215 263 177 217 177 c 0
EndSplineSet
EndChar

StartChar: uni00B9
Encoding: 185 185 276
Width: 340
GlyphClass: 2
Flags: MW
LayerCount: 2
Fore
SplineSet
262 640 m 0
 249.8 640 230.7 634 205.3 625 c 1
 199.2 631.1 200.3 646 202.9 658 c 1
 250.7 675 296.4 691 343.6 714 c 0
 349.2 716.9 369.7 719 373.7 714 c 1
 317.3 449 l 2
 306.5 398 325.6 395 357.1 393 c 1
 359.2 385 355.9 370 350.7 363 c 1
 322.7 364 294.2 364 257.9 364 c 0
 224.7 364 178 364 149.6 363 c 1
 147.1 369 149.6 385 156 393 c 1
 194 395 223.8 398 234.6 449 c 2
 266.5 599 l 2
 273.3 631 273.3 640 262 640 c 0
EndSplineSet
EndChar

StartChar: ordmasculine
Encoding: 186 186 277
Width: 368
GlyphClass: 2
Flags: MW
LayerCount: 2
Fore
SplineSet
99.599609375 484 m 0
 117.700195312 569 193.599609375 621 266.900390625 621 c 0
 293.799804688 621 314.900390625 617.900390625 334.700195312 604 c 0
 369.5 579.5 383.5 532.700195312 374.400390625 490 c 0
 359.900390625 422 300.299804688 358 206.299804688 358 c 0
 123.599609375 358 84.2998046875 412 99.599609375 484 c 0
255.099609375 592 m 0
 208.099609375 592 195.900390625 548 184.400390625 494 c 0
 174 445 167.200195312 391 223.599609375 391 c 0
 249 391 273.900390625 402 289.200195312 474 c 0
 306.200195312 554 302.099609375 592 255.099609375 592 c 0
EndSplineSet
EndChar

StartChar: guillemotright
Encoding: 187 187 278
Width: 555
GlyphClass: 2
Flags: MW
LayerCount: 2
Fore
SplineSet
506.7 223 m 1
 503.3 207 l 1
 426.5 145.9 375.7 106.7 291.2 23 c 1
 282.9 26 271.2 35 268.6 45 c 1
 321.8 120.5 365.1 176 402.5 215 c 1
 381.7 254 362 309.5 340.9 385 c 1
 347.7 395 363.2 404 372.8 407 c 1
 421.7 323.3 455.9 284.1 506.7 223 c 1
330 223 m 1
 326.5 207 l 1
 249.7 145.9 199 106.7 114.5 23 c 1
 106.2 26 94.5 35 91.9 45 c 1
 145.1 120.5 188.4 176 225.8 215 c 1
 204.9 254 185.3 309.5 164.2 385 c 1
 171 395 186.5 404 196.1 407 c 1
 245 323.3 279.2 284.1 330 223 c 1
EndSplineSet
EndChar

StartChar: onequarter
Encoding: 188 188 279
Width: 700
GlyphClass: 2
Flags: MW
LayerCount: 2
Fore
SplineSet
658.6 601 m 1
 714.5 588 l 1
 163.4 -67 l 1
 108.5 -54 l 1
 658.6 601 l 1
594.1 -50 m 2
 598.6 -29 l 1
 652.2 -29 l 1
 663.9 13 l 1
 607.5 13 l 1
 649.2 209 l 2
 651.1 218 644.7 219 640 219 c 2
 593 219 l 1
 542.3 162 430.9 49 374.6 -17 c 1
 383.3 -29 l 1
 520.6 -29 l 1
 516.1 -50 l 2
 505.3 -101 475.5 -104 437.5 -106 c 1
 431.1 -114 428.6 -130 431.1 -136 c 1
 459.5 -135 488.3 -135 521.5 -135 c 0
 561 -135 594.8 -135 622.8 -136 c 1
 628 -129 631.3 -114 629.2 -106 c 1
 597.7 -104 583.3 -101 594.1 -50 c 2
556.4 139.7 m 1
 547.4 97.5 538.5 55.2 529.5 13 c 1
 440.2 13 l 1
 556.4 139.7 l 1
EndSplineSet
Refer: 276 185 N 1 0 0 1 -3 -49 2
LCarets2: 2 0 0
EndChar

StartChar: onehalf
Encoding: 189 189 280
Width: 700
GlyphClass: 2
Flags: MW
LayerCount: 2
Fore
SplineSet
658.6 601 m 1
 714.5 588 l 1
 163.4 -67 l 1
 108.5 -54 l 1
 658.6 601 l 1
EndSplineSet
Refer: 739 8322 N 1 0 0 1 438 86 2
Refer: 276 185 N 1 0 0 1 -1 -49 2
LCarets2: 2 0 0
EndChar

StartChar: threequarters
Encoding: 190 190 281
Width: 700
GlyphClass: 2
Flags: MW
LayerCount: 2
Fore
SplineSet
658.6 601 m 1
 714.5 588 l 1
 163.4 -67 l 1
 108.5 -54 l 1
 658.6 601 l 1
598.1 -48 m 2
 602.6 -27 l 1
 656.2 -27 l 1
 667.9 15 l 1
 611.5 15 l 1
 653.2 211 l 2
 655.1 220 648.7 221 644 221 c 2
 597 221 l 1
 546.3 164 434.9 51 378.6 -15 c 1
 387.3 -27 l 1
 524.6 -27 l 1
 520.1 -48 l 2
 509.3 -99 479.5 -102 441.5 -104 c 1
 435.1 -112 432.6 -128 435.1 -134 c 1
 463.5 -133 492.3 -133 525.5 -133 c 0
 565 -133 598.8 -133 626.8 -134 c 1
 632 -127 635.3 -112 633.2 -104 c 1
 601.7 -102 587.3 -99 598.1 -48 c 2
560.4 141.7 m 1
 551.4 99.5 542.5 57.2 533.5 15 c 1
 444.2 15 l 1
 560.4 141.7 l 1
EndSplineSet
Refer: 740 8323 N 1 0 0 1 118 479 2
LCarets2: 2 0 0
EndChar

StartChar: questiondown
Encoding: 191 191 282
Width: 430
GlyphClass: 2
Flags: MW
LayerCount: 2
Fore
SplineSet
268.4 -140 m 0
 272.9 -119 265.7 -113 271.4 -86 c 0
 276.7 -61 301.8 -45 330 -45 c 0
 352.6 -45 379.3 -65 371.2 -103 c 0
 363.8 -138 341 -161 303.1 -189 c 0
 269.6 -214 223.3 -228 166 -228 c 0
 58.8 -228 5.1 -167 24.7 -75 c 0
 40.4 -1 109.4 45 164.3 82 c 0
 194.9 102 233.5 129 248.8 201 c 2
 251.5 214 l 2
 256.8 239 263 248 289.8 248 c 0
 314.7 248 317.3 236 312.6 214 c 2
 309.5 199 l 2
 300.8 158 288.7 101 208.1 36 c 0
 168.6 5 141.9 -32 131.3 -82 c 0
 119 -140 130.3 -192 183.1 -192 c 0
 224.5 -192 262.4 -168 268.4 -140 c 0
391.3 372 m 0
 383 333 344.3 301 306.7 301 c 0
 269.1 301 245.4 331 253.7 370 c 0
 261.8 408 300.5 440 338.1 440 c 0
 375.7 440 399.4 410 391.3 372 c 0
EndSplineSet
EndChar

StartChar: Agrave
Encoding: 192 192 283
Width: 710
GlyphClass: 2
Flags: MW
LayerCount: 2
Fore
SplineSet
317 283 m 2
 463 283 l 1
 430 520 l 1
 424 520 l 1
 295 296 l 2
 289 286 296 283 317 283 c 2
174 79 m 2
 151 38 195 35 231 32 c 1
 236 26 231 4 224 -2 c 1
 189 -1 136 0 97 0 c 0
 60 0 42 -1 6 -2 c 1
 1 4 6 26 13 32 c 1
 55 35 85 40 122 102 c 2
 430 614 l 1
 464 614 528 649 544 658 c 1
 631 86 l 2
 638 35 670 36 707 32 c 1
 712 26 707 4 700 -2 c 1
 665 -1 611 0 572 0 c 0
 535 0 444 -1 408 -2 c 1
 403 4 407 26 414 32 c 1
 460 35 498 31 493 72 c 2
 471 235 l 1
 289 235 l 2
 266 235 259 231 252 218 c 2
 174 79 l 2
EndSplineSet
Refer: 567 7900 N 1 0 0 1 133 -126 2
Position2: "'cpsp' Versalabstaende 1" dx=2 dy=0 dh=5 dv=0
EndChar

StartChar: Adieresis.alt
Encoding: 1114112 -1 287
Width: 710
GlyphClass: 2
Flags: MW
LayerCount: 2
Fore
SplineSet
287 697 m 0
 287 729 311 754 343 754 c 0
 375 754 399 729 399 697 c 0
 399 665 375 641 343 641 c 0
 311 641 287 665 287 697 c 0
604 697 m 0
 604 729 629 754 661 754 c 0
 693 754 716 729 716 697 c 0
 716 665 693 641 661 641 c 0
 629 641 604 665 604 697 c 0
EndSplineSet
Refer: 25 65 N 1 0 0 1 0 0 2
Position2: "'cpsp' Versalabstaende 1" dx=2 dy=0 dh=5 dv=0
EndChar

StartChar: AE
Encoding: 198 198 289
Width: 956
GlyphClass: 2
Flags: MW
AnchorPoint: "above" 768.7 850 basechar 0
AnchorPoint: "below" 610.6 -110 basechar 0
AnchorPoint: "cedilla" 634.9 4 basechar 0
LayerCount: 2
Fore
SplineSet
133.7 102 m 2
 483.5 562 l 2
 511 598.1 488.3 613 442.3 613 c 0
 436.3 613 434.9 616 435.8 620 c 2
 441.1 645 l 1
 443.5 647 l 1
 650.1 645 l 1
 948.1 645 l 2
 972.1 645 980.3 646 997.9 649 c 0
 1000.9 649 1001.7 648 1001.3 646 c 0
 1001.6 638 986.2 542 982.5 501 c 1
 971.8 496.3 950.4 494.2 938.4 496 c 1
 931.1 565 918.2 603 843.2 603 c 2
 758.2 603 l 2
 734.2 603 711.9 578 706.8 554 c 2
 667 367 l 1
 748 367 l 2
 815 367 837.5 374 852.2 429 c 1
 859.5 435 890.5 435 895.2 429 c 1
 887.8 399 882.1 377 874.9 343 c 0
 867.7 309 864.6 290 858.2 255 c 1
 850.9 249 819.9 249 815.2 255 c 1
 821.8 300 806.4 317 737.4 317 c 2
 656.4 317 l 1
 608.1 90 l 2
 602.4 63 616.9 42 638.9 42 c 2
 739.9 42 l 2
 815.9 42 872.8 98 908.1 170 c 1
 921.9 173.2 943 170.9 952.1 165 c 1
 933.3 114 914.2 48 889.6 -2 c 1
 889.6 -2 800 0 752 0 c 2
 516 0 l 1
 516 0 410.8 -1 361.6 -2 c 1
 356.9 4 361.5 26 368.8 32 c 1
 439.4 35 457.3 39 474.9 122 c 2
 505.5 266 l 1
 327.5 266 l 1
 186.8 79 l 2
 157.4 40 208.7 34.6 245.8 32 c 1
 250.5 26 245.9 4 238.6 -2 c 1
 201.8 -1 147 0 106 0 c 0
 67 0 48.8 -1 11.6 -2 c 1
 6.9 4 11.5 26 18.8 32 c 1
 62.9 35 89.6 44 133.7 102 c 2
364.2 316 m 1
 516.2 316 l 1
 564.8 545 l 2
 570.3 571 559.9 578 536.1 546 c 2
 364.2 316 l 1
EndSplineSet
Position2: "'cpsp' Versalabstaende 1" dx=2 dy=0 dh=5 dv=1
EndChar

StartChar: Ccedilla
Encoding: 199 199 290
Width: 675
GlyphClass: 2
Flags: MW
LayerCount: 2
Fore
SplineSet
286.4 -101 m 1
 281.3 -95 l 1
 336.5 -8.7 l 1
 263.3 -4 205 14.1 161 53 c 0
 95 111 78 221 96 315 c 0
 139 535 321 658 509 658 c 0
 627 658 663 618 711 613 c 1
 709 558 707 510 702 458 c 1
 690 452 670 449 659 453 c 1
 651 539 623 616 491 616 c 0
 377 616 275 489 245 334 c 0
 215 178 277 42 388 42 c 0
 455 42 538 68 621 146 c 1
 632 146 646 134 649 125 c 1
 566 36 471 -10 378 -10 c 0
 375.7 -10 373.4 -10 371.1 -10 c 1
 353.9 -41 l 1
 398 -50.1 442.6 -70.5 434.9 -125.1 c 0
 427.8 -175.3 370.2 -215 305.4 -215 c 0
 273.4 -215 267.3 -209 243.8 -198 c 1
 245.2 -188 247.7 -176.2 257.4 -172 c 1
 283 -182 293.5 -186 313.5 -186 c 0
 343.5 -186 365.4 -172 369.2 -145 c 0
 374.5 -107.4 322.1 -103 286.4 -101 c 1
EndSplineSet
Position2: "'cpsp' Versalabstaende 1" dx=2 dy=0 dh=5 dv=0
EndChar

StartChar: Egrave
Encoding: 200 200 291
Width: 578
GlyphClass: 2
Flags: MW
LayerCount: 2
Fore
SplineSet
377 367 m 2
 441 367 462 374 476 429 c 1
 483 435 512 435 517 429 c 1
 510 399 506 377 499 343 c 0
 492 309 489 290 483 255 c 1
 476 249 447 249 442 255 c 1
 448 300 433 317 367 317 c 2
 289 317 l 1
 245 90 l 2
 240 63 254 42 275 42 c 2
 372 42 l 2
 445 42 499 98 532 170 c 1
 545 173 565 171 574 165 c 1
 556 114 539 48 516 -2 c 1
 516 -2 430 0 384 0 c 2
 158 0 l 1
 158 0 56 -1 9 -2 c 1
 4 4 9 26 16 32 c 1
 84 35 101 39 117 122 c 2
 194 522 l 2
 210 605 196 610 129 613 c 1
 124 619 128 641 135 647 c 1
 183 646 283 645 283 645 c 1
 566 645 l 2
 589 645 597 646 614 649 c 0
 617 649 617 648 617 646 c 0
 617 638 603 542 600 501 c 1
 590 496 570 494 558 496 c 1
 550 565 538 603 466 603 c 2
 384 603 l 2
 361 603 340 578 335 554 c 2
 299 367 l 1
 377 367 l 2
EndSplineSet
Refer: 567 7900 N 1 0 0 1 102 -126 2
Position2: "'cpsp' Versalabstaende 1" dx=2 dy=0 dh=5 dv=0
EndChar

StartChar: Igrave
Encoding: 204 204 295
Width: 351
GlyphClass: 2
Flags: MW
LayerCount: 2
Fore
SplineSet
211 523 m 2
 227 606 200 610 148 613 c 1
 140 619 144 641 155 647 c 1
 193 646 265 645 303 645 c 0
 341 645 410 646 449 647 c 1
 457 641 453 619 442 613 c 1
 389 610 361 606 345 523 c 2
 267 122 l 2
 251 39 277 35 329 32 c 1
 337 26 334 4 323 -2 c 1
 285 -1 215 0 177 0 c 0
 139 0 68 -1 29 -2 c 1
 21 4 25 26 36 32 c 1
 89 35 117 39 133 122 c 2
 211 523 l 2
EndSplineSet
Refer: 567 7900 N 1 0 0 1 -18 -126 2
Position2: "'cpsp' Versalabstaende 1" dx=2 dy=0 dh=5 dv=0
EndChar

StartChar: Eth
Encoding: 208 208 299
Width: 698
GlyphClass: 2
Flags: MW
LayerCount: 2
Fore
SplineSet
267 119 m 2
 264.6 106.9 263.4 96.6 263.4 87.8 c 0
 263.4 48.1 288.1 40 343 40 c 0
 460.6 40 584.6 204.3 584.6 426.3 c 0
 584.6 524.7 549.4 604 420 604 c 0
 385 604 357 584 346 529 c 2
 307 326.4 l 1
 346.1 327 383.9 328.2 418 330 c 1
 408 280 l 1
 374.4 281.8 337.1 283 298.7 283.6 c 1
 267 119 l 2
177 0 m 0
 139 0 29 -2 29 -2 c 1
 26.1 0.2 24.8 4.4 24.8 9.2 c 0
 24.8 17.8 29 28.2 36 32 c 1
 89 35 117 39 133 122 c 2
 164.3 283.2 l 1
 133.7 282.5 104.3 281.4 77 280 c 1
 87 330 l 1
 113.9 328.6 142.9 327.6 172.9 326.9 c 1
 211 523 l 2
 214.1 539.1 215.6 552.2 215.6 562.9 c 0
 215.6 607.5 189.9 610.6 148 613 c 1
 145.1 615.2 143.8 619.4 143.8 624.2 c 0
 143.8 632.8 148 643.2 155 647 c 1
 155 647 265 645 303 645 c 0
 341 645 381 646 432 646 c 0
 633.8 646 725.9 534.9 725.9 387.1 c 0
 725.9 252.6 660.7 132.3 596 82 c 0
 516 20 416 -2 332 -2 c 0
 294 -2 215 0 177 0 c 0
EndSplineSet
Position2: "'cpsp' Versalabstaende 1" dx=2 dy=0 dh=5 dv=0
EndChar

StartChar: Ntilde
Encoding: 209 209 300
Width: 709
GlyphClass: 2
Flags: MW
LayerCount: 2
Fore
SplineSet
565 758 m 0
 579 758 601 765 620.1 801 c 1
 634.1 801 646.9 793 645.2 781 c 1
 620 723 578.2 688 541.2 688 c 0
 518.2 688 497.1 694 479.2 709 c 1
 461 722 441.5 726 423.5 726 c 0
 401.5 726 385.2 724 368.9 686 c 1
 356.9 686 343.4 690 345.4 704 c 1
 368.6 755 406.5 797 441.5 797 c 0
 472.5 797 494.2 788 512 772 c 0
 528 758 554 758 565 758 c 0
EndSplineSet
Refer: 204 78 N 1 0 0 1 0 0 2
Position2: "'cpsp' Versalabstaende 1" dx=2 dy=0 dh=5 dv=0
EndChar

StartChar: Ograve
Encoding: 210 210 301
Width: 699
GlyphClass: 2
Flags: MW
AnchorPoint: "below" 361 -110 basechar 0
AnchorPoint: "cedilla" 354 -7 basechar 0
LayerCount: 2
Fore
SplineSet
456 616 m 0
 402.8 616 348.8 583.5 306.1 509.2 c 0
 272 449.9 233.1 331.2 233.1 226.1 c 0
 233.1 101.8 289.2 32 374 32 c 0
 493.9 32 592 216 592 422.6 c 0
 592 550.4 537.4 616 456 616 c 0
347 -10 m 0
 203.7 -10 88.2 83.6 88.2 240.7 c 0
 88.2 370.3 146.5 473.5 219 546 c 0
 288 615 380 658 476 658 c 0
 628.9 658 736.6 559.9 736.6 403.6 c 0
 736.6 175.4 569.7 -10 347 -10 c 0
EndSplineSet
Refer: 567 7900 N 1 0 0 1 162 -126 2
Position2: "'cpsp' Versalabstaende 1" dx=2 dy=0 dh=5 dv=0
EndChar

StartChar: Odieresis.alt
Encoding: 1114113 -1 305
Width: 699
GlyphClass: 2
Flags: MW
LayerCount: 2
Fore
SplineSet
180 717 m 0
 180 749 204 774 236 774 c 0
 268 774 292 749 292 717 c 0
 292 685 268 661 236 661 c 0
 204 661 180 685 180 717 c 0
639 717 m 0
 639 749 664 774 696 774 c 0
 728 774 751 749 751 717 c 0
 751 685 728 661 696 661 c 0
 664 661 639 685 639 717 c 0
EndSplineSet
Refer: 205 79 N 1 0 0 1 0 0 2
Position2: "'cpsp' Versalabstaende 1" dx=2 dy=0 dh=5 dv=0
EndChar

StartChar: multiply
Encoding: 215 215 306
Width: 527
GlyphClass: 2
Flags: MW
LayerCount: 2
Fore
SplineSet
355.3 232 m 1
 449.6 111 l 1
 397.7 69 l 1
 301.7 187 l 1
 158.7 69 l 1
 126.6 111 l 1
 269.2 227 l 1
 176.5 346 l 1
 230.5 393 l 1
 324 273 l 1
 465.5 393 l 1
 500.6 351 l 1
 355.3 232 l 1
EndSplineSet
EndChar

StartChar: Oslash
Encoding: 216 216 307
Width: 699
GlyphClass: 2
Flags: MW
AnchorPoint: "below" 361 -110 basechar 0
AnchorPoint: "cedilla" 354 -7 basechar 0
LayerCount: 2
Fore
SplineSet
717 670 m 1
 762 645 l 1
 685.6 564.9 l 1
 718.1 523 736.6 468.3 736.6 403.6 c 0
 736.6 175.4 569.7 -10 347 -10 c 0
 285.4 -10 229 7.2 184.6 39.4 c 1
 106 -43 l 1
 60 -18 l 1
 147.3 73.4 l 1
 110.4 115.3 88.2 171.9 88.2 240.7 c 0
 88.2 370.3 146.5 473.5 219 546 c 0
 288 615 380 658 476 658 c 0
 545.6 658 605.8 637.6 650.8 600.7 c 1
 717 670 l 1
456 616 m 0
 402.8 616 348.8 583.5 306.1 509.2 c 0
 272 449.9 233.1 331.2 233.1 226.1 c 0
 233.1 205.2 234.8 185.8 237.8 168.1 c 1
 577.1 523.5 l 1
 555.6 584.8 512.2 616 456 616 c 0
589.8 464.4 m 1
 254.2 112.5 l 1
 277.9 60.2 320.1 32 374 32 c 0
 493.9 32 592 216 592 422.6 c 0
 592 437.4 591.2 451.3 589.8 464.4 c 1
EndSplineSet
Position2: "'cpsp' Versalabstaende 1" dx=2 dy=0 dh=5 dv=0
EndChar

StartChar: Ugrave
Encoding: 217 217 308
Width: 702
GlyphClass: 2
Flags: MW
LayerCount: 2
Fore
SplineSet
319 522 m 2
 270 269 l 2
 257 204 245 129 283 82 c 0
 306 53 341 32 387 32 c 0
 549 32 589 165 611 277 c 2
 659 522 l 2
 675 605 659 606 588 613 c 1
 583 619 588 641 595 647 c 1
 643 646 669 645 717 645 c 0
 757 645 773 646 820 647 c 1
 825 641 820 619 813 613 c 1
 754 606 738 605 722 522 c 2
 677 295 l 2
 642 117 556 -10 359 -10 c 0
 313 -10 225 -9 173 32 c 0
 126 69 110 139 129 236 c 2
 185 522 l 2
 201 605 186 610 129 613 c 1
 124 619 128 641 135 647 c 1
 183 646 220 645 275 645 c 0
 336 645 385 646 432 647 c 1
 437 641 432 619 425 613 c 1
 350 610 335 605 319 522 c 2
EndSplineSet
Refer: 567 7900 N 1 0 0 1 172 -126 2
Position2: "'cpsp' Versalabstaende 1" dx=2 dy=0 dh=5 dv=0
EndChar

StartChar: Udieresis.alt
Encoding: 1114114 -1 311
Width: 732
GlyphClass: 2
Flags: MW
LayerCount: 2
Fore
SplineSet
409 697 m 0
 409 729 433 754 465 754 c 0
 497 754 521 729 521 697 c 0
 521 665 497 641 465 641 c 0
 433 641 409 665 409 697 c 0
576 697 m 0
 576 729 601 754 633 754 c 0
 665 754 688 729 688 697 c 0
 688 665 665 641 633 641 c 0
 601 641 576 665 576 697 c 0
338 522 m 2
 284.2 269 l 2
 270.4 204 256.4 129 295.4 82 c 0
 319.4 53.1 355.8 32 403.8 32 c 0
 572.8 32 616.1 165 639.9 277 c 2
 692 522 l 2
 709.6 605 702.8 606 689.3 613 c 1
 684.6 619 689.2 641 696.5 647 c 1
 715.3 646 731.1 645 753.1 645 c 0
 795.1 645 811.3 646 860.5 647 c 1
 865.2 641 860.6 619 853.3 613 c 1
 791.8 606 774.6 605 757 522 c 2
 708.7 295 l 2
 670.9 117 578.9 -10 373.9 -10 c 0
 326.5 -10 235 -8.9 180.8 32 c 0
 132.1 68.7 116.6 139 137.2 236 c 2
 198 522 l 2
 215.6 605 199.7 610 140.3 613 c 1
 135.6 619 140.2 641 147.5 647 c 1
 197.3 646 236.1 645 293.1 645 c 0
 329.1 645 367.3 646 386.5 647 c 1
 391.2 641 386.6 619 379.3 613 c 1
 361.7 610 355.6 605 338 522 c 2
EndSplineSet
Position2: "'cpsp' Versalabstaende 1" dx=2 dy=0 dh=5 dv=1
EndChar

StartChar: Thorn
Encoding: 222 222 313
Width: 616
GlyphClass: 2
Flags: MW
LayerCount: 2
Fore
SplineSet
211 523 m 2
 227 606 200 610 148 613 c 1
 140 619 144 641 155 647 c 1
 193 646 265 645 303 645 c 0
 341 645 410 646 449 647 c 1
 457 641 453 619 442 613 c 1
 389 610 361 606 345 523 c 2
 344.6 521.1 l 1
 381.7 523 426.5 523 444.2 523 c 0
 629.2 523 651 414 635.9 343 c 0
 620 268 528.9 150 351.9 150 c 0
 321.3 150 290.8 150.7 273.3 154.6 c 1
 267 122 l 2
 251 39 277 35 329 32 c 1
 337 26 334 4 323 -2 c 1
 285 -1 215 0 177 0 c 0
 139 0 68 -1 29 -2 c 1
 21 4 25 26 36 32 c 1
 89 35 117 39 133 122 c 2
 211 523 l 2
281 193.7 m 1
 292.8 192.2 313.7 191 343.6 191 c 0
 415.6 191 461.7 234 484.9 343 c 0
 503.5 430.7 483.5 482 423.5 482 c 0
 405.2 482 360.1 477.6 336.2 477.6 c 1
 281 193.7 l 1
EndSplineSet
Position2: "'cpsp' Versalabstaende 1" dx=2 dy=0 dh=5 dv=0
EndChar

StartChar: germandbls
Encoding: 223 223 314
Width: 599
GlyphClass: 2
Flags: MW
AnchorPoint: "below" 82 -111 basechar 0
LayerCount: 2
Fore
SplineSet
406.1 32 m 0
 388.1 32 369.1 41 371.8 53 c 0
 376.7 75 394.1 86 398.5 106 c 0
 403.8 130 382.4 146 358.4 146 c 0
 330.4 146 307.7 116 303.7 98 c 0
 291.9 45 313.8 -10 396.8 -10 c 0
 517 -10 603 121 603 216 c 0
 603 307 536.5 385 455 409 c 1
 455 411 l 1
 571.5 452.5 642.5 517.5 642.5 599.5 c 0
 642.5 623 628.6 655.4 600 675 c 0
 575 692.1 528.4 698 486 698 c 0
 381 698 250 639 206 477 c 0
 198 450 177 434 146 434 c 0
 122 434 116 405 116 397 c 0
 116 391.9 119 390.6 124 390 c 2
 171 385 l 2
 181.4 383.9 183 381 183 374 c 1
 164.2 282 153 232 137 141 c 0
 117.1 27.7 120.3 -78.7 76.2 -147.6 c 0
 62.9 -168.4 39.4 -183.6 21.4 -183.6 c 0
 2.2 -183.6 -2.8 -171.8 -11.7 -157.8 c 1
 -21.9 -143.8 -44.8 -121.8 -67.7 -121.8 c 0
 -100.8 -121.8 -115.2 -147.6 -115.2 -168 c 0
 -115.2 -194.7 -83 -233.2 -1.4 -233.2 c 0
 47.9 -233.2 100.6 -209.2 137.8 -157.6 c 0
 171.3 -111.1 228.8 11.8 255.9 130 c 0
 277 222 287.6 285.9 307 374 c 2
 322 442 l 2
 346 550 363.5 660 461 660 c 0
 479.5 660 509.5 644 509.5 607 c 0
 509.5 507 461.5 446 394 409 c 1
 391 396 l 1
 469 340 464 282 464 208 c 0
 464 127 439 32 406.1 32 c 0
EndSplineSet
EndChar

StartChar: agrave
Encoding: 224 224 315
Width: 558
GlyphClass: 2
Flags: MW
LayerCount: 2
Fore
SplineSet
508 436 m 0
 521.3 436 528.5 428.6 528.5 414.9 c 0
 528.5 397.8 516.8 359.5 508.3 320.2 c 2
 466 124 l 2
 462.8 110.3 459.3 93.8 459.3 81.4 c 0
 459.3 70.6 462 63 470 63 c 0
 480 63 514 80 540 110 c 1
 554 110 566 91 569 82 c 1
 523 23 460.5 -10 391 -10 c 0
 361 -10 348.5 2.5 341 23 c 0
 338.7 29.3 337.7 37.5 337.7 46.9 c 0
 337.7 64.4 341.1 86 346 106.7 c 2
 351 125 l 1
 347 127 l 1
 287 38 224.5 -10 182 -10 c 0
 109 -10 75.1 49.1 75.1 117.5 c 0
 75.1 192.4 103.5 258.6 148.5 315.6 c 0
 203.8 385.8 284 439 368 439 c 0
 408 439 406 436 433 433 c 0
 437.8 431.8 443.1 431.4 448.9 431.4 c 0
 467.3 431.4 489.7 436 508 436 c 0
364.5 226 m 1
 389.5 290 397 378 397 378 c 1
 395.1 390.5 384 397 363 397 c 0
 319.6 397 280.2 362.6 251 314.5 c 0
 219.7 262.9 200.1 195.6 200.1 138.4 c 0
 200.1 107.5 213.1 84.5 244.1 84.5 c 0
 276.1 84.5 315.5 136 364.5 226 c 1
EndSplineSet
Refer: 453 768 N 1 0 0 1 512 0 2
EndChar

StartChar: atilde
Encoding: 227 227 318
Width: 558
GlyphClass: 2
Flags: MW
LayerCount: 2
Fore
SplineSet
508 436 m 0
 521.3 436 528.5 428.6 528.5 414.9 c 0
 528.5 397.8 516.8 359.5 508.3 320.2 c 2
 466 124 l 2
 462.8 110.3 459.3 93.8 459.3 81.4 c 0
 459.3 70.6 462 63 470 63 c 0
 480 63 514 80 540 110 c 1
 554 110 566 91 569 82 c 1
 523 23 460.5 -10 391 -10 c 0
 361 -10 348.5 2.5 341 23 c 0
 338.7 29.3 337.7 37.5 337.7 46.9 c 0
 337.7 64.4 341.1 86 346 106.7 c 2
 351 125 l 1
 347 127 l 1
 287 38 224.5 -10 182 -10 c 0
 109 -10 75.1 49.1 75.1 117.5 c 0
 75.1 192.4 103.5 258.6 148.5 315.6 c 0
 203.8 385.8 284 439 368 439 c 0
 408 439 406 436 433 433 c 0
 437.8 431.8 443.1 431.4 448.9 431.4 c 0
 467.3 431.4 489.7 436 508 436 c 0
364.5 226 m 1
 389.5 290 397 378 397 378 c 1
 395.1 390.5 384 397 363 397 c 0
 319.6 397 280.2 362.6 251 314.5 c 0
 219.7 262.9 200.1 195.6 200.1 138.4 c 0
 200.1 107.5 213.1 84.5 244.1 84.5 c 0
 276.1 84.5 315.5 136 364.5 226 c 1
EndSplineSet
Refer: 456 771 N 1 0 0 1 510 0 2
EndChar

StartChar: ae
Encoding: 230 230 321
Width: 715
GlyphClass: 2
Flags: MW
AnchorPoint: "above" 490 645 basechar 0
LayerCount: 2
Fore
SplineSet
600 397 m 0
 547 397 500 339 473 260 c 1
 545.8 264.7 592.7 267.7 619.5 288.3 c 0
 634.8 300.1 646 321 646 347 c 0
 646 372 629 397 600 397 c 0
314 94 m 1
 321.5 111.5 332 162 344 209 c 1
 278.1 200.9 231.2 179.8 204.5 153.1 c 0
 186.9 135.5 177 117.2 177 89 c 0
 177 60 192 40 230 40 c 0
 255 40 285.5 52.5 314 94 c 1
319 397 m 0
 277.1 397 246 380.5 246 342 c 0
 246 334.2 244.5 319.7 242.5 315 c 0
 235.5 299 221 280 182 280 c 0
 142 280 127 305 127 323 c 0
 127 393.8 241.9 439 333 439 c 0
 355 439 424 433 444 381 c 0
 445.6 379.3 451.1 381.9 452.5 380 c 1
 493 422 556 439 610 439 c 0
 727 439 764 383 764 346 c 0
 764 316 747.6 288.2 729 272.5 c 0
 688.8 238.6 609 224 461 217 c 1
 456 196 454 177 454 159 c 0
 454 89 486 46 535 46 c 0
 577 46 617 63.5 663 105.5 c 1
 676.5 102.8 685.8 93.7 694 83 c 1
 653 29 586 -10 508 -10 c 0
 426 -10 386.5 34.5 373.5 62.5 c 1
 369.5 63 l 1
 330.9 18 270.3 -10 217 -10 c 0
 113 -10 61 28 61 85 c 0
 61 126.9 85.7 159.4 112.5 182.1 c 0
 160.5 222.7 240 243.6 354 253 c 1
 363 295 367 318 367 339 c 0
 367 372.6 353.5 397 319 397 c 0
EndSplineSet
EndChar

StartChar: ccedilla
Encoding: 231 231 322
Width: 434
GlyphClass: 2
Flags: MW
LayerCount: 2
Fore
SplineSet
165.4 -97 m 1
 160.3 -91 l 1
 212.6 -9.4 l 1
 159.9 -6.2 126.6 9.4 101 42 c 0
 73 78 64 136 78 201 c 0
 109 349 235 444 345 444 c 0
 446 444 485 394 474 340 c 0
 467 309 441 284 411 284 c 0
 381 284 361 304 364 331 c 0
 368 363 362 402 328 402 c 0
 279 402 234 347 210 236 c 0
 187 128 228 66 289 66 c 0
 323 66 355 81 400 118 c 1
 409 118 421 96 421 87 c 1
 377.3 35.9 306.9 -4 248.2 -9.4 c 1
 232.9 -37 l 1
 277 -46.1 321.6 -66.5 313.9 -121.1 c 0
 306.8 -171.3 249.2 -211 184.4 -211 c 0
 152.4 -211 146.3 -205 122.8 -194 c 1
 124.2 -184 126.7 -172.2 136.4 -168 c 1
 162 -178 172.5 -182 192.5 -182 c 0
 222.5 -182 244.4 -168 248.2 -141 c 0
 253.5 -103.4 201.1 -99 165.4 -97 c 1
EndSplineSet
EndChar

StartChar: eth
Encoding: 240 240 331
Width: 559
GlyphClass: 2
Flags: MW
LayerCount: 2
Fore
SplineSet
81.3 209 m 0
 99.1 289.5 145.7 344.7 199.7 382 c 0
 262.5 425.3 335.5 444 384.4 444 c 0
 400.4 444 418 442 434.3 439 c 1
 424.5 485 405.6 526 381.5 557 c 1
 342.2 533 290.5 503 255.1 483 c 1
 239.1 519 l 1
 359.6 589 l 1
 338.4 616.2 315.1 645.2 292.2 664 c 1
 324.7 698 l 1
 366.2 673 401.1 650 425 627 c 1
 464.3 651 517.9 681 553.6 702 c 1
 569.6 666 l 1
 456 600 l 1
 489.6 562 531.8 514.8 555.4 462 c 0
 583.1 400.2 587.8 323.9 569 239 c 0
 550.6 156 513.8 92.9 460.5 52 c 0
 404 8.7 329.6 -10 266.8 -10 c 0
 128.8 -10 58.2 105 81.3 209 c 0
292.1 32 m 0
 330.1 32 390.9 67 425.9 225 c 0
 436.1 271 441.9 320 445 361 c 1
 428.3 385 402.1 402 373.1 402 c 0
 290.1 402 241.5 300 225.3 227 c 0
 200.7 116 235.1 32 292.1 32 c 0
EndSplineSet
EndChar

StartChar: oslash
Encoding: 248 248 333
Width: 479
GlyphClass: 2
Flags: MW
AnchorPoint: "ogonek" 370 44 basechar 0
AnchorPoint: "cedilla" 229.4 -3 basechar 0
AnchorPoint: "below" 185.2 -107 basechar 0
LayerCount: 2
Fore
SplineSet
220 -10 m 1024
478 471 m 1
 512 446 l 1
 466.7 392.1 l 1
 494.6 361 505 319.1 505 281 c 0
 505 145.9 432.6 57.9 345.5 14 c 0
 316.1 -0.8 265.5 -10 225 -10 c 0
 191.9 -10 165.7 -2.7 145 9.3 c 1
 102.8 -40.9 l 1
 69.8 -12.9 l 1
 111.9 37 l 1
 80.6 74 72 125.3 72 162 c 0
 72 248.8 127.7 352.9 221.5 405 c 0
 257.4 425 298.8 439 345 439 c 0
 381.9 439 411 431.3 433.7 418.5 c 1
 478 471 l 1
375.7 283.9 m 1
 209.4 86 l 1
 220.4 43.9 240.4 32 260 32 c 0
 364.2 32 376 177.4 376 260 c 0
 376 267.7 375.9 275.7 375.7 283.9 c 1
369.7 342.7 m 1
 362.9 373.5 348.9 397 320 397 c 0
 218.9 397 201 270 201 170 c 0
 201 160.5 201.2 151.7 201.6 143.4 c 1
 369.7 342.7 l 1
EndSplineSet
EndChar

StartChar: udieresis
Encoding: 252 252 334
Width: 646
GlyphClass: 2
Flags: MW
LayerCount: 2
Fore
SplineSet
431 106.7 m 2
 431 106.7 424.6 79.7 433.6 122 c 1
 431.7 124 l 1
 339.7 16 284.6 -6 232.6 -6 c 0
 193.6 -6 143.6 16 143.6 76 c 0
 143.6 94 143.3 115.1 151.6 150 c 2
 189.6 309 l 2
 195.9 334.6 202.9 370 185.6 370 c 0
 175.6 370 141.6 353 115.6 323 c 1
 101.6 323 89.6 342 86.6 351 c 1
 132.6 410 202.1 443 271.6 443 c 0
 301.6 443 313.1 430.5 320.6 410 c 0
 327.1 392.2 321.4 349.8 313.6 318 c 2
 276.6 158 l 2
 267 116.7 271.3 76 307.6 76 c 0
 343.6 76 379.6 123 442.6 205 c 1
 480.8 361 l 2
 490.3 399.8 488.6 443 549.6 443 c 0
 605.6 443 615.5 432.5 615.5 415.8 c 0
 615.5 406 607.1 380.9 602.8 361 c 2
 551 124 l 2
 548 110.3 544.3 93.8 544.3 81.4 c 0
 544.3 70.6 547 63 555 63 c 0
 565 63 599 80 625 110 c 1
 639 110 651 91 654 82 c 1
 608 23 545.5 -10 476 -10 c 0
 446 -10 433.5 2.5 426 23 c 0
 423.7 29.3 422.7 37.5 422.7 46.9 c 0
 422.7 64.4 427.4 85.7 431 106.7 c 2
EndSplineSet
Refer: 259 168 N 1 0 0 1 83 0 2
EndChar

StartChar: yacute
Encoding: 253 253 335
Width: 514
GlyphClass: 2
Flags: MW
LayerCount: 2
Fore
SplineSet
191 338 m 0
 183.5 348.5 179.5 350.5 166.5 350.5 c 0
 146 350.5 120 338.5 108 332.8 c 1
 100 340.5 92.4 360.6 91 371.5 c 1
 127 392.5 223 439 258 439 c 0
 283 439 296 418 310 365 c 1
 335 262 342 180 348 87 c 1
 352 86 l 1
 433.5 222 l 2
 461.5 268.8 466 310 466 331.5 c 0
 466 353.3 439 374.5 439 409.5 c 0
 439 431.5 475 439 496 439 c 0
 521 439 560.5 427.5 560.5 392.5 c 0
 560.5 344 548.1 304.2 510 242 c 2
 319 -70 l 2
 257.2 -170.9 169.6 -236.6 109.8 -236.6 c 0
 90.2 -236.6 40.8 -225 40.8 -178.6 c 0
 40.8 -135 69 -108 93 -108 c 0
 102.2 -108 124.7 -119.2 132.8 -127.9 c 0
 139.7 -135.1 164.5 -152 176 -152 c 0
 192.1 -152 221 -129 262 -62 c 1
 276 -32 225.3 290 191 338 c 0
EndSplineSet
Refer: 454 769 N 1 0 0 1 567 0 2
EndChar

StartChar: thorn
Encoding: 254 254 336
Width: 550
GlyphClass: 2
Flags: MW
AnchorPoint: "below" 298 -110 basechar 0
AnchorPoint: "above" 325 646 basechar 0
LayerCount: 2
Fore
SplineSet
231 563 m 2
 246.3 632.2 231 638 169 638 c 1
 166 647 168 660 174 672 c 1
 217 679 309 698 340 698 c 0
 363 698 370 686 370 665 c 0
 370 645 362.3 615.9 355 583 c 2
 355 583 328.6 466.8 316 404 c 1
 343 420 380 439 431 439 c 0
 531 439 575 373 575 289 c 0
 575 220.1 530.1 110.5 453 45 c 0
 411.5 9.7 358 -10 303 -10 c 0
 267 -10 247 7 232 23 c 1
 193 -151 l 2
 185 -185 211 -190 226 -192 c 2
 245 -195 l 2
 249 -196 251 -198 251 -203 c 2
 251 -233 l 1
 249 -235 l 1
 249 -235 181 -233 142 -233 c 0
 106 -233 -5 -238 -5 -238 c 1
 -7 -236 l 1
 -7 -207 l 2
 -7 -201 -2 -200 3 -199 c 2
 22 -196 l 2
 54 -191 68.9 -179 75 -151 c 2
 171 293 l 1
 143 270 121 252 99 223 c 1
 81 223 74.9 244.8 71 259 c 1
 99 294 136 324 186 360 c 1
 201.3 427.4 231 563 231 563 c 2
447 273 m 0
 447 322 439 388 397 388 c 0
 359 388 330 370 305 354 c 1
 241 75 l 1
 262 46 289 32 315 32 c 0
 402 32 447 207 447 273 c 0
EndSplineSet
EndChar

StartChar: ydieresis
Encoding: 255 255 337
Width: 514
GlyphClass: 2
Flags: MW
LayerCount: 2
Fore
SplineSet
191 338 m 0
 183.5 348.5 179.5 350.5 166.5 350.5 c 0
 146 350.5 120 338.5 108 332.8 c 1
 100 340.5 92.4 360.6 91 371.5 c 1
 127 392.5 223 439 258 439 c 0
 283 439 296 418 310 365 c 1
 335 262 342 180 348 87 c 1
 352 86 l 1
 433.5 222 l 2
 461.5 268.8 466 310 466 331.5 c 0
 466 353.3 439 374.5 439 409.5 c 0
 439 431.5 475 439 496 439 c 0
 521 439 560.5 427.5 560.5 392.5 c 0
 560.5 344 548.1 304.2 510 242 c 2
 319 -70 l 2
 257.2 -170.9 169.6 -236.6 109.8 -236.6 c 0
 90.2 -236.6 40.8 -225 40.8 -178.6 c 0
 40.8 -135 69 -108 93 -108 c 0
 102.2 -108 124.7 -119.2 132.8 -127.9 c 0
 139.7 -135.1 164.5 -152 176 -152 c 0
 192.1 -152 221 -129 262 -62 c 1
 276 -32 225.3 290 191 338 c 0
EndSplineSet
Refer: 259 168 N 1 0 0 1 70 0 2
EndChar

StartChar: Aogonek
Encoding: 260 260 342
Width: 710
GlyphClass: 2
Flags: MW
LayerCount: 2
Fore
SplineSet
690 -179 m 1
 664 -215 620 -234 581 -234 c 0
 561.7 -234 545.4 -227.4 531 -218 c 0
 508.1 -203 492 -177.9 492 -138 c 0
 492 -88.6 541.4 -30.2 594.7 -0.1 c 1
 586.8 0 579.1 0 572 0 c 0
 535 0 444 -1 408 -2 c 1
 403 4 407 26 414 32 c 1
 460 35 498 31 493 72 c 2
 471 235 l 1
 289 235 l 2
 266 235 259 231 252 218 c 2
 174 79 l 2
 151 38 195 35 231 32 c 1
 236 26 231 4 224 -2 c 1
 189 -1 136 0 97 0 c 0
 60 0 42 -1 6 -2 c 1
 1 4 6 26 13 32 c 1
 55 35 85 40 122 102 c 2
 430 614 l 1
 464 614 528 649 544 658 c 1
 631 86 l 2
 638 35 670 36 707 32 c 1
 712 26 707 4 700 -2 c 1
 692.5 -1.8 684.1 -1.6 675.2 -1.4 c 1
 625.7 -6.8 584 -68.4 584 -132 c 0
 584 -164 601.5 -174 619 -174 c 0
 636 -174 660 -171 675 -156 c 1
 690 -179 l 1
317 283 m 2
 463 283 l 1
 430 520 l 1
 424 520 l 1
 295 296 l 2
 289 286 296 283 317 283 c 2
EndSplineSet
Position2: "'cpsp' Versalabstaende 1" dx=2 dy=0 dh=5 dv=0
EndChar

StartChar: aogonek
Encoding: 261 261 343
Width: 558
GlyphClass: 2
Flags: MW
LayerCount: 2
Fore
SplineSet
508 436 m 0
 521.3 436 528.5 428.6 528.5 414.9 c 0
 528.5 397.8 516.8 359.5 508.3 320.2 c 2
 466 124 l 2
 462.8 110.3 459.2 93.8 459.2 81.4 c 0
 459.2 70.6 462 63 470 63 c 0
 480 63 514 80 540 110 c 1
 554 110 566 91 569 82 c 1
 543 48.7 511.8 23.7 477 8.2 c 1
 432.1 -33.2 402 -74.9 402 -140 c 0
 402 -161 419.5 -172 437 -172 c 0
 454 -172 478 -169 493 -154 c 1
 508 -177 l 1
 482 -213 438 -232 399 -232 c 0
 349 -232 310 -201 310 -146 c 0
 310 -96 354.5 -48 402.1 -9.7 c 1
 398.4 -9.9 394.7 -10 391 -10 c 0
 361 -10 348.5 2.5 341 23 c 0
 338.7 29.3 337.7 37.5 337.7 46.9 c 0
 337.7 64.4 341.1 86 346 106.7 c 2
 351 125 l 1
 347 127 l 1
 287 38 224.5 -10 182 -10 c 0
 109 -10 75.1 49.1 75.1 117.5 c 0
 75.1 192.4 103.5 258.6 148.5 315.6 c 0
 203.8 385.8 284 439 368 439 c 0
 408 439 406 436 433 433 c 0
 437.8 431.8 443.1 431.4 448.9 431.4 c 0
 467.3 431.4 489.7 436 508 436 c 0
364.5 226 m 1
 389.5 290 397 378 397 378 c 1
 395.1 390.5 384 397 363 397 c 0
 319.6 397 280.2 362.6 251 314.5 c 0
 219.7 262.9 200.2 195.6 200.2 138.4 c 0
 200.2 107.5 213.1 84.5 244.1 84.5 c 0
 276.1 84.5 315.5 136 364.5 226 c 1
EndSplineSet
EndChar

StartChar: Dcroat
Encoding: 272 272 354
Width: 698
GlyphClass: 2
Flags: MW
LayerCount: 2
Fore
SplineSet
267 119 m 2
 264.6 106.9 263.4 96.6 263.4 87.8 c 0
 263.4 48.1 288.1 40 343 40 c 0
 460.6 40 584.6 204.3 584.6 426.3 c 0
 584.6 524.7 549.4 604 420 604 c 0
 385 604 357 584 346 529 c 2
 307.1 327 l 1
 400 327 l 1
 392 287 l 1
 299.4 287 l 1
 267 119 l 2
177 0 m 0
 139 0 29 -2 29 -2 c 1
 26.1 0.2 24.8 4.4 24.8 9.2 c 0
 24.8 17.8 29 28.2 36 32 c 1
 89 35 117 39 133 122 c 2
 165.1 287 l 1
 78 287 l 1
 86 327 l 1
 172.9 327 l 1
 211 523 l 2
 214.1 539.1 215.6 552.2 215.6 562.9 c 0
 215.6 607.5 189.9 610.6 148 613 c 1
 145.1 615.2 143.8 619.4 143.8 624.2 c 0
 143.8 632.8 148 643.2 155 647 c 1
 155 647 265 645 303 645 c 0
 341 645 381 646 432 646 c 0
 633.8 646 725.9 534.9 725.9 387.1 c 0
 725.9 252.6 660.7 132.3 596 82 c 0
 516 20 416 -2 332 -2 c 0
 294 -2 215 0 177 0 c 0
EndSplineSet
Position2: "'cpsp' Versalabstaende 1" dx=2 dy=0 dh=5 dv=0
EndChar

StartChar: dcroat
Encoding: 273 273 355
Width: 561
GlyphClass: 2
Flags: MW
LayerCount: 2
Fore
SplineSet
635 572 m 1
 626 533 l 1
 557.9 533 l 1
 468 127 l 2
 464.9 113.2 461.4 96.6 461.4 84.2 c 0
 461.4 73.5 464 66 472 66 c 0
 482 66 516 83 542 113 c 1
 556 113 568 94 571 85 c 1
 521 30 454.5 -10 385 -10 c 0
 349.1 -10 334.3 12.7 334.3 47.1 c 0
 334.3 67.4 338.8 94.7 343.8 117.1 c 1
 342 118 l 1
 282 30 235 -10 178 -10 c 0
 90 -10 58 51 58 124 c 0
 58 213.1 102 321 188 389 c 0
 233.1 424.6 272 439 325 439 c 0
 363 439 392 414 404 384 c 1
 404.4 384 l 1
 438.2 533 l 1
 352 533 l 1
 361 572 l 1
 447 572 l 1
 459.5 632.5 442.2 638 383 638 c 1
 380 647 382 660 388 672 c 1
 431 679 523 698 554 698 c 0
 577 698 584 686 584 665 c 0
 584 645 576 616 569 583 c 2
 566.6 572 l 1
 635 572 l 1
382.5 281.8 m 2
 384.2 288.3 385.5 294.2 386.4 299.6 c 2
 382.5 281.8 l 2
377.2 264.1 m 1
 387.8 311.1 l 2
 387.9 312.8 388 314.5 388 316 c 0
 388 351 366 393 328 393 c 0
 242 393 179 256 179 150 c 0
 179 94 191 56 220 56 c 0
 259 56 297 104 346 194 c 0
 360 219.6 370.3 243.6 377.2 264.1 c 1
EndSplineSet
EndChar

StartChar: dotlessi
Encoding: 305 305 359
Width: 342
GlyphClass: 2
Flags: MW
AnchorPoint: "below" 139 -108 basechar 0
AnchorPoint: "above" 267 645 basechar 0
LayerCount: 2
Fore
SplineSet
293.3 320.2 m 2
 251 124 l 2
 245.1 98.4 237.7 63 255 63 c 0
 265 63 299 80 325 110 c 1
 339 110 351 91 354 82 c 1
 308 23 238.5 -10 169 -10 c 0
 139 -10 127.5 2.5 120 23 c 0
 113.5 40.8 120 83 127 115 c 2
 171 321 l 2
 176.6 347 177 352.9 177 362 c 0
 177 372 171 381.1 159 382 c 2
 119 385 l 1
 113 394 114.3 415 121 423 c 1
 168 429 261 436 293 436 c 0
 306.2 436 313.5 428.6 313.5 414.9 c 0
 313.5 397.8 301.8 359.5 293.3 320.2 c 2
EndSplineSet
EndChar

StartChar: ij
Encoding: 307 307 361
Width: 623
GlyphClass: 2
Flags: MW
LayerCount: 2
Fore
SplineSet
192 321 m 2
 198.6 349 198 352.9 198 362 c 0
 198 372 192 381.1 180 382 c 2
 140 385 l 1
 134 394 135.3 415 142 423 c 1
 189 429 282 436 314 436 c 0
 327.2 436 334.5 428.6 334.5 414.9 c 0
 334.5 397.8 323.4 359.3 314.3 320.2 c 2
 276.6 158 l 2
 267 116.7 271.3 76 307.6 76 c 0
 342.9 76 378.2 121.2 439 200.3 c 1
 464 321 l 2
 469.9 349.4 470 352.9 470 362 c 0
 470 372 464 381.1 452 382 c 2
 412 385 l 1
 406 394 407.3 415 414 423 c 1
 461 429 554 436 586 436 c 0
 599.2 436 606.5 428.6 606.5 414.9 c 0
 606.5 397.8 594.2 360.3 586.3 320.2 c 2
 569.5 235 l 1
 518 -8.10001 477 -206.8 308.2 -206.8 c 0
 248.8 -206.8 197.5 -190.6 197.5 -144.2 c 0
 197.5 -113.6 218.9 -99.2 236.7 -99.2 c 0
 303.3 -99.2 289.8 -171.6 326.5 -171.6 c 0
 350.8 -171.6 367 -142 389 -56 c 0
 403 -1.2 410 48.2 421.7 112.5 c 1
 335.6 14.4 282.7 -6 232.6 -6 c 0
 193.6 -6 143.6 16 143.6 76 c 0
 143.6 94 143.4 115.1 151.6 150 c 2
 192 321 l 2
EndSplineSet
Refer: 457 775 N 1 0 0 1 602 0 2
Refer: 457 775 N 1 0 0 1 337 0 2
LCarets2: 1 255
EndChar

StartChar: kgreenlandic
Encoding: 312 312 366
Width: 560
GlyphClass: 2
Flags: MW
AnchorPoint: "below" 226 -108 basechar 0
AnchorPoint: "cedilla" 134 9 basechar 0
AnchorPoint: "above" 373 644 basechar 0
LayerCount: 2
Fore
SplineSet
471 354 m 0
 451 354 440.1 348 410 316 c 2
 348 250 l 1
 349 246 l 1
 382 237 386.8 231.3 407.5 203 c 0
 421 184.5 443 125 454 90 c 0
 460.9 68.2 469.4 52 484.5 52 c 0
 495.5 52 516 65 536 94 c 1
 547 94 559 85 566 77 c 1
 536 15.5 480 -10 429 -10 c 0
 388 -10 367 21 334.4 93 c 0
 314 138.2 312 162 294 194 c 0
 284.9 210.1 269.5 213.9 249.9 214 c 1
 239.6 166.6 229.3 119.3 218.9 72 c 0
 210.4 32.9 211 -10 150 -10 c 0
 94 -10 84.1 0.5 84.1 17.2 c 0
 84.1 27 92.5 52.1 96.8 72 c 2
 151 321 l 2
 155.7 342.6 157 352.9 157 362 c 0
 157 372 150.5 381.1 139 382 c 2
 99 385 l 1
 93 394 94.3 415 101 423 c 1
 148 429 238 436 270 436 c 0
 283.2 436 290.5 428.6 290.5 414.9 c 0
 290.5 397.6 280 353.3 271 311 c 0
 266.8 291.4 262.5 271.7 258.2 252.1 c 1
 280.2 253.9 300.1 265.5 316 282.7 c 2
 366 337 l 2
 430.3 406.8 487.4 439 537 439 c 0
 581.4 439 602 406.3 602 380.1 c 0
 602 346.3 577.4 319.1 545 319.1 c 0
 528.2 319.1 507 325 497.2 336.4 c 0
 489.8 345 483 354 471 354 c 0
EndSplineSet
EndChar

StartChar: lacute
Encoding: 314 314 368
Width: 324
GlyphClass: 2
Flags: MW
LayerCount: 2
Fore
SplineSet
208 563 m 2
 224 632 208 638 146 638 c 1
 143 647 145 660 151 672 c 1
 194 679 286 698 317 698 c 0
 340 698 347 686 347 665 c 0
 347 645 339 616 332 583 c 2
 231 127 l 2
 227.9 113.2 224.4 96.6 224.4 84.2 c 0
 224.4 73.5 227 66 235 66 c 0
 245 66 279 83 305 113 c 1
 319 113 331 94 334 85 c 1
 284 30 217.5 -10 148 -10 c 0
 112.1 -10 97.3 12.7 97.3 47.1 c 0
 97.3 67.7 101.9 95.4 107 118 c 2
 208 563 l 2
EndSplineSet
Refer: 579 7912 N 1 0 0 1 -75 -97 2
EndChar

StartChar: uni013C
Encoding: 316 316 370
Width: 324
GlyphClass: 2
Flags: MW
LayerCount: 2
Fore
SplineSet
208 563 m 2
 224 632 208 638 146 638 c 1
 143 647 145 660 151 672 c 1
 194 679 286 698 317 698 c 0
 340 698 347 686 347 665 c 0
 347 645 339 616 332 583 c 2
 231 127 l 2
 227.9 113.2 224.4 96.6 224.4 84.2 c 0
 224.4 73.5 227 66 235 66 c 0
 245 66 279 83 305 113 c 1
 319 113 331 94 334 85 c 1
 284 30 217.5 -10 148 -10 c 0
 112.1 -10 97.3 12.7 97.3 47.1 c 0
 97.3 67.7 101.9 95.4 107 118 c 2
 208 563 l 2
EndSplineSet
Refer: 464 806 N 1 0 0 1 405 -9 2
EndChar

StartChar: lcaron
Encoding: 318 318 372
Width: 350
GlyphClass: 2
Flags: MW
LayerCount: 2
Fore
SplineSet
208 563 m 2
 224 632 208 638 146 638 c 1
 143 647 145 660 151 672 c 1
 194 679 286 698 317 698 c 0
 340 698 347 686 347 665 c 0
 347 645 339 616 332 583 c 2
 231 127 l 2
 227.9 113.2 224.4 96.6 224.4 84.2 c 0
 224.4 73.5 227 66 235 66 c 0
 245 66 279 83 305 113 c 1
 319 113 331 94 334 85 c 1
 284 30 217.5 -10 148 -10 c 0
 112.1 -10 97.3 12.7 97.3 47.1 c 0
 97.3 67.7 101.9 95.4 107 118 c 2
 208 563 l 2
EndSplineSet
Refer: 439 700 N 1 0 0 1 246 46 2
EndChar

StartChar: ldot
Encoding: 320 320 374
Width: 389
GlyphClass: 2
Flags: MW
LayerCount: 2
Fore
SplineSet
341 360 m 0
 341 385 363 409 389 409 c 0
 413 409 437 387 437 360 c 0
 437 335 416 313 389 313 c 0
 360 313 341 336 341 360 c 0
208 563 m 2
 224 632 208 638 146 638 c 1
 143 647 145 660 151 672 c 1
 194 679 286 698 317 698 c 0
 340 698 347 686 347 665 c 0
 347 645 339 616 332 583 c 2
 231 127 l 2
 227.9 113.2 224.4 96.6 224.4 84.2 c 0
 224.4 73.5 227 66 235 66 c 0
 245 66 279 83 305 113 c 1
 319 113 331 94 334 85 c 1
 284 30 217.5 -10 148 -10 c 0
 112.1 -10 97.3 12.7 97.3 47.1 c 0
 97.3 67.7 101.9 95.4 107 118 c 2
 208 563 l 2
EndSplineSet
EndChar

StartChar: Lslash
Encoding: 321 321 375
Width: 552
GlyphClass: 2
Flags: MW
LayerCount: 2
Fore
SplineSet
393 449 m 1
 404 419 l 1
 315.7 372.2 l 1
 267 121 l 2
 255 61 265 42 285 42 c 2
 343 42 l 2
 444 42 490 98 523 170 c 1
 535 172 555 170 563 165 c 1
 547 113 525 48 506 -2 c 1
 506 -2 419 0 391 0 c 2
 177 0 l 2
 140 0 29 -2 29 -2 c 1
 21 4 25 26 36 32 c 1
 89 35 117 39 133 122 c 2
 166.2 292.9 l 1
 74 244 l 1
 63 275 l 1
 174.2 333.6 l 1
 211 523 l 2
 227 606 200 610 148 613 c 1
 140 619 144 641 155 647 c 1
 155 647 265 645 303 645 c 0
 341 645 370 646 449 647 c 1
 457 641 453 619 442 613 c 1
 389 610 361 606 345 523 c 2
 323.5 412.4 l 1
 393 449 l 1
EndSplineSet
Position2: "'cpsp' Versalabstaende 1" dx=2 dy=0 dh=5 dv=0
EndChar

StartChar: lslash
Encoding: 322 322 376
Width: 324
GlyphClass: 2
Flags: MW
LayerCount: 2
Fore
SplineSet
371 438 m 1
 380 408 l 1
 283.5 363.9 l 1
 231 127 l 2
 227.9 113.2 224.4 96.6 224.4 84.2 c 0
 224.4 73.5 227 66 235 66 c 0
 245 66 279 83 305 113 c 1
 319 113 331 94 334 85 c 1
 284 30 217.5 -10 148 -10 c 0
 112.1 -10 97.3 12.7 97.3 47.1 c 0
 97.3 67.7 101.9 95.4 107 118 c 2
 148.8 302.4 l 1
 78 270 l 1
 69 299 l 1
 157.3 339.6 l 1
 208 563 l 2
 224 632 208 638 146 638 c 1
 143 647 145 660 151 672 c 1
 194 679 286 698 317 698 c 0
 340 698 347 686 347 665 c 0
 347 645 339 616 332 583 c 2
 291.8 401.6 l 1
 371 438 l 1
EndSplineSet
EndChar

StartChar: Eng
Encoding: 330 330 384
Width: 769
GlyphClass: 2
Flags: MW
AnchorPoint: "above" 579.9 804 basechar 0
AnchorPoint: "cedilla" 131.4 -3 basechar 0
LayerCount: 2
Fore
SplineSet
733 103 m 2
 703 -39 634 -92 582 -129 c 0
 534 -164 477 -187 418 -187 c 3
 391 -187 334 -167 334 -126 c 3
 334 -90 385 -60 405 -60 c 3
 445 -60 445 -88 454 -105 c 0
 461 -118 477 -128 495 -128 c 3
 538 -128 549 -99 588 81 c 2
 643 339 l 2
 653 388 658 427 658 459 c 3
 658 493 652 519 643 538 c 0
 624 577 611 592 565 592 c 3
 515 592 439 537 373 474 c 0
 364 466 353 453 347 436 c 1
 280 122 l 2
 276 102 273 86 273 74 c 0
 273 37 296 34 348 32 c 1
 349 30 350 27 350 24 c 3
 350 15 346 2 341 -2 c 1
 291 -1 247 0 197 0 c 3
 146 0 76 -1 27 -2 c 1
 26 0 25 3 25 6 c 3
 25 15 29 28 34 32 c 1
 105 35 122 39 140 122 c 2
 225 523 l 2
 229 543 232 559 232 571 c 3
 232 608 209 611 157 613 c 1
 156 615 155 618 155 621 c 3
 155 630 159 643 164 647 c 1
 214 646 283 645 333 645 c 3
 346 645 373 646 382 647 c 0
 390 647 394 645 394 640 c 3
 394 639 393 638 393 637 c 2
 393 637 381 597 367 532 c 2
 363 514 l 1
 366 514 374 521 374 521 c 1
 447 600 548 658 625 658 c 3
 687 658 747 633 773 592 c 0
 790 565 799 527 799 477 c 3
 799 437 794 388 781 329 c 2
 733 103 l 2
EndSplineSet
Position2: "'cpsp' Versalabstaende 1" dx=2 dy=0 dh=5 dv=1
EndChar

StartChar: eng
Encoding: 331 331 385
Width: 568
GlyphClass: 2
Flags: MW
LayerCount: 2
Fore
SplineSet
576 283 m 2
 537 110 l 2
 495 -79 458 -138 403 -176 c 0
 359 -207 309 -232 227 -232 c 3
 204 -232 167 -217 167 -186 c 3
 167 -157 204 -127 220 -127 c 3
 249 -127 260 -148 270 -161 c 0
 277 -170 293 -175 307 -175 c 3
 332 -175 355 -130 370 -92 c 0
 395 -30 395 19 408 76 c 2
 456 295 l 2
 457 302 459 308 459 314 c 3
 459 356 420 370 385 370 c 3
 367 370 330 368 284 343 c 1
 282 333 279 322 277 311 c 2
 225 72 l 2
 217 33 217 -10 156 -10 c 3
 100 -10 90 0 90 17 c 3
 90 27 99 52 103 72 c 2
 157 321 l 2
 162 343 163 353 163 362 c 3
 163 372 157 381 145 382 c 2
 105 385 l 1
 102 389 101 396 101 402 c 3
 101 410 103 418 107 423 c 1
 154 429 244 436 276 436 c 3
 289 436 296 429 296 415 c 3
 296 408 295 396 292 382 c 1
 357 414 437 444 473 444 c 3
 542 444 583 412 583 341 c 3
 583 324 581 304 576 283 c 2
EndSplineSet
EndChar

StartChar: omacron
Encoding: 333 333 387
Width: 479
GlyphClass: 2
Flags: MW
AnchorPoint: "ogonek" 370 44 basechar 0
AnchorPoint: "cedilla" 229.4 -3 basechar 0
AnchorPoint: "below" 185.2 -107 basechar 0
AnchorPoint: "komb_OR" 420 396 basechar 0
LayerCount: 2
Fore
SplineSet
220 -10 m 1024
467.5 538 m 2
 223.5 538 l 2
 214.5 538 212.1 546 213.5 553 c 0
 215.9 565 230.4 582 241.4 582 c 2
 486.4 582 l 2
 496.4 582 498.8 574 497.6 568 c 0
 495.2 556 480.5 538 467.5 538 c 2
EndSplineSet
Refer: 236 111 N 1 0 0 1 0 0 2
EndChar

StartChar: obreve
Encoding: 335 335 389
Width: 479
GlyphClass: 2
Flags: MW
AnchorPoint: "ogonek" 370 44 basechar 0
AnchorPoint: "cedilla" 229.4 -3 basechar 0
AnchorPoint: "below" 185.2 -107 basechar 0
LayerCount: 2
Fore
SplineSet
220 -10 m 1024
259.8 667 m 1
 254.2 613 293.6 588 356.6 588 c 0
 403.6 588 462.8 603 474.8 667 c 1
 505.3 657 l 1
 480.5 552 397.2 514 346.2 514 c 0
 265.2 514 220.9 576 225.3 657 c 1
 259.8 667 l 1
EndSplineSet
Refer: 236 111 N 1 0 0 1 0 0 2
EndChar

StartChar: Ohungarumlaut
Encoding: 336 336 390
Width: 699
GlyphClass: 2
Flags: MW
AnchorPoint: "below" 361 -110 basechar 0
AnchorPoint: "cedilla" 354 -7 basechar 0
LayerCount: 2
Fore
SplineSet
598.4 818 m 0
 606.4 811 608.8 800 607.4 790 c 0
 606.1 781 602.2 774 597.6 770 c 2
 486.8 686 l 2
 484.5 684 482.5 684 479.5 684 c 0
 474.5 684 466.3 689 467.4 697 c 0
 467.7 699 468 701 469.1 702 c 2
 547.1 816 l 2
 553.2 824 560.8 828 571.8 828 c 0
 579.8 828 588.7 827 598.4 818 c 0
466.2 824 m 0
 475.2 817 478.6 806 477.1 795 c 0
 476 787 473.1 780 467.5 776 c 2
 361.4 690 l 1
 358.3 689 355.1 688 353.1 688 c 0
 350.1 688 347.4 690 345.5 691 c 0
 341.9 694 340.5 698 341.1 702 c 0
 341.2 703 341.5 705 342.6 706 c 2
 415.8 821 l 2
 421.9 829 429.5 833 444.5 833 c 0
 453.5 833 461.8 828 466.2 824 c 0
EndSplineSet
Refer: 205 79 N 1 0 0 1 0 0 2
Position2: "'cpsp' Versalabstaende 1" dx=2 dy=0 dh=5 dv=0
EndChar

StartChar: ohungarumlaut
Encoding: 337 337 391
Width: 479
GlyphClass: 2
Flags: MW
AnchorPoint: "ogonek" 370 44 basechar 0
AnchorPoint: "cedilla" 229.4 -3 basechar 0
AnchorPoint: "below" 185.2 -107 basechar 0
LayerCount: 2
Fore
SplineSet
220 -10 m 1024
517.6 691 m 0
 516.4 685 513.9 678 506.7 672 c 2
 370.3 562 l 2
 367.9 560 365.9 560 363.9 560 c 0
 358.9 560 351 565 352.6 573 c 0
 352.8 574 353.2 576 354.4 577 c 2
 460.7 716 l 2
 467.5 725 475.1 728 487.1 728 c 0
 508 728 521.4 709.6 517.6 691 c 0
386.8 697 m 0
 385.8 692 383.6 686 378.6 681 c 2
 251.9 560 l 2
 249.5 558 246.3 557 243.3 557 c 0
 237.3 557 230.4 562 232 570 c 0
 232.2 571 232.4 572 233.6 573 c 2
 327.3 719 l 2
 335.9 732 352.1 733 356.1 733 c 0
 377 733 391 717.5 386.8 697 c 0
EndSplineSet
Refer: 236 111 N 1 0 0 1 0 0 2
EndChar

StartChar: OE
Encoding: 338 338 392
Width: 925
GlyphClass: 2
Flags: MW
AnchorPoint: "above" 665 850 basechar 0
LayerCount: 2
Fore
SplineSet
720.4 367 m 2
 787.4 367 809.9 374 825.1 429 c 1
 832.4 435 863.4 435 868.1 429 c 1
 860.4 399 854.5 377 847 343 c 0
 839.5 309 836.3 290 829.5 255 c 1
 822.2 249 791.2 249 786.5 255 c 1
 793.5 300 778.3 317 709.3 317 c 2
 628.3 317 l 1
 578 90 l 2
 572 63 586.3 42 608.3 42 c 2
 709.3 42 l 2
 785.3 42 842.7 98 878.7 170 c 1
 892.5 173.2 913.5 170.9 922.6 165 c 1
 903.3 114 883.7 48 858.6 -2 c 1
 858.6 -2 769 0 721 0 c 2
 379 0 l 2
 178 0 73.6 138 113.7 319 c 0
 153.6 499 313.4 647 510.4 647 c 1
 560.2 646 628 645 628 645 c 1
 923 645 l 2
 947 645 955.2 646 972.9 649 c 0
 975.9 649 976.6 648 976.2 646 c 0
 976.4 638 960.2 542 956.1 501 c 1
 945.3 496.3 924 494.2 912 496 c 1
 905.3 565 892.7 603 817.7 603 c 2
 732.7 603 l 2
 708.7 603 686.1 578 680.8 554 c 2
 639.4 367 l 1
 720.4 367 l 2
385.9 40 m 2
 397.9 40 l 2
 420.4 40 435 76.9 445 122 c 2
 533.7 522 l 2
 543.6 566.8 546.1 604 522.9 604 c 2
 488.9 604 l 2
 403.9 604 312.8 536 266.7 328 c 0
 221.7 125 294.9 40 385.9 40 c 2
EndSplineSet
Position2: "'cpsp' Versalabstaende 1" dx=2 dy=0 dh=5 dv=1
EndChar

StartChar: oe
Encoding: 339 339 393
Width: 725
GlyphClass: 2
Flags: MW
AnchorPoint: "above" 500 645 basechar 0
AnchorPoint: "ogonek" 378 41 basechar 0
LayerCount: 2
Fore
SplineSet
199 181 m 0
 199 90.4 228.1 32 256 32 c 0
 365.1 32 374 206 374 271 c 0
 374 332 381.1 397 320 397 c 0
 205 397 199 271 199 181 c 0
75 173 m 0
 75 293 171 439 338 439 c 0
 406.5 439 447.7 410.9 470.5 373.5 c 1
 513 412.9 571 439 647 439 c 0
 728 439 769 404 769 369 c 0
 769 351.2 768.5 317.2 738 288 c 0
 703.6 255 632.2 226.1 506 199 c 1
 505 191 505 170 505 165 c 0
 505 98 519 50 558 50 c 0
 606 50 637 66 694 124 c 1
 706 124 721 110 726 99 c 1
 667 23 589 -10 522 -10 c 0
 449.9 -10 411.8 14.2 392.8 51.9 c 1
 348.8 13.2 295.1 -10 241 -10 c 0
 128 -10 75 74.3 75 173 c 0
656 370 m 0
 656 390 645 398 624 398 c 0
 585 398 547.3 378 513 237.3 c 1
 566 246 656 280 656 370 c 0
EndSplineSet
EndChar

StartChar: Sacute
Encoding: 346 346 400
Width: 482
GlyphClass: 2
Flags: MW
LayerCount: 2
Fore
SplineSet
526 631 m 1
 521 573 517 532 507 479 c 1
 499.8 473.6 488.3 471.4 477.4 471.4 c 0
 470.2 471.4 463.2 472.4 458 474 c 1
 454 540 442 617 360 617 c 0
 311.3 617 259.7 577.2 259.7 512.9 c 0
 259.7 461.6 311.8 416.3 343 398 c 0
 398.2 365.5 483 297.3 483 204.6 c 0
 483 124.3 435.4 76.5 391 41 c 0
 344 4 291 -10 232 -10 c 0
 99 -10 101 10 46 10 c 1
 45.2 20.3 44.6 31.8 44.6 44.7 c 0
 44.6 78.2 48.2 120.9 59 175 c 1
 69.7 177.7 81.2 180.8 92.2 180.8 c 0
 97.7 180.8 103 180 108 178 c 1
 110 87 165 32 229 32 c 0
 293.6 32 347.1 71.6 347.1 135.6 c 0
 347.1 197.1 302.8 231 245.8 269.9 c 0
 176.2 317.4 128.5 367.2 128.5 445.6 c 0
 128.5 528.2 167.1 579.6 215 613.5 c 0
 254.1 641.2 316 658 369 658 c 0
 458 658 475 639 526 631 c 1
EndSplineSet
Refer: 579 7912 N 1 0 0 1 25 -127 2
Position2: "'cpsp' Versalabstaende 1" dx=2 dy=0 dh=5 dv=0
EndChar

StartChar: Scircumflex
Encoding: 348 348 402
Width: 482
GlyphClass: 2
Flags: MW
LayerCount: 2
Fore
SplineSet
526 631 m 1
 521 573 517 532 507 479 c 1
 499.8 473.6 488.3 471.4 477.4 471.4 c 0
 470.2 471.4 463.2 472.4 458 474 c 1
 454 540 442 617 360 617 c 0
 311.3 617 259.7 577.2 259.7 512.9 c 0
 259.7 461.6 311.8 416.3 343 398 c 0
 398.2 365.5 483 297.3 483 204.6 c 0
 483 124.3 435.4 76.5 391 41 c 0
 344 4 291 -10 232 -10 c 0
 99 -10 101 10 46 10 c 1
 45.2 20.3 44.6 31.8 44.6 44.7 c 0
 44.6 78.2 48.2 120.9 59 175 c 1
 69.7 177.7 81.2 180.8 92.2 180.8 c 0
 97.7 180.8 103 180 108 178 c 1
 110 87 165 32 229 32 c 0
 293.6 32 347.1 71.6 347.1 135.6 c 0
 347.1 197.1 302.8 231 245.8 269.9 c 0
 176.2 317.4 128.5 367.2 128.5 445.6 c 0
 128.5 528.2 167.1 579.6 215 613.5 c 0
 254.1 641.2 316 658 369 658 c 0
 458 658 475 639 526 631 c 1
EndSplineSet
Refer: 1511 -1 N 1 0 0 1 521 0 2
Position2: "'cpsp' Versalabstaende 1" dx=2 dy=0 dh=5 dv=0
EndChar

StartChar: Scedilla
Encoding: 350 350 404
Width: 482
GlyphClass: 2
Flags: MW
LayerCount: 2
Fore
SplineSet
526 631 m 1
 521 573 517 532 507 479 c 1
 499.8 473.6 488.3 471.4 477.4 471.4 c 0
 470.2 471.4 463.2 472.4 458 474 c 1
 454 540 442 617 360 617 c 0
 311.3 617 259.7 577.2 259.7 512.9 c 0
 259.7 461.6 311.8 416.3 343 398 c 0
 398.2 365.5 483 297.3 483 204.6 c 0
 483 124.3 435.4 76.5 391 41 c 0
 351 9.5 306.6 -5.3 257.9 -9 c 1
 232.9 -54 l 1
 277 -63.1 321.6 -83.5 313.9 -138.1 c 0
 306.8 -188.3 249.2 -228 184.4 -228 c 0
 152.4 -228 146.3 -222 122.8 -211 c 1
 124.2 -201 126.7 -189.2 136.4 -185 c 1
 162 -195 172.5 -199 192.5 -199 c 0
 222.5 -199 244.4 -185 248.2 -158 c 0
 253.5 -120.4 201.1 -116 165.4 -114 c 1
 160.3 -108 l 1
 223.1 -10 l 1
 99.1 -9.1 99.7 10 46 10 c 1
 45.2 20.3 44.6 31.8 44.6 44.7 c 0
 44.6 78.2 48.2 120.9 59 175 c 1
 69.7 177.7 81.2 180.8 92.2 180.8 c 0
 97.7 180.8 103 180 108 178 c 1
 110 87 165 32 229 32 c 0
 293.6 32 347.1 71.6 347.1 135.6 c 0
 347.1 197.1 302.8 231 245.8 269.9 c 0
 176.2 317.4 128.5 367.2 128.5 445.6 c 0
 128.5 528.2 167.1 579.6 215 613.5 c 0
 254.1 641.2 316 658 369 658 c 0
 458 658 475 639 526 631 c 1
EndSplineSet
Position2: "'cpsp' Versalabstaende 1" dx=2 dy=0 dh=5 dv=0
EndChar

StartChar: scedilla
Encoding: 351 351 405
Width: 417
GlyphClass: 2
Flags: MW
LayerCount: 2
Fore
SplineSet
148.4 -111 m 1
 143.3 -105 l 1
 204.6 -9.2 l 1
 132.4 -4.2 65 25.3 65 87 c 0
 65 119 92 138 108 138 c 0
 138 138 157 115 172 80 c 0
 187 46 217 32 248 32 c 0
 272 32 300 54 300 81 c 0
 300 128 278 157 236 181 c 0
 170 219 122 268 122 311 c 0
 122 417 228 439 297 439 c 0
 359 439 421 404 426 355 c 0
 430 323 403 304 389 300 c 0
 367 294 344 302 336 322 c 0
 323 356 313 397 270 397 c 0
 242 397 216 377 216 353 c 0
 216 302 266 276 292 262 c 0
 366 223 405 177 405 130 c 0
 405 68.6 356.2 -5.2 238.8 -9.8 c 1
 215.9 -51 l 1
 260 -60.1 304.6 -80.5 296.9 -135.1 c 0
 289.8 -185.3 232.2 -225 167.4 -225 c 0
 135.4 -225 129.3 -219 105.8 -208 c 1
 107.2 -198 109.7 -186.2 119.4 -182 c 1
 145 -192 155.5 -196 175.5 -196 c 0
 205.5 -196 227.4 -182 231.2 -155 c 0
 236.5 -117.4 184.1 -113 148.4 -111 c 1
EndSplineSet
EndChar

StartChar: Scaron
Encoding: 352 352 406
Width: 482
GlyphClass: 2
Flags: MW
LayerCount: 2
Fore
SplineSet
526 631 m 1
 521 573 517 532 507 479 c 1
 499.8 473.6 488.3 471.4 477.4 471.4 c 0
 470.2 471.4 463.2 472.4 458 474 c 1
 454 540 442 617 360 617 c 0
 311.3 617 259.7 577.2 259.7 512.9 c 0
 259.7 461.6 311.8 416.3 343 398 c 0
 398.2 365.5 483 297.3 483 204.6 c 0
 483 124.3 435.4 76.5 391 41 c 0
 344 4 291 -10 232 -10 c 0
 99 -10 101 10 46 10 c 1
 45.2 20.3 44.6 31.8 44.6 44.7 c 0
 44.6 78.2 48.2 120.9 59 175 c 1
 69.7 177.7 81.2 180.8 92.2 180.8 c 0
 97.7 180.8 103 180 108 178 c 1
 110 87 165 32 229 32 c 0
 293.6 32 347.1 71.6 347.1 135.6 c 0
 347.1 197.1 302.8 231 245.8 269.9 c 0
 176.2 317.4 128.5 367.2 128.5 445.6 c 0
 128.5 528.2 167.1 579.6 215 613.5 c 0
 254.1 641.2 316 658 369 658 c 0
 458 658 475 639 526 631 c 1
EndSplineSet
Refer: 1512 -1 N 1 0 0 1 560 0 2
Position2: "'cpsp' Versalabstaende 1" dx=2 dy=0 dh=5 dv=0
EndChar

StartChar: uni0162
Encoding: 354 354 408
Width: 625
GlyphClass: 2
Flags: MW
LayerCount: 2
Fore
SplineSet
413 123 m 2
 397 40 412 35 488 32 c 1
 493 26 488 4 481 -2 c 1
 437.5 -1.1 392.4 -0.2 337.5 -0 c 1
 316.9 -37 l 1
 361 -46.1 405.6 -66.5 397.9 -121.1 c 0
 390.8 -171.3 333.2 -211 268.4 -211 c 0
 236.4 -211 230.3 -205 206.8 -194 c 1
 208.2 -184 210.7 -172.2 220.4 -168 c 1
 246 -178 256.5 -182 276.5 -182 c 0
 306.5 -182 328.4 -168 332.2 -141 c 0
 337.5 -103.4 285.1 -99 249.4 -97 c 1
 244.3 -91 l 1
 302.5 -0 l 1
 249.1 -0.2 203.4 -1.1 161 -2 c 1
 156 4 160 26 167 32 c 1
 244 35 262 40 278 123 c 2
 353 506 l 2
 365 567 363 605 327 605 c 2
 280 605 l 2
 217 605 172 579 137 499 c 1
 125 499 110 500 101 504 c 1
 121 552 140 605 153 650 c 0
 153 651 156 653 158 653 c 0
 194 650 306 645 380 645 c 2
 515 645 l 2
 591 645 699 650 732 653 c 0
 733 653 734 651 734 650 c 0
 726 605 721 553 719 507 c 1
 710 503 691 502 680 502 c 1
 679 579 644 605 572 605 c 2
 550 605 l 2
 515 605 499 567 487 503 c 2
 413 123 l 2
EndSplineSet
Position2: "'cpsp' Versalabstaende 1" dx=2 dy=0 dh=5 dv=0
EndChar

StartChar: uni0163
Encoding: 355 355 409
Width: 367
GlyphClass: 2
Flags: MW
LayerCount: 2
Fore
SplineSet
118 118 m 2
 179 382 l 1
 109 382 l 2
 106 382 103 382 103 384 c 0
 103 386 107 406 108 409 c 0
 110 417 117 425 136 426 c 2
 189 429 l 1
 202 479 l 2
 211.9 517.2 211.2 551.9 246 561 c 0
 276.5 569 342 581 342 564 c 0
 342 552 326 491.8 322 474 c 2
 312 429 l 1
 411 429 l 1
 422 421 412 387 400 382 c 1
 302 382 l 1
 242 127 l 2
 238.8 113.2 235.4 96.6 235.4 84.2 c 0
 235.4 73.5 238 66 246 66 c 0
 256 66 290 83 316 113 c 1
 330 113 342 94 345 85 c 1
 303.6 39.5 250.9 4.2 194.6 -6.6 c 1
 169.9 -51 l 1
 214 -60.1 258.6 -80.5 250.9 -135.1 c 0
 243.8 -185.3 186.2 -225 121.4 -225 c 0
 89.4 -225 83.3 -219 59.8 -208 c 1
 61.2 -198 63.7 -186.2 73.4 -182 c 1
 99 -192 109.5 -196 129.5 -196 c 0
 159.5 -196 181.4 -182 185.2 -155 c 0
 190.5 -117.4 138.1 -113 102.4 -111 c 1
 97.3 -105 l 1
 158.1 -10 l 1
 122.8 -9.6 108.3 12.9 108.3 47.1 c 0
 108.3 67.7 112.8 95.4 118 118 c 2
EndSplineSet
EndChar

StartChar: Tbar
Encoding: 358 358 412
Width: 625
GlyphClass: 2
Flags: MW
LayerCount: 2
Fore
SplineSet
413 123 m 2
 397 40 412 35 488 32 c 1
 493 26 488 4 481 -2 c 1
 433 -1 383 0 320 0 c 0
 259 0 208 -1 161 -2 c 1
 156 4 160 26 167 32 c 1
 244 35 262 40 278 123 c 2
 318.3 329 l 1
 199 329 l 2
 191 329 190 337 191 343 c 0
 193 353 206 368 215 368 c 2
 326 368 l 1
 353 506 l 2
 365 567 363 605 327 605 c 2
 280 605 l 2
 217 605 172 579 137 499 c 1
 125 499 110 500 101 504 c 1
 121 552 140 605 153 650 c 0
 153 651 156 653 158 653 c 0
 194 650 306 645 380 645 c 2
 515 645 l 2
 591 645 699 650 732 653 c 0
 733 653 734 651 734 650 c 0
 726 605 721 553 719 507 c 1
 710 503 691 502 680 502 c 1
 679 579 644 605 572 605 c 2
 550 605 l 2
 515 605 499 567 487 503 c 2
 460.7 368 l 1
 572 368 l 2
 581 368 582 360 581 355 c 0
 579 344 567 329 555 329 c 2
 453.1 329 l 1
 413 123 l 2
EndSplineSet
Position2: "'cpsp' Versalabstaende 1" dx=2 dy=0 dh=5 dv=0
EndChar

StartChar: tbar
Encoding: 359 359 413
Width: 367
GlyphClass: 2
Flags: MW
LayerCount: 2
Fore
SplineSet
269.8 245 m 1
 242 127 l 2
 238.8 113.2 235.4 96.6 235.4 84.2 c 0
 235.4 73.5 238 66 246 66 c 0
 256 66 290 83 316 113 c 1
 330 113 342 94 345 85 c 1
 295 30 228.5 -10 159 -10 c 0
 123.1 -10 108.3 12.7 108.3 47.1 c 0
 108.3 67.7 112.8 95.4 118 118 c 2
 147.3 245 l 1
 82 245 l 2
 74 245 73 253 74 259 c 0
 76 269 89 284 98 284 c 2
 156.4 284 l 1
 179 382 l 1
 109 382 l 2
 106 382 103 382 103 384 c 0
 103 386 107 406 108 409 c 0
 110 417 117 425 136 426 c 2
 189 429 l 1
 202 479 l 2
 211.9 517.2 211.2 551.9 246 561 c 0
 276.5 569 342 581 342 564 c 0
 342 552 326 491.8 322 474 c 2
 312 429 l 1
 411 429 l 1
 422 421 412 387 400 382 c 1
 302 382 l 1
 278.9 284 l 1
 348 284 l 2
 357 284 359 276 358 271 c 0
 356 260 343 245 331 245 c 2
 269.8 245 l 1
EndSplineSet
EndChar

StartChar: utilde
Encoding: 361 361 415
Width: 646
GlyphClass: 2
Flags: MW
LayerCount: 2
Fore
SplineSet
500 589 m 0
 514 589 536 596 555.1 632 c 1
 569.1 632 581.9 624 580.2 612 c 1
 555 554 513.2 519 476.2 519 c 0
 453.2 519 432.1 525 414.2 540 c 1
 396 553 376.5 557 358.5 557 c 0
 336.5 557 320.2 555 303.9 517 c 1
 291.9 517 278.4 521 280.4 535 c 1
 303.6 586 341.5 628 376.5 628 c 0
 407.5 628 429.2 619 447 603 c 0
 463 589 489 589 500 589 c 0
EndSplineSet
Refer: 242 117 N 1 0 0 1 0 0 2
EndChar

StartChar: ubreve
Encoding: 365 365 419
Width: 646
GlyphClass: 2
Flags: MW
LayerCount: 2
Fore
SplineSet
431 106.7 m 2
 431 106.7 424.6 79.7 433.6 122 c 1
 431.6 124 l 1
 339.6 16 284.6 -6 232.6 -6 c 0
 193.6 -6 143.6 16 143.6 76 c 0
 143.6 94 143.3 115.1 151.6 150 c 2
 189.6 309 l 2
 195.9 334.6 202.9 370 185.6 370 c 0
 175.6 370 141.6 353 115.6 323 c 1
 101.6 323 89.6 342 86.6 351 c 1
 132.6 410 202.1 443 271.6 443 c 0
 301.6 443 313.1 430.5 320.6 410 c 0
 327.1 392.2 321.4 349.8 313.6 318 c 2
 276.6 158 l 2
 267 116.7 271.3 76 307.6 76 c 0
 343.6 76 379.6 123 442.6 205 c 1
 480.8 361 l 2
 490.3 399.8 488.6 443 549.6 443 c 0
 605.6 443 615.5 432.5 615.5 415.8 c 0
 615.5 406 607.1 380.9 602.8 361 c 2
 551 124 l 2
 548 110.3 544.2 93.8 544.2 81.4 c 0
 544.2 70.6 547 63 555 63 c 0
 565 63 599 80 625 110 c 1
 639 110 651 91 654 82 c 1
 608 23 545.5 -10 476 -10 c 0
 446 -10 433.5 2.5 426 23 c 0
 423.7 29.3 422.7 37.5 422.7 46.9 c 0
 422.7 64.4 427.4 85.7 431 106.7 c 2
EndSplineSet
Refer: 981 774 N 1 0 0 1 620 0 2
EndChar

StartChar: Uhungarumlaut
Encoding: 368 368 422
Width: 702
GlyphClass: 2
Flags: MW
LayerCount: 2
Fore
SplineSet
669.4 818 m 0
 677.4 811 679.8 800 678.4 790 c 0
 677.1 781 673.2 774 668.6 770 c 2
 557.8 686 l 2
 555.5 684 553.5 684 550.5 684 c 0
 545.5 684 537.3 689 538.4 697 c 0
 538.7 699 539 701 540.1 702 c 2
 618.1 816 l 2
 624.2 824 631.8 828 642.8 828 c 0
 650.8 828 659.7 827 669.4 818 c 0
537.2 824 m 0
 546.2 817 549.6 806 548.1 795 c 0
 547 787 544.1 780 538.5 776 c 2
 432.4 690 l 1
 429.3 689 426.1 688 424.1 688 c 0
 421.1 688 418.4 690 416.5 691 c 0
 412.9 694 411.5 698 412.1 702 c 0
 412.2 703 412.5 705 413.6 706 c 2
 486.8 821 l 2
 492.9 829 500.5 833 515.5 833 c 0
 524.5 833 532.8 828 537.2 824 c 0
EndSplineSet
Refer: 211 85 N 1 0 0 1 0 0 2
Position2: "'cpsp' Versalabstaende 1" dx=2 dy=0 dh=5 dv=0
EndChar

StartChar: Uogonek
Encoding: 370 370 424
Width: 702
GlyphClass: 2
Flags: MW
LayerCount: 2
Fore
SplineSet
552.5 -155 m 1
 526.5 -191 482.5 -210 443.5 -210 c 0
 393.5 -210 354.5 -179 354.5 -124 c 0
 354.5 -81 387.3 -39.5 426.8 -4.4 c 1
 405.8 -8.1 383.3 -10 359 -10 c 0
 313 -10 225 -9 173 32 c 0
 126 69 110 139 129 236 c 2
 185 522 l 2
 201 605 186 610 129 613 c 1
 124 619 128 641 135 647 c 1
 183 646 220 645 275 645 c 0
 336 645 385 646 432 647 c 1
 437 641 432 619 425 613 c 1
 350 610 335 605 319 522 c 2
 270 269 l 2
 257 204 245 129 283 82 c 0
 306 53 341 32 387 32 c 0
 549 32 589 165 611 277 c 2
 659 522 l 2
 675 605 659 606 588 613 c 1
 583 619 588 641 595 647 c 1
 643 646 669 645 717 645 c 0
 757 645 773 646 820 647 c 1
 825 641 820 619 813 613 c 1
 754 606 738 605 722 522 c 2
 677 295 l 2
 653.6 175.8 607.3 79.5 520.1 28.9 c 1
 476 -12.1 446.5 -53.6 446.5 -118 c 0
 446.5 -139 464 -150 481.5 -150 c 0
 498.5 -150 522.5 -147 537.5 -132 c 1
 552.5 -155 l 1
EndSplineSet
Position2: "'cpsp' Versalabstaende 1" dx=2 dy=0 dh=5 dv=0
EndChar

StartChar: uogonek
Encoding: 371 371 425
Width: 646
GlyphClass: 2
Flags: MW
LayerCount: 2
Fore
SplineSet
621.5 -161 m 1
 595.5 -197 551.5 -216 512.5 -216 c 0
 462.5 -216 423.5 -185 423.5 -130 c 0
 423.5 -86.4 457.2 -44.3 497.4 -8.9 c 1
 490.3 -9.6 483.2 -10 476 -10 c 0
 446 -10 433.5 2.5 426 23 c 0
 423.7 29.3 422.7 37.5 422.7 46.9 c 0
 422.7 64.4 427.4 85.7 431 106.7 c 2
 431 106.7 424.6 79.7 433.6 122 c 1
 431.7 124 l 1
 339.7 16 284.6 -6 232.6 -6 c 0
 193.6 -6 143.6 16 143.6 76 c 0
 143.6 94 143.3 115.1 151.6 150 c 2
 189.6 309 l 2
 195.9 334.6 202.9 370 185.6 370 c 0
 175.6 370 141.6 353 115.6 323 c 1
 101.6 323 89.6 342 86.6 351 c 1
 132.6 410 202.1 443 271.6 443 c 0
 301.6 443 313.1 430.5 320.6 410 c 0
 327.1 392.2 321.4 349.8 313.6 318 c 2
 276.6 158 l 2
 267 116.7 271.3 76 307.6 76 c 0
 343.6 76 379.6 123 442.6 205 c 1
 480.8 361 l 2
 490.3 399.8 488.6 443 549.6 443 c 0
 605.6 443 615.5 432.5 615.5 415.8 c 0
 615.5 406 607.1 380.9 602.8 361 c 2
 551 124 l 2
 548 110.3 544.2 93.8 544.2 81.4 c 0
 544.2 70.6 547 63 555 63 c 0
 565 63 599 80 625 110 c 1
 639 110 651 91 654 82 c 1
 634.7 57.3 612.6 37.2 588.3 22.1 c 1
 544.6 -18.6 515.5 -60 515.5 -124 c 0
 515.5 -145 533 -156 550.5 -156 c 0
 567.5 -156 591.5 -153 606.5 -138 c 1
 621.5 -161 l 1
EndSplineSet
EndChar

StartChar: ycircumflex
Encoding: 375 375 429
Width: 514
GlyphClass: 2
Flags: MW
LayerCount: 2
Fore
SplineSet
191 338 m 0
 183.5 348.5 179.5 350.5 166.5 350.5 c 0
 146 350.5 120 338.5 108 332.8 c 1
 100 340.5 92.4 360.6 91 371.5 c 1
 127 392.5 223 439 258 439 c 0
 283 439 296 418 310 365 c 1
 335 262 342 180 348 87 c 1
 352 86 l 1
 433.5 222 l 2
 461.5 268.8 466 310 466 331.5 c 0
 466 353.3 439 374.5 439 409.5 c 0
 439 431.5 475 439 496 439 c 0
 521 439 560.5 427.5 560.5 392.5 c 0
 560.5 344 548.1 304.2 510 242 c 2
 319 -70 l 2
 257.2 -170.9 169.6 -236.6 109.8 -236.6 c 0
 90.2 -236.6 40.8 -225 40.8 -178.6 c 0
 40.8 -135 69 -108 93 -108 c 0
 102.2 -108 124.7 -119.2 132.8 -127.9 c 0
 139.7 -135.1 164.5 -152 176 -152 c 0
 192.1 -152 221 -129 262 -62 c 1
 276 -32 225.3 290 191 338 c 0
EndSplineSet
Refer: 455 770 N 1 0 0 1 560 0 2
EndChar

StartChar: longs
Encoding: 383 383 437
Width: 334
GlyphClass: 2
Flags: MW
LayerCount: 2
Fore
SplineSet
148 188 m 2
 181 376 l 2
 183 388 184 392 170 392 c 2
 126 392 l 2
 121 392 120 393 121 397 c 2
 125 414 l 2
 127 422 135 434 152 434 c 0
 181 434 196 438 203 470 c 0
 221 550 269 613 309 645 c 0
 350 678 383 698 442 698 c 0
 547 698 560 641 560 619 c 0
 560 587 533 556 496 556 c 0
 457 556 458 575 448 607 c 0
 435 651 426 656 409 656 c 0
 387 656 368 634 333 485 c 1
 255 130 l 2
 216 -47 164 -111 130 -158 c 0
 93 -210 40 -233 -9 -233 c 0
 -91 -233 -134 -198 -134 -163 c 0
 -134 -141 -107 -115 -76 -115 c 0
 -51 -115 -34 -135 -23 -153 c 0
 -13 -171 -6 -184 13 -184 c 0
 31 -184 55 -169 68 -148 c 0
 112 -79 131 91 148 188 c 2
EndSplineSet
EndChar

StartChar: uni02BB
Encoding: 699 699 438
Width: 168
GlyphClass: 2
Flags: MW
LayerCount: 2
Fore
SplineSet
184.8 471 m 0
 146.8 471 132.4 508 139.7 544 c 0
 147 580 191.7 642 263.3 650 c 1
 264.8 633 l 1
 221 624 192.4 587 187.7 564 c 0
 185.1 551 189.5 543 197.5 543 c 0
 238.5 543 239 521 235.7 505 c 0
 232.4 489 214.8 471 184.8 471 c 0
EndSplineSet
EndChar

StartChar: uni02BC
Encoding: 700 700 439
Width: 175
GlyphClass: 2
Flags: MW
LayerCount: 2
Fore
SplineSet
211.7 652 m 0
 249.7 652 264.1 615 256.8 579 c 0
 249.5 543 204.8 481 133.2 473 c 1
 131.7 490 l 1
 175.5 499 204 536 208.7 559 c 0
 211.3 572 207 580 199 580 c 0
 158 580 157.4 602 160.7 618 c 0
 164 634 181.7 652 211.7 652 c 0
EndSplineSet
EndChar

StartChar: circumflex
Encoding: 710 710 440
Width: 349
GlyphClass: 2
Flags: MW
LayerCount: 2
Fore
SplineSet
338.9 668 m 1
 358.3 621 385.8 579 413.7 539 c 1
 389.8 525 l 1
 356.7 554 328.8 579 302.1 615 c 1
 257.4 577 220.3 552 176.8 525 c 1
 159.7 539 l 1
 203.8 579 250.5 622 288.9 668 c 1
 338.9 668 l 1
EndSplineSet
EndChar

StartChar: caron
Encoding: 711 711 441
Width: 349
GlyphClass: 2
Flags: MW
LayerCount: 2
Fore
SplineSet
254.4 518 m 1
 235 565 207.1 610 179.8 648 c 1
 202.5 661 l 1
 235.6 632 263.5 607 290.2 571 c 1
 334.9 609 374 634 416.5 661 c 1
 432.8 648 l 1
 389.9 609 342.8 564 304.4 518 c 1
 254.4 518 l 1
EndSplineSet
EndChar

StartChar: uni02C8
Encoding: 712 712 442
Width: 130
GlyphClass: 2
Flags: MW
LayerCount: 2
Fore
SplineSet
235.5 715 m 1
 231 698 223.9 663 219.2 640 c 0
 214.5 617 206.4 577 201.5 548 c 1
 191.1 541 176.5 538 170.5 538 c 0
 163.5 538 156.9 540 150.7 544 c 1
 155.8 564 162.8 599 167.1 620 c 0
 172 644 180.4 685 184.7 711 c 1
 195.9 717 209.9 722 215.9 722 c 0
 222.9 722 228.5 720 235.5 715 c 1
EndSplineSet
EndChar

StartChar: uni02C9
Encoding: 713 713 443
Width: 425
GlyphClass: 2
Flags: MW
LayerCount: 2
Fore
SplineSet
430.5 538 m 2
 186.5 538 l 2
 177.5 538 175.1 546 176.5 553 c 0
 178.9 565 193.4 582 204.4 582 c 2
 449.4 582 l 2
 459.4 582 461.8 574 460.6 568 c 0
 458.2 556 443.5 538 430.5 538 c 2
EndSplineSet
EndChar

StartChar: uni02D0
Encoding: 720 720 445
Width: 209
GlyphClass: 2
Flags: MW
LayerCount: 2
Fore
SplineSet
43.5 37 m 1
 137.1 158 l 1
 182.5 37 l 1
 43.5 37 l 1
EndSplineSet
Refer: 446 721 N 1 0 0 1 0.2 1 2
EndChar

StartChar: uni02D1
Encoding: 721 721 446
Width: 204
GlyphClass: 2
Flags: MW
LayerCount: 2
Fore
SplineSet
118.2 404 m 1
 257.2 404 l 1
 162.6 283 l 1
 118.2 404 l 1
EndSplineSet
EndChar

StartChar: ring
Encoding: 730 730 449
Width: 361
GlyphClass: 2
Flags: MW
LayerCount: 2
Fore
SplineSet
321 727 m 0
 290 727 269.4 701 267.5 671 c 0
 265.7 643 283 615 314 615 c 0
 345 615 365.7 643 367.5 671 c 0
 369.4 702 351 727 321 727 c 0
230.5 671 m 0
 233.4 717 276.7 754 322.7 754 c 0
 368.7 754 407.5 718 404.5 671 c 0
 401.7 626 360.3 588 312.3 588 c 0
 266.3 588 227.6 625 230.5 671 c 0
EndSplineSet
EndChar

StartChar: ogonek
Encoding: 731 731 450
Width: 334
GlyphClass: 2
Flags: MW
LayerCount: 2
Fore
SplineSet
234.6 -135 m 1
 196.4 -180 152.3 -200 111.3 -200 c 0
 61.3 -200 27.4 -180 38.4 -126 c 0
 49.8 -70 124.3 -18 214.3 31 c 1
 224.8 14 l 1
 152.4 -37 112 -69 102.6 -115 c 0
 97.3 -141 106 -162 143 -162 c 0
 172 -162 191.3 -146 217.8 -124 c 1
 226.8 -124 232 -128 234.6 -135 c 1
EndSplineSet
EndChar

StartChar: tilde
Encoding: 732 732 451
Width: 292
GlyphClass: 2
Flags: MW
LayerCount: 2
Fore
SplineSet
334.7 618 m 0
 356.7 618 372.8 628 395.3 670 c 1
 418.1 664 l 1
 393.9 604 358.8 574 312.8 574 c 0
 290.8 574 272.3 586 254.1 600 c 0
 238.3 611 221.5 622 204.5 622 c 0
 178.5 622 162.5 607 145.8 574 c 1
 122.8 579 l 1
 148.8 638 177.9 668 220.9 668 c 0
 250.9 668 270 654 287.2 640 c 0
 300.8 628 315.7 618 334.7 618 c 0
EndSplineSet
EndChar

StartChar: gravecomb
Encoding: 768 768 453
Width: 0
GlyphClass: 4
Flags: MW
AnchorPoint: "above" -115.2 676 mark 0
LayerCount: 2
Fore
SplineSet
-124.5 674 m 1
 -72.9 550 l 2
 -69.9 543 -66.5 532 -67.6 524 c 0
 -68.9 515 -77.8 508 -86.8 508 c 0
 -94.8 508 -104.1 513 -119 528 c 2
 -225.2 633 l 1
 -221.7 644 l 1
 -212.4 653 -180.2 676 -144.2 676 c 0
 -139.2 676 -128.4 675 -124.5 674 c 1
EndSplineSet
EndChar

StartChar: acutecomb
Encoding: 769 769 454
Width: 0
GlyphClass: 4
Flags: MW
AnchorPoint: "above" -168.7 671 mark 0
LayerCount: 2
Fore
SplineSet
-128.3 674 m 1
 -125.2 675 -117 676 -112 676 c 0
 -82 676 -65 662 -58.4 652 c 1
 -51.6 629 l 1
 -186.8 521 l 2
 -202.5 509 -217 505 -227 505 c 0
 -235 505 -241.8 513 -241 519 c 0
 -240.2 525 -237 534 -229.7 543 c 2
 -128.3 674 l 1
EndSplineSet
EndChar

StartChar: uni0302
Encoding: 770 770 455
Width: 0
GlyphClass: 4
Flags: MW
AnchorPoint: "above" -166.2 663 mark 0
LayerCount: 2
Fore
SplineSet
-140.2 663 m 1
 -117.1 614 -85.3 570 -54.1 529 c 1
 -81.8 510 l 1
 -121.1 536 -147.3 556 -177.1 593 c 1
 -220.6 554 -251.1 536 -294.8 510 c 1
 -317.1 529 l 1
 -275.3 570 -228.9 615 -192.2 663 c 1
 -140.2 663 l 1
EndSplineSet
EndChar

StartChar: tildecomb
Encoding: 771 771 456
Width: 0
GlyphClass: 4
Flags: MW
AnchorPoint: "top_punkt" -137 577 mark 0
LayerCount: 2
Fore
SplineSet
-67 589 m 0
 -53 589 -31 596 -11.9 632 c 1
 2.1 632 15 624 13.3 612 c 1
 -11.9 554 -53.8 519 -90.8 519 c 0
 -113.8 519 -134.9 525 -152.8 540 c 1
 -171 553 -190.5 557 -208.5 557 c 0
 -230.5 557 -246.8 555 -263.1 517 c 1
 -275.1 517 -288.6 521 -286.6 535 c 1
 -263.4 586 -225.5 628 -190.5 628 c 0
 -159.5 628 -137.8 619 -120 603 c 0
 -104 589 -78 589 -67 589 c 0
EndSplineSet
EndChar

StartChar: uni0307
Encoding: 775 775 457
Width: 0
GlyphClass: 4
Flags: MW
LayerCount: 2
Fore
SplineSet
-105 596 m 0
 -105 626 -82 658 -35 658 c 0
 7 658 30 622 30 592 c 0
 30 566 4 530 -41 530 c 0
 -81 530 -105 563 -105 596 c 0
EndSplineSet
EndChar

StartChar: uni0308
Encoding: 776 776 458
Width: 0
GlyphClass: 4
Flags: MW
AnchorPoint: "above" -79.8 670 mark 0
LayerCount: 2
Fore
SplineSet
-77.099609375 573 m 0
 -72.7001953125 604 -45.2998046875 628 -14.2998046875 628 c 0
 15.7001953125 628 37.2998046875 604 32.900390625 573 c 0
 28.7001953125 543 0.2998046875 519 -29.7001953125 519 c 0
 -60.7001953125 519 -81.2998046875 543 -77.099609375 573 c 0
-257.099609375 573 m 0
 -252.700195312 604 -224.299804688 628 -194.299804688 628 c 0
 -163.299804688 628 -142.700195312 604 -147.099609375 573 c 0
 -151.299804688 543 -178.700195312 519 -209.700195312 519 c 0
 -239.700195312 519 -261.299804688 543 -257.099609375 573 c 0
EndSplineSet
EndChar

StartChar: hookabovecomb
Encoding: 777 777 459
Width: 0
GlyphClass: 4
Flags: MW
LayerCount: 2
Fore
SplineSet
-71 577 m 0
 -74 556 -89.2 540 -107.3 525 c 0
 -127.7 508 -143.2 490 -147.9 464 c 1
 -178.9 464 l 1
 -173 499 -156.8 521 -143.3 539 c 0
 -133.6 551 -127.1 562 -125.4 574 c 0
 -122.2 597 -129.1 605 -147.1 605 c 0
 -164.1 605 -171.8 600 -172.5 595 c 0
 -172.9 592 -172.3 589 -171.6 587 c 0
 -169.9 585 -166 577 -167 570 c 0
 -169 556 -186.9 549 -195.9 549 c 0
 -213.9 549 -219.5 566 -218 577 c 0
 -214.9 599 -176.1 633 -134.1 633 c 0
 -80.1 633 -68.8 593 -71 577 c 0
EndSplineSet
EndChar

StartChar: uni030C
Encoding: 780 780 460
Width: 0
GlyphClass: 4
Flags: MW
AnchorPoint: "above" -182.7 676 mark 0
LayerCount: 2
Fore
SplineSet
-177.3 529 m 1
 -227.3 529 l 1
 -249.8 575 -281.8 618 -311.2 658 c 1
 -284.7 676 l 1
 -249.5 649 -226.2 630 -194.5 592 c 1
 -155.4 628 -122.5 649 -79.7 676 c 1
 -58.2 658 l 1
 -99.8 618 -141.7 576 -177.3 529 c 1
EndSplineSet
EndChar

StartChar: uni030F
Encoding: 783 783 461
Width: 0
GlyphClass: 4
Flags: MW
AnchorPoint: "above" -114.4 758 mark 0
LayerCount: 2
Fore
SplineSet
-278.4 708 m 0
 -280.1 696 -275.8 691 -268.9 683 c 2
 -183.8 591 l 2
 -179.5 586 -174.9 583 -169.9 583 c 0
 -161.9 583 -154.1 589 -152.8 598 c 0
 -152.2 602 -152.6 607 -154.9 612 c 2
 -205.9 733 l 2
 -207.5 736 -212.3 751 -231.3 751 c 0
 -256.3 751 -275 732 -278.4 708 c 0
-147.7 720 m 0
 -148.4 715 -148.2 709 -144.9 704 c 2
 -68.3 595 l 2
 -60.8 584 -53.4 580 -46.4 580 c 0
 -38.4 580 -32.6 586 -31.3 595 c 0
 -30.7 599 -31 604 -32.3 609 c 2
 -72.5 743 l 2
 -76 754 -89.6 756 -100.6 756 c 0
 -122.6 756 -145 739 -147.7 720 c 0
EndSplineSet
EndChar

StartChar: uni031B
Encoding: 795 795 462
Width: 0
GlyphClass: 4
Flags: MW
AnchorPoint: "komb_OR" -57.6 356 mark 0
LayerCount: 2
Fore
SplineSet
-5.6 415 m 0
 -16 364 -54.5 332 -109.5 332 c 2
 -133.5 332 l 1
 -128.2 358 l 1
 -104.2 358 l 2
 -93.2 358 -51.3 362 -44.4 396 c 0
 -41.8 409 -53.2 417 -67 418 c 0
 -101.2 422 -109.7 444 -105.6 464 c 0
 -100.7 488 -79.7 503 -51.7 503 c 0
 -13.7 503 4 462 -5.6 415 c 0
EndSplineSet
EndChar

StartChar: dotbelowcomb
Encoding: 803 803 463
Width: 0
GlyphClass: 4
Flags: MW
AnchorPoint: "below" -216 -113 mark 0
LayerCount: 2
Fore
SplineSet
-271 -140 m 0
 -271 -107 -245 -86 -216 -86 c 0
 -184 -86 -162 -111 -162 -140 c 0
 -162 -172 -187 -194 -216 -194 c 0
 -248 -194 -271 -169 -271 -140 c 0
EndSplineSet
EndChar

StartChar: uni0326
Encoding: 806 806 464
Width: 0
GlyphClass: 4
Flags: MW
AnchorPoint: "below" -247.8 -93 mark 0
LayerCount: 2
Fore
SplineSet
-240.9 -51 m 0
 -208.9 -51 -170.9 -66 -179.8 -129 c 0
 -187.8 -186 -245.4 -226 -315.1 -238 c 1
 -324.3 -232 -322.9 -222 -317.2 -210 c 1
 -275.7 -199 -247.3 -175 -244.8 -157 c 0
 -242 -137 -262.8 -136 -270.5 -134 c 0
 -291.8 -129 -300.7 -114 -297.2 -89 c 0
 -294.8 -72 -263.9 -51 -240.9 -51 c 0
EndSplineSet
EndChar

StartChar: uni0327
Encoding: 807 807 465
Width: 0
GlyphClass: 4
Flags: MW
AnchorPoint: "cedilla" -176.8 4 mark 0
LayerCount: 2
Fore
SplineSet
-251.6 -101 m 1
 -256.7 -95 l 1
 -191.4 7 l 1
 -157.4 7 l 1
 -184.1 -41 l 1
 -140 -50.1 -95.4 -70.5 -103.1 -125.1 c 0
 -110.2 -175.3 -167.8 -215 -232.6 -215 c 0
 -264.6 -215 -270.7 -209 -294.2 -198 c 1
 -292.8 -188 -290.3 -176.2 -280.6 -172 c 1
 -255 -182 -244.5 -186 -224.5 -186 c 0
 -194.5 -186 -172.6 -172 -168.8 -145 c 0
 -163.5 -107.4 -215.9 -103 -251.6 -101 c 1
EndSplineSet
EndChar

StartChar: Theta
Encoding: 920 920 466
Width: 699
GlyphClass: 2
Flags: MW
LayerCount: 2
Fore
SplineSet
407 358 m 2
 432 358 l 2
 514 358 520 372 530 416 c 1
 537 422 557 422 562 416 c 1
 555 386 549 359 542 322 c 0
 535 284 531 259 525 224 c 1
 518 218 498 218 493 224 c 1
 497 258 499 282 417 282 c 2
 392 282 l 2
 310 282 303 268 293 224 c 1
 286 218 266 218 261 224 c 1
 268 254 275 281 282 318 c 0
 289 356 293 381 299 416 c 1
 306 422 325 422 330 416 c 1
 326 382 325 358 407 358 c 2
EndSplineSet
Refer: 205 79 N 1 0 0 1 0 0 2
EndChar

StartChar: Xi
Encoding: 926 926 467
Width: 620
GlyphClass: 2
Flags: MW
LayerCount: 2
Fore
SplineSet
324 358 m 2
 432 358 l 2
 514 358 520 372 530 416 c 1
 537 422 557 422 562 416 c 1
 555 386 549 359 542 322 c 0
 535 284 531 259 525 224 c 1
 518 218 498 218 493 224 c 1
 497 258 499 282 417 282 c 2
 309 282 l 2
 227 282 221 268 211 224 c 1
 204 218 184 218 179 224 c 1
 186 254 192 281 199 318 c 0
 206 356 210 381 216 416 c 1
 223 422 243 422 248 416 c 1
 244 382 242 358 324 358 c 2
230 645 m 2
 637 645 l 2
 660 645 668 646 685 649 c 0
 688 649 688 648 688 646 c 0
 688 638 670 494 662 451 c 1
 650 445 641 444 629 446 c 1
 621 515 619 532 547 532 c 2
 276 532 l 2
 204 532 196 515 161 446 c 1
 149 444 139 445 130 451 c 1
 138 492 176 638 179 646 c 0
 179 648 181 649 184 649 c 0
 200 646 207 645 230 645 c 2
512 0 m 2
 105 0 l 2
 82 0 74 -1 57 -4 c 0
 54 -4 54 -3 54 -1 c 0
 54 7 72 151 80 194 c 1
 92 200 101 201 113 199 c 1
 121 130 123 113 195 113 c 2
 466 113 l 2
 538 113 546 130 581 199 c 1
 593 201 603 200 612 194 c 1
 604 153 565 7 562 -1 c 0
 562 -3 561 -4 558 -4 c 0
 542 -1 535 0 512 0 c 2
EndSplineSet
EndChar

StartChar: Pi
Encoding: 928 928 468
Width: 745
GlyphClass: 2
Flags: MW
LayerCount: 2
Fore
SplineSet
211 523 m 2
 227 606 200 610 148 613 c 1
 140 619 144 641 155 647 c 1
 193 646 265 645 303 645 c 0
 363 645 439 647 498 647 c 0
 559 647 635 645 696 645 c 0
 734 645 803 646 842 647 c 1
 850 641 847 619 836 613 c 1
 783 610 755 606 739 523 c 2
 661 122 l 2
 645 39 671 35 723 32 c 1
 731 26 727 4 716 -2 c 1
 678 -1 609 0 571 0 c 0
 533 0 462 -1 423 -2 c 1
 415 4 418 26 429 32 c 1
 482 35 510 39 526 122 c 2
 604 523 l 2
 620 606 592 600 540 603 c 1
 440 603 l 1
 387 600 361 606 345 523 c 2
 267 122 l 2
 251 39 277 35 329 32 c 1
 337 26 334 4 323 -2 c 1
 285 -1 215 0 177 0 c 0
 139 0 68 -1 29 -2 c 1
 21 4 25 26 36 32 c 1
 89 35 117 39 133 122 c 2
 211 523 l 2
EndSplineSet
EndChar

StartChar: Sigma
Encoding: 931 931 469
Width: 655
GlyphClass: 2
Flags: MW
LayerCount: 2
Fore
SplineSet
654 645 m 2
 678 645 686 646 704 649 c 0
 707 649 708 648 708 646 c 0
 708 638 688 526 677 481 c 1
 666 476 646 474 634 476 c 1
 625 545 624 598 549 598 c 2
 346 598 l 1
 520 340 l 1
 519 339 l 1
 516 325 l 1
 210 104 l 1
 440 108 l 2
 506 109 565 112 609 200 c 1
 623 203 644 201 653 195 c 1
 635 144 602 48 578 -2 c 1
 578 -2 488 0 440 0 c 2
 143 0 l 2
 123 0 21 -2 21 -2 c 1
 16 4 20 27 27 33 c 1
 59 49 127 98 145 111 c 2
 370 276 l 1
 172 576 l 2
 164 588 151 604 141 613 c 1
 136 619 141 641 148 647 c 1
 148 647 270 645 290 645 c 2
 654 645 l 2
EndSplineSet
EndChar

StartChar: beta
Encoding: 946 946 471
Width: 510
GlyphClass: 2
Flags: MW
AnchorPoint: "below" 275 -114 basechar 0
LayerCount: 2
Fore
SplineSet
290 489 m 2
 200 61 l 1
 200 61 226 91 269 105 c 1
 282 89 287 30 313 30 c 0
 351 30 374 98 387 157 c 0
 400 219 434 380 373 380 c 0
 365 380 349 372 323 372 c 0
 299 372 289 383 293 404 c 0
 297 424 317 434 336 434 c 0
 358 434 371 426 384 426 c 0
 408 426 427 476 436 517 c 0
 450 584 451 658 407 658 c 0
 377 658 322 639 290 489 c 2
27 -199 m 1
 158 416 l 2
 177 503 219 600 288 654 c 0
 325 683 383 698 433 698 c 0
 516 698 579 657 558 557 c 0
 542 483 474 432 411 405 c 1
 462 391 554 359 521 205 c 0
 498 96 409 -10 300 -10 c 0
 247 -10 207 16 198 54 c 1
 147 -187 l 1
 39 -233 l 1
 27 -199 l 1
EndSplineSet
EndChar

StartChar: eta
Encoding: 951 951 472
Width: 560
GlyphClass: 2
Flags: MW
LayerCount: 2
Fore
SplineSet
101 368 m 1
 98 374 98 389 100 399 c 1
 129.7 411 245 442 275 442 c 0
 307 442 322 430 315 397 c 0
 312.6 385.8 310.1 376.8 307.6 368.5 c 1
 346 395.3 425.7 441.1 466 442 c 0
 539 444 578 400 553 282 c 2
 492 0 l 2
 465.2 -123.8 465 -173 469 -205 c 1
 445 -237 l 1
 345 -188 l 1
 346 -147 357.1 -83 375 0 c 2
 432 265 l 2
 445 327 443 366 404 366 c 0
 374.3 366 331.6 349.6 294.4 324.8 c 1
 293.9 322.9 293.5 321 293 319 c 0
 268.4 211.7 234 43 234 43 c 2
 226.7 9.1 215 -10 175 -10 c 0
 124 -10 107.2 -1 113 26 c 2
 113 26 153 213 173 307 c 0
 183.6 355.7 182.3 368 101 368 c 1
EndSplineSet
EndChar

StartChar: iota
Encoding: 953 953 473
Width: 320
GlyphClass: 2
Flags: MW
LayerCount: 2
Fore
SplineSet
237 127 m 2
 226 77 243 60 263 60 c 0
 280 60 298 64 312 74 c 1
 321 64 326 58 323 46 c 1
 299 18 243 -10 193 -10 c 0
 172 -10 140 -1 124 18 c 0
 109 36 108 70 115 105 c 2
 160 314 l 2
 172 371 164 377 116 382 c 1
 115 388 118 410 121 416 c 1
 185 425 259 433 287 444 c 1
 300 444 307 438 305 427 c 2
 305 427 289 371 278 321 c 2
 237 127 l 2
EndSplineSet
EndChar

StartChar: uni1E7A
Encoding: 7802 7802 474
Width: 702
GlyphClass: 2
Flags: MW
LayerCount: 2
Fore
SplineSet
648 715 m 0
 631 715 607 727 607 756 c 0
 607 782 625 798 648 798 c 0
 668 798 689 782 689 756 c 0
 689 731 667 715 648 715 c 0
264 718 m 0
 240 718 223 736 223 759 c 0
 223 780 239 800 264 800 c 0
 287 800 305 781 305 759 c 0
 305 738 288 718 264 718 c 0
534.9 763 m 2
 327.5 763 l 2
 319.9 763 317.8 771 319 778 c 0
 321.1 790 333.3 807 342.7 807 c 2
 551 807 l 2
 559.5 807 561.4 799 560.4 793 c 0
 558.3 781 545.9 763 534.9 763 c 2
EndSplineSet
Refer: 211 85 N 1 0 0 1 0 0 2
EndChar

StartChar: uni1E7B
Encoding: 7803 7803 475
Width: 646
GlyphClass: 2
Flags: MW
LayerCount: 2
Fore
SplineSet
431 106.7 m 2
 431 106.7 424.6 79.7 433.6 122 c 1
 431.7 124 l 1
 339.7 16 284.6 -6 232.6 -6 c 0
 193.6 -6 143.6 16 143.6 76 c 0
 143.6 94 143.3 115.1 151.6 150 c 2
 189.6 309 l 2
 195.9 334.6 202.9 370 185.6 370 c 0
 175.6 370 141.6 353 115.6 323 c 1
 101.6 323 89.6 342 86.6 351 c 1
 132.6 410 202.1 443 271.6 443 c 0
 301.6 443 313.1 430.5 320.6 410 c 0
 327.1 392.2 321.4 349.8 313.6 318 c 2
 276.6 158 l 2
 267 116.7 271.3 76 307.6 76 c 0
 343.6 76 379.6 123 442.6 205 c 1
 480.8 361 l 2
 490.3 399.8 488.6 443 549.6 443 c 0
 605.6 443 615.5 432.5 615.5 415.8 c 0
 615.5 406 607.1 380.9 602.8 361 c 2
 551 124 l 2
 548 110.3 544.3 93.8 544.3 81.4 c 0
 544.3 70.6 547 63 555 63 c 0
 565 63 599 80 625 110 c 1
 639 110 651 91 654 82 c 1
 608 23 545.5 -10 476 -10 c 0
 446 -10 433.5 2.5 426 23 c 0
 423.7 29.3 422.7 37.5 422.7 46.9 c 0
 422.7 64.4 427.4 85.7 431 106.7 c 2
EndSplineSet
Refer: 443 713 N 1 0 0 1 105 0 2
Refer: 259 168 N 1 0 0 1 122 109 2
EndChar

StartChar: Wgrave
Encoding: 7808 7808 480
Width: 986
GlyphClass: 2
Flags: MW
LayerCount: 2
Fore
SplineSet
671 613 m 1
 728 216 l 1
 734 174 l 1
 753 210 l 1
 936 566 l 2
 955 604 914 610 878 613 c 1
 873 619 878 641 885 647 c 1
 920 646 973 645 1012 645 c 0
 1049 645 1067 646 1103 647 c 1
 1108 641 1103 619 1096 613 c 1
 1053 610 1019 602 987 543 c 2
 698 11 l 2
 688 -7 671 -12 661 -12 c 0
 650 -12 636 0 634 11 c 2
 564 410 l 1
 352 11 l 2
 342 -8 325 -12 315 -12 c 0
 304 -12 290 -4 288 11 c 2
 205 559 l 2
 198 605 166 609 129 613 c 1
 124 619 128 641 135 647 c 1
 170 646 225 645 264 645 c 0
 301 645 397 646 433 647 c 1
 438 641 433 619 426 613 c 1
 379 610 343 604 347 573 c 2
 392 216 l 1
 395 184 l 1
 407 210 l 1
 613 613 l 1
 613 613 642 607 671 613 c 1
EndSplineSet
Refer: 567 7900 N 1 0 0 1 76 1 2
EndChar

